<svg xmlns="http://www.w3.org/2000/svg">
<defs>
<font
       id="linjatomolip-Regular"
       horiz-adv-x="0">
      <font-face
         font-family="linja pi tomo lipu"
         font-weight="400"
         font-stretch="normal"
         units-per-em="1024"
         panose-1="0 0 0 0 0 0 0 0 0 0"
         ascent="850"
         descent="-167"
         x-height="436"
         cap-height="596"
         bbox="-772 -185 982 850"
         underline-thickness="50"
         underline-position="-125"
         unicode-range="U+0020-F227"
         id="font-face4" />
      <missing-glyph
         horiz-adv-x="500"
         d="M0,0h1000v1024h-1000z"
         id="missing-glyph6" />
      <glyph
         glyph-name="aa,a.space,a.exclam"
         unicode="aa"
         horiz-adv-x="708"
         d="M 169.90433,839.99441 A 48.758753,48.758753 0 0 1 121.88494,790.55132 V 303.01261 a 48.758753,48.758753 0 1 1 97.50772,0 v 487.53871 a 48.758753,48.758753 0 0 1 -49.48833,49.44309 z m 0.22454,-609.62025 a 48.758753,48.758753 0 0 1 -24.51126,-6.67783 C 134.33119,227.6825 122.2449,229.8821 109.69605,229.8821 49.689989,229.88209 0,180.19154 0,120.18547 7.1103822e-6,60.17939 49.690551,10.48937 109.69662,10.48937 c 43.51749,0 81.58991,26.14418 99.23807,63.39418 l 49.11468,-49.11464 a 48.758753,48.758753 0 1 1 68.94821,68.94875 L 205.11265,215.60207 a 48.758753,48.758753 0 0 1 -34.98378,14.77209 z m -60.43225,-97.99981 c 7.30897,0 12.18832,-4.8799 12.18832,-12.18888 0,-7.30896 -4.87935,-12.18834 -12.18832,-12.18834 -7.30898,0 -12.188891,4.87938 -12.188891,12.18834 0,7.30898 4.879911,12.18888 12.188891,12.18888 z"
         id="glyph9" />
      <glyph
         glyph-name="akesi"
         unicode="akesi"
         horiz-adv-x="850"
         d="m 232.5921,839.99531 a 48.828145,48.828145 0 1 1 0,-97.64691 h 24.41138 a 48.828145,48.828145 0 1 1 0,97.64691 z m 341.76213,0 a 48.828145,48.828145 0 1 1 0,-97.64691 h 24.41138 a 48.828145,48.828145 0 1 1 0,97.64691 z M 415.67955,778.96616 c -93.79687,0 -170.88245,-77.0855 -170.88245,-170.88244 v -12.205 H 49.504655 a 48.828145,48.828145 0 1 1 0,-97.64692 H 244.7971 V 412.79127 H 49.504655 a 48.828145,48.828145 0 1 1 0,-97.64691 H 244.7971 V 229.70383 H 49.504655 a 48.828145,48.828145 0 1 1 0,-97.64692 H 252.02171 C 273.22589,61.76458 338.826,10 415.67955,10 c 76.85357,0 142.45368,51.76453 163.65784,122.05691 h 202.51565 a 48.828145,48.828145 0 1 1 0,97.64692 H 586.56061 v 85.44053 h 195.29243 a 48.828145,48.828145 0 1 1 0,97.64691 H 586.56061 v 85.44053 h 195.29243 a 48.828145,48.828145 0 1 1 0,97.64692 H 586.56061 v 12.205 c 0,93.79694 -77.0842,170.88244 -170.88106,170.88244 z m 0,-97.64691 c 41.02485,0 73.23415,-32.21066 73.23415,-73.23553 v -12.205 H 342.44401 v 12.205 c 0,41.02487 32.21068,73.23553 73.23554,73.23553 z M 342.44401,498.2318 H 488.9137 V 412.79127 H 342.44401 Z m 0,-183.08744 H 488.9137 V 229.70383 H 342.44401 Z m 18.35035,-183.08745 h 109.769 c -13.32608,-15.02054 -32.79764,-24.41138 -54.88381,-24.41138 -22.08618,0 -41.55912,9.39084 -54.88519,24.41138 z"
         id="glyph10" />
      <glyph
         glyph-name="alasa"
         unicode="alasa"
         horiz-adv-x="850"
         d="M 171.54175,840 A 48.828408,48.828408 0 0 1 122.71773,791.17598 V 473.82402 H 49.483086 a 48.828408,48.828408 0 1 1 0,-97.64804 H 122.71773 V 58.82402 A 48.828408,48.828408 0 0 1 171.54175,10 C 281.58783,10 387.1759,53.73581 464.9902,131.55017 531.203,197.763 572.62486,284.10887 583.53926,376.17598 h 80.42426 l -38.71089,-38.71089 a 48.828408,48.828408 0 1 1 69.04751,-69.04751 l 117.79534,117.79533 a 48.828408,48.828408 0 0 1 -0.18012,77.75431 l -117.61522,117.6152 a 48.828408,48.828408 0 1 1 -69.04751,-69.04751 l 38.71089,-38.71089 H 583.53926 C 572.62486,565.89113 531.203,652.237 464.9902,718.44984 387.1759,796.26419 281.58783,840 171.54175,840 Z m 48.82263,-101.46523 c 66.08789,-10.28676 127.68673,-41.23945 175.57969,-89.13244 47.89264,-47.89267 78.8455,-109.49092 89.13245,-175.57831 H 220.36438 Z m 0,-362.35879 H 485.07652 C 474.78957,310.08859 443.83671,248.49034 395.94407,200.59767 348.05111,152.70468 286.45227,121.75199 220.36438,111.46523 Z"
         id="glyph14" />
      <glyph
         glyph-name="ala"
         unicode="ala"
         horiz-adv-x="850"
         d="M 48.749838,840.00008 A 48.771901,48.77194 0 0 1 14.775732,756.25729 L 346.0453,424.98882 14.775732,93.71899 A 48.771901,48.77194 0 1 1 83.743397,24.75127 L 415.01297,356.01973 746.28114,24.75127 a 48.771901,48.77194 0 1 1 68.96777,68.96772 L 483.98064,424.98745 815.24891,756.25729 a 48.771901,48.77194 0 1 1 -68.96777,68.96773 L 415.01297,493.95654 83.743397,825.22502 a 48.771901,48.77194 0 0 1 -34.993559,14.77506 z"
         id="glyph12" />
      <glyph
         glyph-name="ale"
         unicode="ale"
         horiz-adv-x="850"
         d="M 170.13033,599.71468 C 152.9553,599.8671 136.3221,596.68578 120.79781,589.8939 71.120079,568.15986 43.377404,521.65683 25.650689,471.24647 7.9239748,420.83609 0,362.9105 0,304.85989 0,246.80929 7.9239748,188.88368 25.650689,138.47332 43.377411,88.06297 71.120058,41.56127 120.79781,19.82728 170.47556,-1.9068 231.49965,13.31923 285.34576,56.50833 326.74367,89.71294 369.11453,139.63161 415,210.75332 460.88547,139.63161 503.25633,89.71294 544.65424,56.50833 598.50035,13.31923 659.52444,-1.9068 709.20219,19.82728 758.87994,41.56127 786.62255,88.06297 804.34934,138.47332 822.07607,188.88368 830,246.80929 830,304.85989 c 0,58.05061 -7.92393,115.9762 -25.65066,166.38658 -17.72679,50.41036 -45.4694,96.91339 -95.14715,118.64743 -49.67772,21.73404 -110.70182,6.50662 -164.54795,-36.68244 C 503.25632,520.00689 460.88547,470.08953 415,398.96785 c -45.88547,71.12168 -88.25632,121.03904 -129.65424,154.24361 -37.01921,29.69247 -77.43037,46.16791 -115.21543,46.50322 z m 5.20412,-96.52852 c 10.55626,-0.89523 25.35421,-7.24863 48.91547,-26.14671 34.61209,-27.76177 80.83807,-83.07414 134.04921,-172.17956 -53.21098,-89.10508 -99.4372,-144.4178 -134.04921,-172.17955 -37.69801,-30.23698 -52.96143,-28.35998 -64.31309,-23.39363 -11.35166,4.96635 -29.37985,25.21493 -42.16783,61.58078 -12.788,36.36585 -20.12235,85.24151 -20.12235,133.9924 0,48.7509 7.33435,97.62792 20.12235,133.9938 12.78799,36.36586 30.81615,56.61302 42.16783,61.57939 4.25688,1.86239 9.06387,3.29023 15.39762,2.75308 z m 479.33111,0 c 6.33374,0.53715 11.14073,-0.89069 15.39762,-2.75308 11.35167,-4.96637 29.37983,-25.21353 42.16785,-61.57939 12.78792,-36.36588 20.12234,-85.2429 20.12234,-133.9938 0,-48.75089 -7.33442,-97.62655 -20.12234,-133.9924 -12.78801,-36.36585 -30.8162,-56.61443 -42.16785,-61.58078 -11.35167,-4.96635 -26.61508,-6.84335 -64.3131,23.39363 -34.61201,27.76175 -80.83823,83.07447 -134.04921,172.17955 53.21114,89.10542 99.43712,144.41779 134.04921,172.17956 23.56126,18.89808 38.35922,25.25148 48.91548,26.14671 z"
         id="glyph16" />
      <glyph
         glyph-name="ali"
         id="glyph1426"
         unicode="ali"
         d="M 170.13033,623.71468 C 152.9553,623.8671 136.3221,620.68578 120.79781,613.8939 71.120079,592.15986 43.377404,545.65683 25.650689,495.24647 7.9239748,444.83609 0,386.9105 0,328.85989 0,270.80929 7.9239748,212.88368 25.650689,162.47332 43.377411,112.06297 71.120058,65.56127 120.79781,43.82728 170.47556,22.0932 231.49965,37.31923 285.34576,80.50833 326.74367,113.71294 369.11453,163.63161 415,234.75332 460.88547,163.63161 503.25633,113.71294 544.65424,80.50833 598.50035,37.31923 659.52444,22.0932 709.20219,43.82728 758.87994,65.56127 786.62255,112.06297 804.34934,162.47332 822.07607,212.88368 830,270.80929 830,328.85989 c 0,58.05061 -7.92393,115.9762 -25.65066,166.38658 -17.72679,50.41036 -45.4694,96.91339 -95.14715,118.64743 -49.67772,21.73404 -110.70182,6.50662 -164.54795,-36.68244 C 503.25632,544.00689 460.88547,494.08953 415,422.96785 c -45.88547,71.12168 -88.25632,121.03904 -129.65424,154.24361 -37.01921,29.69247 -77.43037,46.16791 -115.21543,46.50322 z m 5.20412,-96.52852 c 10.55626,-0.89523 25.35421,-7.24863 48.91547,-26.14671 34.61209,-27.76177 80.83807,-83.07414 134.04921,-172.17956 -53.21098,-89.10508 -99.4372,-144.4178 -134.04921,-172.17955 -37.69801,-30.23698 -52.96143,-28.35998 -64.31309,-23.39363 -11.35166,4.96635 -29.37985,25.21493 -42.16783,61.58078 -12.788,36.36585 -20.12235,85.24151 -20.12235,133.9924 0,48.7509 7.33435,97.62792 20.12235,133.9938 12.78799,36.36586 30.81615,56.61302 42.16783,61.57939 4.25688,1.86239 9.06387,3.29023 15.39762,2.75308 z m 479.33111,0 c 6.33374,0.53715 11.14073,-0.89069 15.39762,-2.75308 11.35167,-4.96637 29.37983,-25.21353 42.16785,-61.57939 12.78792,-36.36588 20.12234,-85.2429 20.12234,-133.9938 0,-48.75089 -7.33442,-97.62655 -20.12234,-133.9924 -12.78801,-36.36585 -30.8162,-56.61443 -42.16785,-61.58078 -11.35167,-4.96635 -26.61508,-6.84335 -64.3131,23.39363 -34.61201,27.76175 -80.83823,83.07447 -134.04921,172.17955 53.21114,89.10542 99.43712,144.41779 134.04921,172.17956 23.56126,18.89808 38.35922,25.25148 48.91548,26.14671 z" />
      <glyph
         glyph-name="anpa"
         unicode="anpa"
         horiz-adv-x="850"
         d="M 48.088839,840.68154 A 48.827835,48.827835 0 0 1 0.00490456,791.16725 V 302.93772 A 48.827835,48.827835 0 0 1 48.827858,254.11477 H 781.17213 a 48.827835,48.827835 0 0 1 48.82301,48.82295 v 488.22953 a 48.827835,48.827835 0 1 1 -97.64595,0 V 351.76067 H 97.650808 V 791.16725 A 48.827835,48.827835 0 0 1 48.088839,840.68154 Z M 415,229.70329 c -60.09109,0 -109.85164,-49.76055 -109.85164,-109.85165 C 305.14836,59.76055 354.90891,10 415,10 c 60.0911,0 109.85165,49.76055 109.85165,109.85164 0,60.0911 -49.76055,109.85165 -109.85165,109.85165 z m 0,-97.64591 c 7.31933,0 12.20574,-4.88641 12.20574,-12.20574 0,-7.31933 -4.88641,-12.20573 -12.20574,-12.20573 -7.31933,0 -12.20574,4.8864 -12.20574,12.20573 0,7.31933 4.88641,12.20574 12.20574,12.20574 z"
         id="glyph18" />
      <glyph
         glyph-name="ante"
         unicode="ante"
         horiz-adv-x="850"
         d="M 48.888051,839.99296 A 48.783283,48.783283 0 0 1 22.30069,750.24052 l 365.83818,-243.8912 a 48.783283,48.783283 0 0 1 54.11457,0 l 365.83818,243.8912 a 48.783283,48.783283 0 1 1 -54.11456,81.17184 L 415.19615,605.55982 76.415253,831.41236 a 48.783283,48.783283 0 0 1 -27.527202,8.5806 z M 414.60702,351.81688 a 48.783283,48.783283 0 0 1 -26.46815,-8.1883 L 22.30069,99.73739 A 48.783283,48.783283 0 1 1 76.415253,18.56416 L 415.19615,244.41809 753.97706,18.56416 a 48.783283,48.783283 0 1 1 54.11456,81.17323 L 442.25344,343.62858 a 48.783283,48.783283 0 0 1 -27.64642,8.1883 z"
         id="glyph20" />
      <glyph
         glyph-name="anu"
         unicode="anu"
         horiz-adv-x="850"
         d="M 48.737808,839.99999 A 48.759599,48.759599 0 0 1 14.77306,756.27737 L 366.15347,404.89834 V 59.43152 a 48.759599,48.759599 0 1 1 97.50994,0 v 345.46682 l 351.38043,351.37903 a 48.759599,48.759599 0 1 1 -68.9504,68.9504 L 414.90844,494.04141 83.723467,825.22777 a 48.759599,48.759599 0 0 1 -34.985659,14.77222 z"
         id="glyph22" />
      <glyph
         glyph-name="awen"
         unicode="awen"
         horiz-adv-x="850"
         d="M 416.96076,839.98425 A 48.829055,48.829055 0 0 1 368.35408,803.03306 L 194.50836,107.65295 H 49.539079 a 48.829055,48.829055 0 1 1 0,-97.64778 H 232.62953 a 48.829055,48.829055 0 0 1 47.36592,36.98172 L 415.71999,589.88645 551.44454,46.98689 a 48.829055,48.829055 0 0 1 47.36591,-36.98172 h 183.09048 a 48.829055,48.829055 0 1 1 0,97.64778 H 636.93162 L 463.0859,803.03306 a 48.829055,48.829055 0 0 1 -46.12514,36.95119 z"
         id="glyph24" />
      <glyph
         glyph-name="ee,e.space"
         unicode="ee"
         horiz-adv-x="850"
         d="M 48.751629,839.99999 A 48.77028,48.77028 0 0 1 14.778623,756.26021 L 346.0378,425.00241 14.778623,93.74324 A 48.77028,48.77028 0 1 1 83.743236,24.77863 L 449.48471,390.52011 a 48.77028,48.77028 0 0 1 0,68.96461 L 83.743236,825.22481 a 48.77028,48.77028 0 0 1 -34.991607,14.77518 z m 365.740101,0 A 48.77028,48.77028 0 0 1 380.5201,756.26021 L 711.7779,425.00241 380.5201,93.74324 a 48.77028,48.77028 0 1 1 68.96461,-68.96461 l 365.7401,365.74148 a 48.77028,48.77028 0 0 1 0,68.96461 l -365.7401,365.74009 a 48.77028,48.77028 0 0 1 -34.99298,14.77518 z"
         id="glyph21" />
      <glyph
         glyph-name="en"
         unicode="en"
         horiz-adv-x="850"
         d="M 414.25068,839.99446 A 48.748489,48.748489 0 0 1 366.24103,790.56179 V 473.72908 H 49.408327 a 48.748489,48.748489 0 1 1 0,-97.48805 H 366.24103 V 59.40832 a 48.748489,48.748489 0 1 1 97.48805,0 v 316.83271 h 316.83273 a 48.748489,48.748489 0 1 1 0,97.48805 H 463.72908 v 316.83271 a 48.748489,48.748489 0 0 1 -49.4784,49.43267 z"
         id="glyph28" />
      <glyph
         glyph-name="esun"
         unicode="esun"
         horiz-adv-x="850"
         d="M 595.62597,840 C 536.27541,840 481.92814,824.50261 439.5948,795.85305 397.26146,767.2035 365.24656,721.50711 366.41264,668.02658 l -0.0111,1.06485 v -71.34917 c -68.97891,4.43101 -133.66876,15.54768 -183.17238,31.35209 -32.51927,10.38203 -57.02143,22.50407 -71.0885,32.70396 -14.06708,10.19988 -15.065569,16.6102 -14.70687,14.03995 A 48.82299,48.82299 0 1 1 0.73478718,662.34321 C 5.6214236,627.32777 28.341871,601.9582 54.827269,582.75392 81.312678,563.54965 114.19576,548.64253 153.53396,536.08351 215.01768,516.45436 288.7394,504.32526 366.40155,499.91185 V 351.55094 C 277.00023,349.13055 193.86139,336.5105 128.14531,313.48252 91.417829,300.61261 61.247227,285.32648 37.616339,263.85603 14.653482,242.99252 -3.0413517,211.07074 0.43807002,177.14971 2.6520087,124.88562 35.502156,81.57035 77.770096,53.78506 120.7684,25.51966 175.46286,10 234.81342,10 c 59.35056,0 113.69783,15.49878 156.03117,44.14833 42.33334,28.64956 74.34824,74.34456 73.18216,127.8251 l 0.0111,-1.06347 v 71.34917 c 68.97892,-4.43101 133.66877,-15.54907 183.17239,-31.35348 32.51927,-10.38202 57.02142,-22.50268 71.08847,-32.70257 14.0671,-10.19989 15.06558,-16.61159 14.70687,-14.04134 a 48.82299,48.82299 0 1 1 96.69904,13.49505 c -4.88663,35.01544 -27.60707,60.38501 -54.09247,79.58929 -26.48547,19.20428 -59.36849,34.11139 -98.70672,46.67042 -61.48372,19.62915 -135.20544,31.75824 -212.86759,36.17165 v 148.3623 c 89.40133,2.42039 172.54017,15.03905 238.25624,38.06703 36.72745,12.86991 66.89808,28.15604 90.52897,49.62649 22.96301,20.86364 40.658,52.78645 37.17828,86.70771 -2.21432,52.26364 -35.06441,95.57954 -77.33203,123.36465 C 709.67099,824.48174 654.97653,840 595.62597,840 Z m 0,-97.6349 c 41.75505,0 79.18844,-11.81297 103.41117,-27.73604 24.22275,-15.92308 33.20817,-32.65356 33.5123,-46.60248 a 48.82299,48.82299 0 0 1 0.29255,-4.07084 c -0.43368,-0.46013 -1.58628,-1.83128 -5.67644,-5.54748 -8.73199,-7.93371 -28.41896,-19.67674 -57.15947,-29.74789 -50.86109,-17.82255 -125.24221,-29.96349 -205.96824,-32.53342 v 72.96448 a 48.82299,48.82299 0 0 1 -0.0111,1.06346 c -0.30414,13.94892 7.33068,29.29851 30.29141,44.83744 22.96073,15.53892 59.55275,27.37277 101.30781,27.37277 z M 366.40155,253.87443 v -72.96447 a 48.82299,48.82299 0 0 1 0.0111,-1.06485 c 0.30414,-13.94892 -7.33067,-29.29851 -30.29141,-44.83743 -22.96072,-15.53893 -59.55275,-27.37138 -101.30781,-27.37138 -41.75505,0 -79.18844,11.81157 -103.41116,27.73465 -24.22273,15.92307 -33.208168,32.65356 -33.512304,46.60248 a 48.82299,48.82299 0 0 1 -0.292557,4.07084 c 0.433693,0.4601 1.586259,1.83263 5.676431,5.54886 8.73202,7.93371 28.41896,19.67536 57.15948,29.7465 50.86111,17.82256 125.24224,29.96487 205.96826,32.5348 z"
         id="glyph30" />
      <glyph
         glyph-name="ijo"
         unicode="ijo"
         horiz-adv-x="850"
         d="M 415,840 C 304.95392,840 199.3645,796.26416 121.55017,718.44984 43.735836,640.6355 0,535.04608 0,425 0,314.95392 43.735836,209.3645 121.55017,131.55017 199.3645,53.73584 304.95392,10 415,10 525.04608,10 630.6355,53.73584 708.44983,131.55017 786.26418,209.3645 830,314.95392 830,425 830,535.04608 786.26418,640.6355 708.44983,718.44984 630.6355,796.26416 525.04608,840 415,840 Z m 0,-97.64665 c 84.18598,0 164.87385,-33.42254 224.40233,-92.95102 C 698.93081,589.87385 732.35334,509.18598 732.35334,425 c 0,-84.18598 -33.42253,-164.87385 -92.95101,-224.40233 C 579.87385,141.06919 499.18598,107.64665 415,107.64665 c -84.18598,0 -164.87385,33.42254 -224.40233,92.95102 C 131.06919,260.12615 97.646648,340.81402 97.646648,425 c 0,84.18598 33.422542,164.87385 92.951022,224.40233 59.52848,59.52848 140.21635,92.95102 224.40233,92.95102 z"
         id="glyph32" />
      <glyph
         glyph-name="ike"
         unicode="ike"
         horiz-adv-x="850"
         d="m 415.00001,474.53714 c -110.04485,0 -215.63243,-43.73543 -293.44593,-121.54888 C 43.740588,275.17481 0.00520623,169.58722 0.00520623,59.54234 a 48.82788,48.82788 0 1 1 97.64534677,0 c 0,84.18507 33.421887,164.87196 92.949707,224.39974 59.52783,59.52779 140.21465,92.94972 224.39975,92.94972 84.18509,0 164.87192,-33.42193 224.39976,-92.94972 59.52778,-59.52778 92.94967,-140.21467 92.94967,-224.39974 a 48.82788,48.82788 0 1 1 97.64536,0 c 0,110.04488 -43.73539,215.63247 -121.5489,293.44592 -77.81345,77.81345 -183.40105,121.54888 -293.44589,121.54888 z"
         id="glyph34" />
      <glyph
         glyph-name="ilo"
         unicode="ilo"
         horiz-adv-x="850"
         d="m 413.59071,839.99736 a 48.749017,48.749017 0 0 1 -7.09493,-0.68888 H 48.744635 A 48.749017,48.749017 0 0 1 0,790.56384 V 424.98324 A 48.749017,48.749017 0 0 1 48.744635,376.2386 H 365.58061 V 59.40263 a 48.749017,48.749017 0 1 1 97.48927,0 V 376.2386 h 316.83598 a 48.749017,48.749017 0 0 1 48.74462,48.74464 v 365.5806 a 48.749017,48.749017 0 0 1 -48.74462,48.74464 H 422.28058 a 48.749017,48.749017 0 0 1 -8.68987,0.68888 z M 97.487882,741.82059 H 365.58061 V 473.72787 H 97.487882 Z m 365.581998,0 h 268.0927 V 473.72787 h -268.0927 z"
         id="glyph36" />
      <glyph
         glyph-name="insa"
         unicode="insa"
         horiz-adv-x="850"
         d="m 414.64618,375.86022 c 7.3131,0 12.19493,-4.88182 12.19493,-12.19493 0,-7.3131 -4.88183,-12.19492 -12.19493,-12.19492 -7.3131,0 -12.19493,4.88182 -12.19493,12.19492 0,7.31311 4.88183,12.19493 12.19493,12.19493 z m 0,97.56355 c -60.03997,0 -109.75849,-49.71851 -109.75848,-109.75848 0,-60.03996 49.71852,-109.75848 109.75848,-109.75848 60.03996,0 109.75848,49.71852 109.75848,109.75848 10e-6,60.03997 -49.71851,109.75848 -109.75848,109.75848 z M 48.050864,839.9734 A 48.786288,48.786288 0 0 1 0.00487624,790.5029 V 58.78109 A 48.786288,48.786288 0 0 1 48.785965,10 H 780.5064 a 48.786288,48.786288 0 0 1 48.78111,48.78109 V 790.5029 a 48.786288,48.786288 0 1 1 -97.56222,0 V 107.56217 H 97.567046 V 790.5029 a 48.786288,48.786288 0 0 1 -49.516182,49.4705 z"
         id="glyph38" />
      <glyph
         glyph-name="jaki"
         unicode="jaki"
         horiz-adv-x="850"
         d="M 413.56151,839.97875 A 48.829596,48.829596 0 0 1 375.94742,820.47961 L 271.69428,681.47636 56.84764,717.28367 A 48.829596,48.829596 0 0 1 21.73866,628.49905 L 161.8864,535.06723 9.7617858,332.23349 A 48.829596,48.829596 0 0 1 40.794419,254.7773 L 366.18191,200.54605 V 58.81461 A 48.829596,48.829596 0 0 1 454.0659,29.51947 l 104.25314,139.00326 214.84664,-35.80731 a 48.829596,48.829596 0 0 1 35.10896,88.786 l -140.14772,93.43182 152.12459,202.83374 a 48.829596,48.829596 0 0 1 -31.03261,77.45481 l -325.38749,54.23125 v 141.73283 a 48.829596,48.829596 0 0 1 -50.2699,48.79288 z m -99.36623,-264.58309 51.98663,-8.66398 V 516.229 l -64.24062,42.828 z M 463.83141,550.45676 693.94289,512.10416 586.75234,369.18251 463.83141,451.13072 Z M 243.26098,480.81658 366.18191,398.86975 v -99.32743 l -230.11148,38.35261 z m 220.57043,-147.04649 64.24062,-42.82662 -12.25538,-16.34004 -51.98524,8.66397 z"
         id="glyph40" />
      <glyph
         glyph-name="jan"
         unicode="jan"
         horiz-adv-x="850"
         d="m 415.1505,839.99999 c -194.84838,0 -353.850963,-159.00297 -353.850963,-353.8519 0,-95.38627 38.474433,-181.85182 100.235483,-245.60874 a 48.811918,48.812043 0 0 1 -0.52467,-0.50028 L 14.589265,93.61759 A 48.811918,48.812043 0 1 1 83.605377,24.5773 L 230.02658,170.99879 a 48.811918,48.812043 0 0 1 8.24572,10.62897 c 52.27258,-30.53205 112.203,-49.33147 176.87784,-49.33147 64.67228,0 124.60672,18.80162 176.87783,49.33147 a 48.811918,48.812043 0 0 1 8.24573,-10.62897 L 746.69474,24.5773 a 48.811918,48.812043 0 1 1 69.01625,69.04029 L 669.28981,240.03907 a 48.811918,48.812043 0 0 1 -0.52468,0.50028 c 61.76111,63.75692 100.23571,150.22247 100.23571,245.60874 0,194.84893 -159.00256,353.8519 -353.85107,353.8519 z m 0,-97.61429 c 142.09396,0 256.23691,-114.14336 256.23691,-256.23761 0,-142.09424 -114.14295,-256.23759 -256.23691,-256.23759 -142.09383,0 -256.23691,114.14335 -256.23691,256.23759 0,142.09425 114.14308,256.23761 256.23691,256.23761 z"
         id="glyph42" />
      <glyph
         glyph-name="jelo"
         unicode="jelo"
         horiz-adv-x="850"
         d="M 414.26428,840.70491 A 48.829282,48.829282 0 0 1 366.17593,791.19082 V 771.76123 C 311.37816,755.23176 267.86853,711.7215 251.33862,656.92391 h -80.46039 a 48.829282,48.829282 0 1 1 0,-97.64955 h 80.46039 c 16.46814,-54.59279 59.71049,-97.99282 114.21936,-114.66135 L 14.292847,93.34788 A 48.829282,48.829282 0 0 1 48.816642,10 H 781.18337 a 48.829282,48.829282 0 0 1 34.52378,83.34788 l -351.2651,351.26513 c 54.50886,16.66853 97.75122,60.06856 114.21936,114.66135 h 80.46039 a 48.829282,48.829282 0 1 1 0,97.64955 H 578.66141 C 562.1315,711.7215 518.62186,755.23176 463.82409,771.76123 v 19.42959 a 48.829282,48.829282 0 0 1 -49.55981,49.51409 z m -5.11545,-159.65715 a 48.829282,48.829282 0 0 1 11.90743,-0.01 c 36.15279,-2.84745 64.13967,-30.90409 66.89306,-67.08705 a 48.829282,48.829282 0 0 1 -0.01,-11.91436 c -2.84974,-36.14877 -30.90374,-64.13245 -67.08288,-66.88752 a 48.829282,48.829282 0 0 1 -11.91852,0.01 c -36.1506,2.84989 -64.13486,30.90664 -66.88752,67.08843 a 48.829282,48.829282 0 0 1 0.01,11.90743 c 2.84748,36.15323 30.90481,64.14024 67.08843,66.89305 z m 5.85118,-325.08791 248.3117,-248.31169 H 166.68832 Z"
         id="glyph44" />
      <glyph
         glyph-name="jo"
         unicode="jo"
         horiz-adv-x="850"
         d="m 412.56991,844.81042 c -94.33796,0 -171.86648,-77.52992 -171.86648,-171.86788 0,-33.59344 9.86927,-65.02802 26.78962,-91.61677 C 216.48382,568.1434 169.08343,547.83056 128.0623,520.5181 49.986763,468.53426 0,392.08916 0,308.18106 0,224.27296 49.712516,147.46407 127.52055,94.14949 205.32858,40.83491 306.2434,11.97215 411.66792,10.03547 a 49.109804,49.109804 0 0 1 0.41982,-0.006 c 107.35481,-1.05445 210.5833,25.89341 290.03735,78.86278 79.45402,52.96936 129.67748,131.40348 127.82538,216.82761 a 49.109804,49.109804 0 0 1 -49.09424,48.0412 H 412.56991 a 49.109804,49.109804 0 1 1 0,-98.20923 H 722.70463 C 710.62252,225.52997 686.19478,196.30619 647.648,170.60834 588.69614,131.3071 503.01904,107.38848 413.23636,108.23639 c -88.14806,1.66187 -172.00829,27.05313 -230.20371,66.92902 -58.24744,39.91153 -84.823428,87.78498 -84.823428,133.01565 0,45.23067 26.301738,91.98566 84.281668,130.58955 57.97994,38.60389 141.799,62.39558 230.02915,62.30544 a 49.109804,49.109804 0 0 1 0.0208,10e-4 c 0.01,0 0.0194,-10e-4 0.0291,-10e-4 94.33796,0 171.86649,77.52854 171.86649,171.86649 0,94.33796 -77.52853,171.86788 -171.86649,171.86788 z m 0,-98.20923 c 41.26145,0 73.65727,-32.3972 73.65727,-73.65865 0,-41.26145 -32.39582,-73.65726 -73.65727,-73.65726 -41.26145,0 -73.65726,32.39581 -73.65726,73.65726 0,41.26145 32.39581,73.65865 73.65726,73.65865 z"
         id="glyph46" />
      <glyph
         glyph-name="kalama"
         unicode="kalama"
         horiz-adv-x="850"
         d="M 414.26578,840.0636 A 48.791604,48.791604 0 0 1 366.21344,790.58691 V 607.6372 a 48.791604,48.791604 0 1 1 97.57336,0 V 790.58691 A 48.791604,48.791604 0 0 1 414.26578,840.0636 Z M 49.8295,779.00231 A 48.791604,48.791604 0 0 1 5.4641096,707.78631 L 66.44643,585.81891 a 48.791604,48.791604 0 1 1 87.27316,43.63658 L 92.735898,751.42151 A 48.791604,48.791604 0 0 1 49.8295,779.00231 Z m 733.74971,-0.0471 a 48.791604,48.791604 0 0 1 -46.31485,-27.5337 L 676.28065,629.45549 a 48.791604,48.791604 0 1 1 87.27318,-43.63658 l 60.98233,121.9674 a 48.791604,48.791604 0 0 1 -40.95695,71.1689 z M 49.099311,473.47417 A 48.791604,48.791604 0 0 1 0.3126323,424.68749 C 0.3126323,314.72436 44.015838,209.21455 121.77153,131.4589 199.52722,53.70325 305.03702,10 415.00012,10 c 109.9631,0 215.4729,43.70325 293.22859,121.4589 77.75566,77.75565 121.45892,183.26546 121.45892,293.22859 a 48.791604,48.791604 0 0 1 -48.7867,48.78668 z M 101.70181,375.90081 H 728.29843 C 718.0194,309.86277 687.09062,248.3107 639.23375,200.45386 579.75015,140.9703 499.12268,107.57337 415.00012,107.57337 c -84.12255,0 -164.75002,33.39693 -224.23363,92.88049 -47.85687,47.85684 -78.78567,109.40891 -89.06468,175.44695 z"
         id="glyph50" />
      <glyph
         glyph-name="kala"
         unicode="kala"
         horiz-adv-x="850"
         d="M 48.180141,597.14088 A 48.820112,48.820112 0 0 1 1.0950101,538.04303 C 18.285053,452.38466 51.87598,373.24044 98.143051,303.57203 51.876143,233.90375 18.285011,154.7592 1.0950101,69.10103 A 48.820112,48.820112 0 1 1 96.817081,49.89178 C 109.23891,111.79003 131.59955,169.69018 162.06677,222.02552 271.76848,102.70723 424.42484,24.54187 594.20026,10.83867 a 48.820112,48.820112 0 0 1 3.92803,-0.15794 c 68.13766,0 128.21469,37.31021 168.49252,91.01397 C 806.89863,155.39847 830,226.27915 830,303.57203 c 0,77.2929 -23.10137,148.17357 -63.37919,201.87734 -40.27783,53.70377 -100.35486,91.01397 -168.49252,91.01397 a 48.820112,48.820112 0 0 1 -3.92803,-0.15795 C 424.42484,582.6022 271.76848,504.43683 162.06677,385.11855 131.59955,437.45389 109.23891,495.35543 96.817081,557.25368 a 48.820112,48.820112 0 0 1 -48.63694,39.8872 z M 599.91565,498.77379 c 32.30937,-0.61692 63.0955,-17.89619 88.60035,-51.90269 25.9758,-34.63442 43.85399,-85.79242 43.85399,-143.29907 0,-57.50665 -17.87819,-108.66464 -43.85399,-143.29907 -25.50449,-34.006 -56.2901,-51.2853 -88.59896,-51.90268 -151.31505,12.79085 -286.25352,85.29298 -379.94401,195.20175 93.6902,109.90843 228.62813,182.41058 379.94262,195.20176 z"
         id="glyph48" />
      <glyph
         glyph-name="kama"
         unicode="kama"
         horiz-adv-x="850"
         d="M 352.39348,839.60568 A 48.789634,48.789634 0 0 1 305.73437,794.92101 L 249.52035,120.34727 61.278003,167.4082 A 48.789634,48.789634 0 1 1 37.613831,72.75151 L 281.53814,11.76974 a 48.789634,48.789634 0 0 1 60.44832,43.27693 L 391.76172,652.35541 708.82479,199.40658 515.47662,102.7325 a 48.789634,48.789634 0 1 1 43.63442,-87.26883 l 243.92431,121.96215 a 48.789634,48.789634 0 0 1 18.1482,71.61048 L 394.31672,818.84567 a 48.789634,48.789634 0 0 1 -41.92324,20.76001 z"
         id="glyph52" />
      <glyph
         glyph-name="kasi"
         unicode="kasi"
         horiz-adv-x="850"
         d="m 658.81667,840.04381 c -30.29978,0.89128 -60.94966,-9.1655 -87.81064,-27.34605 C 509.60949,771.14221 461.66799,691.40123 425.4512,568.83665 414.75741,532.64675 405.24861,492.47554 397.10424,448.31136 359.9596,531.52157 309.92675,585.90053 253.7469,614.41905 194.38889,644.55089 126.55363,640.46146 77.452259,604.45827 28.350878,568.45509 0,505.02418 0,430.67146 0,374.90692 42.282605,335.71766 84.737481,315.50568 127.19235,295.29371 176.49585,286.16306 224.76811,283.58365 c 42.06281,-2.24761 82.57648,0.2945 118.13063,10.06487 14.30289,-63.35235 23.27724,-140.94376 23.27724,-234.74014 a 48.828413,49.573434 0 0 1 97.64804,0 c 0,144.76125 10.48075,264.12692 27.34245,360.25635 34.9729,-11.51699 74.83381,-14.00109 117.20923,-11.65443 46.88533,2.5964 95.4316,11.77077 137.4618,32.00925 C 787.8677,459.75804 830,498.82796 830,554.5925 c 0,101.2023 -23.14905,181.96463 -69.74859,234.53194 -23.2998,26.28365 -54.06523,45.19972 -88.48263,49.85874 -4.30218,0.58238 -8.62359,0.93333 -12.95211,1.06063 z m -6.68114,-99.04931 c 2.37919,0.13382 4.60477,0.009 6.72824,-0.27852 8.49389,-1.1498 17.7777,-5.46967 28.80697,-17.9114 22.0585,-24.88344 44.68261,-83.53261 44.68261,-168.21208 0,-6.19607 -3.64008,-13.59553 -28.36083,-25.4991 -24.7207,-11.90357 -63.90444,-20.54222 -100.93456,-22.59285 -30.75796,-1.70331 -60.76747,1.69249 -78.13673,6.08252 a 48.828413,49.573434 0 0 1 -5.57545,28.94267 c 32.40348,109.01715 75.78878,168.35503 105.82556,188.68507 11.30534,7.6519 19.82662,10.38225 26.96419,10.78369 z M 172.33749,536.48978 c 11.19869,-0.27355 23.65821,-3.59335 37.73963,-10.74149 32.72389,-16.61159 72.49849,-59.55609 103.71675,-137.08765 -20.98746,-4.82904 -52.26311,-7.76707 -83.89368,-6.0769 -38.69464,2.06763 -78.64676,10.74999 -103.70567,22.68008 -25.0589,11.93008 -28.547872,19.21158 -28.547872,25.40764 0,49.56847 17.420852,79.07855 36.977562,93.41834 11.00065,8.06614 23.315,12.75171 37.71328,12.39998 z"
         id="glyph54" />
      <glyph
         glyph-name="ken"
         unicode="ken"
         horiz-adv-x="850"
         d="M 48.077475,839.99446 A 48.81321,48.744352 0 0 1 0.00545917,790.56515 V 59.47336 a 48.81321,48.744352 0 1 1 97.61550083,0 V 374.66984 C 264.10684,366.62271 421.55593,329.23397 537.98253,271.10278 665.88574,207.2414 728.5072,127.01764 732.19654,56.91508 a 48.81321,48.744352 0 1 1 97.48244,5.11657 c -6.34749,120.6118 -102.41892,223.55114 -248.04021,296.25907 -48.94533,24.43814 -102.91747,45.11243 -160.38138,62.01321 62.83269,16.90933 121.45624,38.47363 173.93355,64.67526 147.52248,73.65719 241.00061,183.31732 234.48946,308.12211 a 48.81321,48.744352 0 1 1 -97.48528,-5.07092 C 735.97988,715.48581 679.74115,636.17991 551.5347,572.16712 434.15873,513.56193 270.88688,477.75212 97.62096,474.05148 v 316.51367 a 48.81321,48.744352 0 0 1 -49.543485,49.42931 z"
         id="glyph56" />
      <glyph
         glyph-name="kepeken"
         unicode="kepeken"
         horiz-adv-x="850"
         d="m 414.04103,839.99728 a 48.745866,48.745866 0 0 1 -7.09389,-0.68862 H 110.14401 A 48.745866,48.745866 0 0 1 61.403998,790.56727 V 546.86302 a 48.745866,48.745866 0 0 1 48.740012,-48.7414 H 366.03534 V 462.28777 C 303.49904,446.47609 247.43951,403.11774 205.82841,342.38993 171.069,291.66157 146.85657,231.00667 133.73535,165.7188 L 83.683245,215.77091 A 48.745866,48.745866 0 1 1 14.753352,146.83963 L 136.60617,24.9882 a 48.745866,48.745866 0 0 1 83.19803,33.56989 c 1.60889,87.58062 26.82435,170.9151 66.44011,228.73088 39.61575,57.81578 87.13401,84.19423 132.0295,84.19423 44.89549,0 91.30503,-26.10639 129.62284,-83.65665 38.31782,-57.55026 61.9324,-140.74722 61.84293,-228.32353 a 48.745866,48.745866 0 1 1 97.48142,-0.0997 c 0.10691,104.64751 -26.58383,204.95209 -78.18243,282.44903 -42.07622,63.1951 -100.30367,107.82655 -165.52181,122.15624 v 34.11303 h 255.88995 a 48.745866,48.745866 0 0 1 48.74139,48.7414 v 243.70425 a 48.745866,48.745866 0 0 1 -48.74139,48.74139 H 422.72965 a 48.745866,48.745866 0 0 1 -8.68862,0.68862 z M 158.88542,741.82725 H 366.03534 V 595.60304 H 158.88542 Z m 304.63134,0 H 670.6653 V 595.60304 H 463.51676 Z"
         id="glyph58" />
      <glyph
         glyph-name="kili"
         unicode="kili"
         horiz-adv-x="850"
         d="M 414.26427,840.69001 A 48.828392,48.828392 0 0 1 366.17736,791.17598 V 735.7512 C 328.20917,762.90006 281.852,778.97067 231.91201,778.97067 104.40898,778.97067 0,674.56179 0,547.05866 V 425 C 0,314.95392 43.735814,209.36447 121.55017,131.55017 199.36451,53.73586 304.95395,10 415,10 525.04605,10 630.63549,53.73586 708.44983,131.55017 786.26418,209.36447 830,314.95392 830,425 v 122.05866 c 0,127.50303 -104.40911,231.91201 -231.91201,231.91201 -49.93973,0 -96.2959,-16.07085 -134.26397,-43.21947 v 55.42478 a 48.828392,48.828392 0 0 1 -49.55975,49.51403 z M 231.91201,681.32402 c 74.73076,0 134.26535,-59.53456 134.26535,-134.26536 a 48.828392,48.828392 0 1 1 97.6328,-0.64982 48.828392,48.828392 0 0 1 0.0138,0.64982 c 0,74.7307 59.53332,134.26397 134.26397,134.26397 74.73066,0 134.26537,-59.53327 134.26537,-134.26397 V 425 c 0,-84.186 -33.42256,-164.87388 -92.95104,-224.40233 -59.52845,-59.52844 -140.21627,-92.95102 -224.4023,-92.95102 -84.18603,0 -164.87385,33.42258 -224.40233,92.95102 C 131.06919,260.12612 97.646648,340.814 97.646648,425 v 122.05866 c 0,74.7308 59.534602,134.26536 134.265362,134.26536 z"
         id="glyph60" />
      <glyph
         glyph-name="kiwen"
         unicode="kiwen"
         horiz-adv-x="850"
         d="M 415.3381,838.66495 A 48.750275,48.750275 0 0 1 371.4005,811.72651 L 202.07812,473.08175 H 49.409875 a 48.750275,48.750275 0 1 1 0,-97.49162 H 153.33231 L 5.8103691,80.54487 A 48.750275,48.750275 0 0 1 49.409875,10 H 780.59012 a 48.750275,48.750275 0 0 1 43.59952,70.54487 L 676.6677,375.59013 h 103.92242 a 48.750275,48.750275 0 1 1 0,97.49162 H 627.92189 L 458.59951,811.72651 A 48.750275,48.750275 0 0 1 415.3381,838.66495 Z M 415,680.928 518.92243,473.08175 H 311.07758 Z M 262.33176,375.59013 H 567.66825 L 701.71888,107.49024 H 128.28112 Z"
         id="glyph62" />
      <glyph
         glyph-name="kon"
         unicode="kon"
         horiz-adv-x="850"
         d="m 244.19172,839.99506 a 48.791172,48.791172 0 0 1 -22.01366,-5.6004 C 143.03379,794.19887 100,703.43251 100,606.6527 c 0,-96.77981 43.2722,-187.2304 123.13132,-225.62205 34.92827,-16.79149 67.83528,-71.26841 67.83528,-137.68378 0,-66.41537 -33.14542,-122.64343 -68.78854,-140.74585 a 48.791172,48.791172 0 1 1 44.18251,-86.99611 c 79.14427,40.19579 122.17806,130.96215 122.17806,227.74196 0,96.77981 -43.2722,187.2304 -123.13132,225.62205 -34.92827,16.7915 -67.83529,71.26841 -67.83529,137.68378 0,66.41537 33.14542,122.64343 68.78855,140.74586 a 48.791172,48.791172 0 0 1 -22.16885,92.5965 z m 365.89821,0 a 48.791172,48.791172 0 0 1 -22.01506,-5.6004 C 508.93061,794.19887 465.89682,703.43251 465.89682,606.6527 c 0,-96.77981 43.27358,-187.2304 123.1327,-225.62205 34.92827,-16.79149 67.83391,-71.26841 67.83391,-137.68378 0,-66.41537 -33.14543,-122.64343 -68.78856,-140.74585 a 48.791172,48.791172 0 1 1 44.18391,-86.99611 c 79.14426,40.19579 122.17805,130.96215 122.17805,227.74196 0,96.77981 -43.27358,187.2304 -123.1327,225.62205 -34.92827,16.7915 -67.8339,71.26841 -67.8339,137.68378 0,66.41537 33.14543,122.64343 68.78855,140.74586 a 48.791172,48.791172 0 0 1 -22.16885,92.5965 z"
         id="glyph66" />
      <glyph
         glyph-name="ko"
         unicode="ko"
         horiz-adv-x="850"
         d="M 170.88268,840 C 124.09346,840 83.449136,809.39918 66.183576,774.86806 48.918015,740.33693 45.771648,703.70065 45.771648,669.11732 c 0,-43.43301 6.58593,-85.06915 11.490371,-110.07504 C 50.558045,549.59495 42.876672,537.53603 35.669605,523.1219 17.500976,486.78465 0,433.13733 0,363.97067 0,321.25008 18.07132,283.71863 42.907723,258.88223 c 24.836395,-24.8364 54.502574,-38.85887 82.020417,-48.03149 27.04993,-9.01664 53.27827,-13.43092 73.03512,-15.6193 8.52705,-19.38995 21.47868,-45.51792 39.09745,-71.94608 C 271.74195,71.26351 329.55882,10 415,10 c 85.44118,0 143.25805,61.26351 177.93929,113.28536 17.61877,26.42816 30.5704,52.55613 39.09745,71.94608 19.75685,2.18838 45.98519,6.60266 73.03512,15.6193 27.51785,9.17262 57.18404,23.19509 82.0204,48.03149 C 811.9287,283.71863 830,321.25008 830,363.97067 c 0,69.16666 -17.50094,122.81398 -35.66957,159.15123 -7.20709,14.41413 -14.8885,26.47305 -21.59241,35.92038 4.90437,25.00589 11.49032,66.64203 11.49032,110.07504 0,34.58333 -3.14634,71.21961 -20.4119,105.75074 C 746.55088,809.39918 705.90654,840 659.11732,840 555.0842,840 457.18957,802.59618 415,784.03347 372.81043,802.59618 274.9158,840 170.88268,840 Z m 0,-97.64665 c 105.78431,0 222.28243,-55.87508 222.28243,-55.87508 a 48.828413,48.828413 0 0 1 43.66978,0 c 0,0 116.49811,55.87508 222.28243,55.87508 14.24019,0 11.74047,0.0859 17.36094,-11.15507 5.62047,-11.24093 10.10205,-35.63488 10.10205,-62.08096 0,-52.89216 -13.79869,-110.21636 -13.79869,-110.21636 a 48.828413,48.828413 0 0 1 12.84266,-46.36605 c 0,0 9.02188,-8.39063 21.36796,-33.08279 12.34606,-24.69216 25.3611,-62.5893 25.3611,-115.48145 0,-18.30882 -4.81457,-26.54967 -14.30715,-36.04232 -9.49268,-9.49265 -25.59847,-18.35636 -43.8527,-24.4411 -36.50844,-12.16948 -76.1055,-12.7526 -76.1055,-12.7526 a 48.828413,48.828413 0 0 1 -46.31755,-33.38346 c 0,0 -13.73025,-40.37825 -40.07843,-79.90052 C 485.34383,137.9284 451.61764,107.64665 415,107.64665 c -36.61764,0 -70.34383,30.28175 -96.69201,69.80402 -26.34818,39.52227 -40.07842,79.90052 -40.07843,79.90052 a 48.828413,48.828413 0 0 1 -46.31755,33.38346 c 0,0 -39.59706,0.58312 -76.1055,12.7526 -18.25423,6.08474 -34.36002,14.94845 -43.85267,24.4411 -9.49264,9.49265 -14.307192,17.7335 -14.307192,36.04232 0,52.89215 13.015032,90.78929 25.361112,115.48145 12.34608,24.69216 21.36796,33.08279 21.36796,33.08279 a 48.828413,48.828413 0 0 1 12.84266,46.36605 c 0,0 -13.79869,57.3242 -13.79869,110.21636 0,26.44608 4.48158,50.84003 10.10205,62.08096 5.62047,11.24094 3.12074,11.15507 17.36094,11.15507 z"
         id="glyph64" />
      <glyph
         glyph-name="kule"
         unicode="kule"
         horiz-adv-x="850"
         d="M 415.3381,838.66495 A 48.750275,48.750275 0 0 1 371.4005,811.72651 L 202.07812,473.08175 H 49.409875 a 48.750275,48.750275 0 1 1 0,-97.49162 H 153.33231 L 5.8103691,80.54487 A 48.750275,48.750275 0 0 1 49.409875,10 H 780.59012 a 48.750275,48.750275 0 0 1 43.59952,70.54487 L 676.6677,375.59013 h 103.92242 a 48.750275,48.750275 0 1 1 0,97.49162 H 627.92189 L 458.59951,811.72651 A 48.750275,48.750275 0 0 1 415.3381,838.66495 Z M 415,680.928 518.92243,473.08175 H 311.07758 Z M 262.33176,375.59013 H 567.66825 L 701.71888,107.49024 H 128.28112 Z"
         id="glyph68" />
      <glyph
         glyph-name="kulupu"
         unicode="kulupu"
         horiz-adv-x="850"
         d="m 415,840 c -107.27966,0 -195.29469,-88.01503 -195.29469,-195.29469 0,-107.27966 88.01503,-195.2933 195.29469,-195.2933 107.27966,0 195.29469,88.01364 195.29469,195.2933 C 610.29469,751.98497 522.27966,840 415,840 Z m 0,-97.64665 c 54.50728,0 97.64666,-43.14076 97.64665,-97.64804 0,-54.50727 -43.13937,-97.64665 -97.64665,-97.64665 -54.50728,0 -97.64665,43.13938 -97.64665,97.64665 -10e-6,54.50728 43.13937,97.64804 97.64665,97.64804 z M 195.29469,400.58799 C 88.015023,400.58799 0,312.57435 0,205.29469 0,98.01502 88.015023,10 195.29469,10 c 107.27966,0 195.2933,88.01503 195.2933,195.29469 0,107.27966 -88.01364,195.2933 -195.2933,195.2933 z m 439.41062,0 c -107.27966,0 -195.2933,-88.01364 -195.2933,-195.2933 C 439.41201,98.01503 527.42565,10 634.70531,10 741.98496,10 830,98.01503 830,205.29469 c 0,107.27966 -88.01504,195.2933 -195.29469,195.2933 z M 195.29469,302.94134 c 54.50727,0 97.64665,-43.13938 97.64665,-97.64665 0,-54.50728 -43.13938,-97.64803 -97.64665,-97.64804 -54.50728,0 -97.648042,43.14076 -97.648042,97.64804 0,54.50727 43.140762,97.64665 97.648042,97.64665 z m 439.41062,0 c 54.50728,0 97.64803,-43.13938 97.64803,-97.64665 0,-54.50728 -43.14075,-97.64804 -97.64803,-97.64804 -54.50727,0 -97.64665,43.14076 -97.64665,97.64804 0,54.50727 43.13938,97.64665 97.64665,97.64665 z"
         id="glyph70" />
      <glyph
         glyph-name="kute"
         unicode="kute"
         horiz-adv-x="850"
         d="m 409.69444,840.04215 c -105.72967,0 -206.95151,-27.28776 -284.70721,-79.90612 C 47.231529,707.51768 -1.7764505,630.1147 0.04930958,545.9797 a 48.826152,48.826152 0 1 1 97.62039642,2.11851 c -0.98499,45.39051 24.458854,92.20471 82.041254,131.17152 57.58239,38.9668 141.49883,63.12986 229.98348,63.12986 88.48465,0 173.7581,-24.12748 233.64826,-63.49426 59.69403,-39.23787 87.83105,-87.22759 88.9995,-132.48779 C 732.17776,430.08966 685.9317,318.61068 603.66329,236.34227 521.24815,153.92713 409.51852,107.64673 292.96591,107.64673 a 48.826152,48.826152 0 1 1 0,-97.64117 c 142.4115,0 279.04063,56.59317 379.74078,157.29332 C 773.4068,267.99901 830,404.62676 830,547.03826 a 48.826152,48.826152 0 0 1 -0.0113,1.06965 c -1.84294,84.13473 -53.57091,160.17415 -133.01269,212.39252 -79.44176,52.21837 -181.5519,79.54172 -287.28157,79.54172 z m 5.86919,-243.52308 a 48.826152,48.826152 0 0 1 -46.86072,-34.04161 l -61.0266,-183.0798 a 48.826152,48.826152 0 1 1 92.63241,-30.87701 l 61.0266,183.0798 a 48.826152,48.826152 0 0 1 -45.77169,64.91862 z"
         id="glyph72" />
      <glyph
         glyph-name="lape"
         unicode="lape"
         horiz-adv-x="850"
         d="m 634.86011,600.278 c -90.36962,0 -167.05319,-62.50531 -188.90049,-146.35373 H 49.443177 a 48.789697,48.789646 0 1 1 0,-97.57053 H 445.95962 C 467.80692,272.50531 544.49049,210 634.86011,210 742.05474,210 830,297.94521 830,405.13969 830,512.33418 742.05474,600.278 634.86011,600.278 Z m 0,-97.56916 c 54.46411,0 97.57067,-43.10519 97.57067,-97.56915 0,-54.46396 -43.10656,-97.57053 -97.57067,-97.57053 -52.49027,0 -94.31008,40.07371 -97.28105,91.73018 a 48.789697,48.789646 0 0 1 0.01,11.88578 c 3.07016,51.55718 44.85066,91.52372 97.27135,91.52372 z"
         id="glyph76" />
      <glyph
         glyph-name="laso"
         unicode="laso"
         horiz-adv-x="850"
         d="M 172.23082,839.99954 C 138.23006,839.94324 104.90766,830.26331 76.74424,808.87021 26.675938,770.83802 0,702.90215 0,615.7485 c 0,-32.45082 23.075844,-53.22716 40.334751,-63.21571 17.258914,-9.98856 35.144931,-15.33018 55.113029,-19.82437 39.93621,-8.98839 87.97975,-12.7672 136.46423,-12.7672 43.36431,0 86.32993,3.05406 123.50379,10.12338 5.54606,-24.55074 9.14387,-51.15667 10.30711,-79.7255 L 14.300262,94.41392 A 48.828408,49.453818 0 0 1 48.824019,10 H 781.17599 a 48.828408,49.453818 0 0 1 34.52375,84.41392 L 464.27709,450.3391 c 1.16324,28.56883 4.76105,55.17476 10.30711,79.7255 37.17386,-7.06932 80.13948,-10.12338 123.50379,-10.12338 48.48448,0 96.52802,3.77881 136.46421,12.7672 19.9681,4.49419 37.85417,9.83581 55.11306,19.82437 C 806.92416,562.52134 830,583.29768 830,615.7485 830,702.90215 803.32408,770.83802 753.25579,808.87021 703.18746,846.9024 636.81534,847.91593 579.30963,823.64832 516.57453,797.1739 458.90977,742.5738 419.40882,665.68763 a 48.828408,49.453818 0 0 1 -0.26603,0.0365 48.828408,49.453818 0 0 1 -8.53499,-0.0688 c -39.50137,76.9032 -97.17356,131.51487 -159.91743,157.993 -25.15875,10.61708 -52.01452,16.395 -78.45955,16.35122 z m -3.79087,-98.26305 c 12.87167,0.68196 27.67449,-2.19607 44.6937,-9.37823 36.08666,-15.2287 76.91516,-51.71818 107.32194,-107.80689 -25.89502,-3.61065 -57.29738,-5.71141 -88.54358,-5.71141 -43.05964,0 -86.56005,3.94667 -115.28194,10.41107 -7.25661,1.63322 -13.56015,3.5391 -18.401485,5.23569 3.208365,54.74054 20.337135,82.52826 37.103645,95.26421 9.29489,7.06045 20.23606,11.30358 33.10772,11.98556 z m 493.1201,0 c 12.87166,-0.68198 23.81283,-4.92511 33.10772,-11.98556 16.76652,-12.73595 33.89531,-40.52367 37.10365,-95.26421 -4.84132,-1.69659 -11.14492,-3.60247 -18.40153,-5.23569 -28.72185,-6.4644 -72.22226,-10.41107 -115.2819,-10.41107 -31.2462,0 -62.64856,2.10076 -88.54358,5.71141 30.40678,56.08871 71.23528,92.57819 107.32194,107.80689 17.01921,7.18216 31.82203,10.06019 44.6937,9.37823 z M 415,360.38356 663.30723,108.89734 H 166.69277 Z"
         id="glyph78" />
      <glyph
         glyph-name="lawa"
         unicode="lawa"
         horiz-adv-x="850"
         d="M 293.12819,840 C 135.32453,840 5.8994593,712.20642 0.89145368,553.9034 A 48.751,49.269748 0 0 1 0.70715625,536.16292 C 1.035184,403.47619 25.907587,277.19528 73.930193,179.07643 122.98193,78.85489 197.27377,10 286.84416,10 c 89.57039,0 164.62853,68.23526 216.12457,168.16196 45.35734,88.01474 72.73763,198.98705 80.52276,316.98418 h 197.0979 a 48.751,49.269748 0 1 1 0,98.53047 H 581.44208 C 558.07524,733.06806 437.47341,840 293.12819,840 Z m 0,-98.52908 c 91.411,0 167.45969,-62.48198 188.92244,-147.79431 H 104.20711 c 21.46277,85.31233 97.51006,147.79431 188.92108,147.79431 z M 0.65311639,544.68446 c -3.1925e-4,-0.0585 0.001419,-0.11653 0.001419,-0.17505 -7.09e-6,-0.033 -0.002838,-0.0652 -0.002838,-0.098 z M 99.21593,495.14614 H 485.67555 C 477.84417,390.98963 452.77846,294.07008 416.50144,223.67548 374.43973,142.05584 325.29506,108.52908 286.84416,108.52908 c -38.4509,0 -85.72492,32.90712 -125.52798,114.23193 -34.47044,70.42931 -57.08656,167.7622 -62.10025,272.38513 z"
         id="glyph80" />
      <glyph
         glyph-name="la"
         unicode="la"
         horiz-adv-x="708"
         d="M 50.477016,839.97242 A 48.827097,48.827097 0 1 1 48.569115,742.34654 C 201.23158,739.36198 346.75384,699.7111 449.77599,635.86562 552.79814,572.02012 602.39851,493.15926 602.39851,418.27187 c 0,-74.88739 -49.2094,-151.88308 -151.94222,-213.2542 C 347.72347,143.64654 202.3177,107.2222 49.659543,107.64812 A 48.827097,48.827097 0 1 1 49.386594,10.00423 C 217.42549,9.5354 378.06545,48.03159 500.53285,121.19187 c 122.4674,73.16029 199.50954,179.49289 199.50954,297.08 0,117.58711 -76.65256,224.87546 -198.83062,300.59236 C 379.03371,794.58114 218.51159,836.68734 50.477016,839.97242 Z"
         id="glyph74" />
      <glyph
         glyph-name="len"
         unicode="len"
         horiz-adv-x="850"
         d="M 48.827881,840.71003 A 48.827879,48.827879 0 0 1 0.00520587,791.88735 V 242.62848 59.54173 a 48.827879,48.827879 0 1 1 97.64534413,0 V 193.80442 H 366.17733 V 59.54173 a 48.827879,48.827879 0 1 1 97.64535,0 V 193.80442 H 732.34946 V 59.54173 a 48.827879,48.827879 0 1 1 97.64532,0 v 183.08675 549.25887 a 48.827879,48.827879 0 0 1 -48.8227,48.82268 z M 97.65055,743.0633 H 732.34946 V 291.45116 H 422.9683 a 48.827879,48.827879 0 0 1 -15.81052,0 H 97.65055 Z"
         id="glyph82" />
      <glyph
         glyph-name="lete"
         unicode="lete"
         horiz-adv-x="850"
         d="M 170.77077,839.73209 A 48.744458,48.744458 0 0 1 130.74825,763.37798 L 323.92927,473.60644 H 49.453497 a 48.744458,48.744458 0 1 1 0,-97.4786 H 323.92927 L 130.74825,86.35631 a 48.744458,48.744458 0 1 1 81.1077,-54.07135 L 415,337.00034 618.14405,32.28496 a 48.744458,48.744458 0 1 1 81.10771,54.07135 L 506.07074,376.12784 H 780.5465 a 48.744458,48.744458 0 1 1 0,97.4786 H 506.07074 l 193.18102,289.77154 a 48.744458,48.744458 0 1 1 -81.10771,54.07134 L 415,512.73394 211.85595,817.44932 a 48.744458,48.744458 0 0 1 -41.08518,22.28277 z"
         id="glyph84" />
      <glyph
         glyph-name="lili"
         unicode="lili"
         horiz-adv-x="708"
         d="M 277.05377,646.44709 A 57.045514,57.045514 0 0 1 225.18128,563.18346 L 367.78156,277.98422 a 57.045514,57.045514 0 0 1 102.03555,0 L 612.41739,563.18346 A 57.045514,57.045514 0 1 1 510.38051,614.20123 L 418.79934,431.03754 327.21816,614.20123 a 57.045514,57.045514 0 0 1 -50.16439,32.24586 z"
         id="glyph88" />
      <glyph
         glyph-name="linja"
         unicode="linja"
         horiz-adv-x="850"
         d="M 236.64109,828.81068 C 162.95997,828.81068 103.3351,773.79507 63.472472,697.257 23.609834,620.71893 2.1467913,522.94444 0.02959164,420.41333 A 48.826102,48.826102 0 1 1 97.651184,418.39735 c 1.852884,89.73092 22.008436,175.36004 52.422226,233.75589 30.41379,58.39586 64.08484,79.01506 86.56768,79.01506 22.48284,0 54.61002,-20.00523 83.35045,-78.10891 28.74042,-58.10367 46.68494,-143.65744 46.18864,-233.38456 C 365.61304,317.13992 384.48415,219.29007 422.48749,142.45982 460.49083,65.62958 519.67775,10 593.35888,10 c 73.68111,0 133.30601,55.01561 173.16859,131.55368 39.86265,76.53806 61.32572,174.31256 63.44293,276.84367 a 48.826102,48.826102 0 1 1 -97.62158,2.01598 c -1.85295,-89.73093 -22.00845,-175.36004 -52.42226,-233.75589 -30.41379,-58.39586 -64.08485,-79.01507 -86.56768,-79.01507 -22.48285,0 -54.61002,20.00524 -83.35045,78.10891 -28.74043,58.10369 -46.68495,143.65606 -46.18865,233.38318 0.56715,102.53491 -18.30396,200.38615 -56.3073,277.21639 -38.00334,76.83025 -97.19027,132.45983 -170.87139,132.45983 z"
         id="glyph90" />
      <glyph
         glyph-name="lipu"
         unicode="lipu"
         horiz-adv-x="850"
         d="M 48.824019,840 A 48.828413,48.828413 0 0 1 0,791.17598 V 58.82402 A 48.828413,48.828413 0 0 1 48.824019,10 H 781.17599 A 48.828413,48.828413 0 0 1 830,58.82402 V 791.17598 A 48.828413,48.828413 0 0 1 781.17599,840 Z M 97.646648,742.35335 H 732.35334 V 107.64665 H 97.646648 Z"
         id="glyph92" />
      <glyph
         glyph-name="li"
         unicode="li"
         horiz-adv-x="850"
         d="M 146.73488,839.95637 A 48.778216,48.778216 0 0 1 120.08849,751.78994 L 555.79697,425.00858 120.08849,98.22721 a 48.778216,48.778216 0 1 1 58.5273,-78.03687 l 487.73353,365.7991 a 48.778216,48.778216 0 0 1 0,78.03826 L 178.61579,829.8268 a 48.778216,48.778216 0 0 1 -31.88091,10.12957 z"
         id="glyph86" />
      <glyph
         glyph-name="loje"
         unicode="loje"
         horiz-adv-x="850"
         d="M 48.82178,839.96126 A 48.826128,48.826128 0 0 1 0.01161119,790.07037 C 1.8547434,705.93566 53.582724,629.89772 133.02444,577.67936 212.46617,525.461 314.57481,498.1363 420.30445,498.1363 c 105.72963,0 206.95275,27.28772 284.70842,79.90608 77.75565,52.61835 126.76367,130.02123 124.93782,214.1562 a 48.826128,48.826128 0 0 1 -48.81018,47.76268 z m 60.85891,-97.6425 H 723.3354 c -11.83707,-29.42009 -35.60961,-58.07624 -73.04622,-83.41013 -57.58237,-38.96679 -141.50011,-63.12982 -229.98473,-63.12982 -88.48463,0 -173.7566,24.12745 -233.64674,63.49422 -38.18707,25.101 -63.41235,53.78662 -76.97702,83.04573 z M 414.26345,473.79495 A 48.826128,48.826128 0 0 1 380.45879,459.503 L 14.29941,93.34363 A 48.826128,48.826128 0 0 1 48.82178,10 h 732.31873 a 48.826128,48.826128 0 0 1 34.52105,83.34363 L 449.50215,459.503 a 48.826128,48.826128 0 0 1 -35.2387,14.29195 z M 414.98117,355.93589 663.27455,107.6425 H 166.68778 Z"
         id="glyph94" />
      <glyph
         glyph-name="lon"
         unicode="lon"
         horiz-adv-x="850"
         d="m 415.00001,633.955 c -59.98862,10e-6 -109.66422,-49.67555 -109.66422,-109.66411 0,-59.98857 49.6756,-109.66413 109.66422,-109.66413 59.98862,0 109.66421,49.67556 109.66421,109.66413 0,59.98856 -49.6756,109.66412 -109.66421,109.66411 z m 0,-97.47874 c 7.30687,0 12.18537,-4.87854 12.18537,-12.18537 0,-7.30684 -4.8785,-12.18398 -12.18537,-12.18398 -7.30687,0 -12.18537,4.87714 -12.18537,12.18398 0,7.30683 4.8785,12.18537 12.18537,12.18537 z M 49.452628,207.4839 a 48.744564,48.744521 0 1 1 0,-97.47876 H 780.54737 a 48.744564,48.744521 0 1 1 0,97.47876 z"
         id="glyph96" />
      <glyph
         glyph-name="luka"
         unicode="luka"
         horiz-adv-x="850"
         d="m 523.59373,828.30831 c -52.65186,0 -100.19009,-28.32817 -138.61925,-70.51992 C 346.54532,715.59664 314.27831,658.18371 286.65727,586.97267 247.97058,487.23277 220.8597,365.43978 206.63096,233.85625 L 92.177422,448.45733 A 48.804593,48.804593 0 1 1 6.0601527,402.52711 L 201.25911,36.52905 a 48.804593,48.804593 0 0 1 91.84798,21.93772 c 3.94611,187.33996 35.29679,366.24318 84.54466,493.21131 24.62393,63.48405 52.85786,111.1639 79.47762,140.39 26.61975,29.22609 48.67808,38.64075 66.46436,38.64075 17.78628,0 38.79598,-9.10511 64.26961,-38.03249 25.47364,-28.92738 52.20648,-76.41678 74.87062,-139.78452 45.32826,-126.73547 71.29769,-305.61337 69.58325,-492.95081 a 48.804593,48.804593 0 1 1 97.59535,-0.89369 c 1.80028,196.71866 -24.25881,384.05825 -75.28074,526.71298 -25.511,71.32736 -56.103,128.92798 -93.52037,171.41844 -37.41737,42.49045 -84.86586,71.12957 -137.51772,71.12957 z"
         id="glyph98" />
      <glyph
         glyph-name="lukin"
         unicode="lukin"
         horiz-adv-x="850"
         d="m 409.65973,696.037 c -105.73369,0 -206.95814,-27.29107 -284.71445,-79.91351 C 48.505505,564.39203 -0.03177838,488.68979 0.08549759,406.20539 a 48.825795,48.825813 0 0 1 -0.06647365,-4.25104 48.825795,48.825813 0 0 1 0.28958957,-4.9286 C 4.0207871,314.85869 55.139113,240.74536 133.02063,189.54909 212.4631,137.32669 314.57581,110 420.3095,110 c 105.73369,0 206.95814,27.28968 284.71445,79.91212 77.7563,52.62244 126.76085,130.03246 124.92627,214.17052 -1.83452,84.13807 -53.5591,160.18287 -133.00159,212.40527 -79.4425,52.22239 -181.55521,79.54909 -287.2889,79.54909 z m 0,-97.64236 c 88.48803,0 173.76478,-24.12883 233.65484,-63.49821 59.89007,-39.3694 88.02856,-87.54972 89.01828,-132.94208 0.98973,-45.39235 -24.45129,-92.20886 -82.03344,-131.1782 -57.58214,-38.96934 -141.50187,-63.13379 -229.98991,-63.13379 -88.48803,0 -173.76478,24.12882 -233.65484,63.4982 -59.89008,39.36941 -88.02857,87.54973 -89.018303,132.94208 -0.989727,45.39236 24.451313,92.20747 82.033453,131.17682 57.58215,38.96934 141.50188,63.13518 229.98992,63.13518 z m 5.32488,-85.52937 c -60.08858,0 -109.84673,-49.75815 -109.84673,-109.84677 0,-60.08862 49.75815,-109.84678 109.84673,-109.84678 60.08859,0 109.84674,49.75816 109.84674,109.84678 0,60.08862 -49.75815,109.84677 -109.84674,109.84677 z m 0,-97.64235 c 7.31906,0 12.20581,-4.88542 12.20581,-12.20442 0,-7.319 -4.88675,-12.20581 -12.20581,-12.20581 -7.31905,0 -12.20581,4.88681 -12.20581,12.20581 0,7.319 4.88676,12.20442 12.20581,12.20442 z"
         id="glyph100" />
      <glyph
         glyph-name="lupa"
         unicode="lupa"
         horiz-adv-x="850"
         d="M 48.091846,840.68129 A 48.827898,48.827898 0 0 1 0.0048804,791.1686 V 424.99495 C 0.0048804,314.95003 43.740279,209.36241 121.55381,131.54892 199.36733,53.73544 304.95495,10 414.99983,10 c 110.04489,0 215.63251,43.73544 293.44603,121.54892 77.81351,77.81349 121.54896,183.40111 121.54896,293.44603 V 791.1686 a 48.827898,48.827898 0 1 1 -97.64543,0 V 424.99495 c 0,-84.1851 -33.42189,-164.87201 -92.94973,-224.39982 -59.52785,-59.52781 -140.2147,-92.94975 -224.39983,-92.94975 -84.18512,0 -164.87197,33.42194 -224.39982,92.94975 -59.52784,59.52781 -92.949748,140.21472 -92.949748,224.39982 V 791.1686 a 48.827898,48.827898 0 0 1 -49.558416,49.51269 z"
         id="glyph102" />
      <glyph
         glyph-name="mama"
         unicode="mama"
         horiz-adv-x="850"
         d="M 341.76536,840 C 251.14249,840 164.18051,803.97959 100.10046,739.89954 36.020411,675.81949 0,588.85751 0,498.23464 0,407.61177 36.020411,320.65118 100.10046,256.57113 c 36.44936,-36.44936 80.31469,-63.78545 128.03315,-80.6127 -5.36425,-13.67105 -8.4283,-28.44907 -8.4283,-43.89977 C 219.70531,65.22573 274.93244,10 341.76536,10 c 66.83292,0 122.05866,55.22573 122.05866,122.05866 0,15.4507 -3.06405,30.22872 -8.4283,43.89977 47.7185,16.82724 91.58375,44.1633 128.03315,80.6127 64.08005,64.08005 100.10046,151.04064 100.10046,241.66351 0,90.62287 -36.02041,177.58485 -100.10046,241.6649 C 519.34882,803.97959 432.38823,840 341.76536,840 Z m 0,-97.64665 c 64.76278,0 126.82179,-25.70712 172.616,-71.50132 45.7942,-45.7942 71.50132,-107.85461 71.50132,-172.61739 0,-64.76278 -25.70712,-126.82179 -71.50132,-172.616 -45.79421,-45.7942 -107.85322,-71.50132 -172.616,-71.50132 -64.76278,0 -126.82319,25.70712 -172.61739,71.50132 -45.7942,45.79421 -71.501325,107.85322 -71.501325,172.616 0,64.76278 25.707125,126.82319 71.501325,172.61739 45.7942,45.7942 107.85461,71.50132 172.61739,71.50132 z m 0,-585.88268 c 14.06054,0 24.41062,-10.35146 24.41062,-24.41201 0,-14.06054 -10.35008,-24.41201 -24.41062,-24.41201 -14.06055,0 -24.41201,10.35147 -24.41201,24.41201 0,14.06055 10.35146,24.41201 24.41201,24.41201 z"
         id="glyph106" />
      <glyph
         glyph-name="mani"
         unicode="mani"
         horiz-adv-x="850"
         d="M 48.091846,840.68129 A 48.827898,48.827898 0 0 1 0.0048804,791.1686 c 0,-110.76243 78.8083106,-204.05342 183.0854396,-226.65135 V 241.90951 C 183.09032,114.40778 287.4982,10 414.99983,10 542.50147,10 646.90935,114.40778 646.90935,241.90951 v 322.60774 c 104.27716,22.59793 183.08547,115.88892 183.08547,226.65135 a 48.827898,48.827898 0 1 1 -97.64543,0 c 0,-72.75927 -56.482,-130.94763 -128.43094,-133.97455 a 48.827898,48.827898 0 0 1 -13.67402,-0.28958 H 239.88271 a 48.827898,48.827898 0 0 1 -14.00932,0.30066 C 154.02387,660.33581 97.650262,718.47957 97.650262,791.1686 A 48.827898,48.827898 0 0 1 48.091846,840.68129 Z M 280.73709,559.25909 H 549.26258 V 241.90951 c 0,-74.72994 -59.53285,-134.26413 -134.26275,-134.26413 -74.72989,0 -134.26274,59.53419 -134.26274,134.26413 z"
         id="glyph108" />
      <glyph
         glyph-name="ma"
         unicode="ma"
         horiz-adv-x="850"
         d="m 414.26488,840.02614 a 48.750539,48.750539 0 0 1 -8.46775,-0.91731 C 299.26258,836.73952 197.53355,793.49523 122.01845,717.98012 46.541012,642.50269 3.3028944,540.83738 0.89389025,434.36079 a 48.750539,48.750539 0 0 1 -0.004257,-18.56366 C 3.2589435,309.26258 46.503241,207.53355 122.01835,132.01845 197.49588,56.54101 299.16118,13.30289 405.63777,10.89389 a 48.750539,48.750539 0 0 1 18.56367,-0.004 c 106.53454,2.36915 208.26357,45.61345 283.77868,121.12856 75.47746,75.47744 118.71554,177.14274 121.12457,283.61933 a 48.750539,48.750539 0 0 1 0.007,18.56366 C 826.7395,540.73598 783.49525,642.46502 707.98012,717.98012 632.50268,793.45756 530.83738,836.69567 424.36079,839.10468 a 48.750539,48.750539 0 0 1 -10.09591,0.92146 z M 366.25321,738.03337 V 473.74536 H 101.9652 c 10.27046,65.98224 41.17329,127.4818 88.98975,175.29826 47.81646,47.81646 109.31602,78.71929 175.29826,88.98975 z m 97.49214,0 c 65.98224,-10.27046 127.4818,-41.17329 175.29827,-88.98975 47.81645,-47.81646 78.7193,-109.31602 88.98975,-175.29826 H 463.74535 Z M 101.9652,376.25321 H 366.25321 V 111.9652 c -65.98224,10.27046 -127.4818,41.17329 -175.29826,88.98975 -47.81646,47.81646 -78.71929,109.31602 -88.98975,175.29826 z m 361.78015,0 H 728.03337 C 717.76292,310.27097 686.86007,248.77141 639.04362,200.95495 591.22715,153.13849 529.72759,122.23566 463.74535,111.9652 Z"
         id="glyph104" />
      <glyph
         glyph-name="meli"
         unicode="meli"
         horiz-adv-x="850"
         d="M 415.00001,840.68558 C 186.38289,840.68558 0.00487009,654.30774 0.00487009,425.69047 V 59.51831 a 48.827837,48.827837 0 1 1 97.64593291,0 v 366.17216 c 0,175.84564 141.503747,317.34921 317.349207,317.34921 175.84546,0 317.3492,-141.50357 317.3492,-317.34921 V 59.51831 a 48.827837,48.827837 0 1 1 97.64591,0 v 366.17216 c 0,228.61727 -186.37798,414.99511 -414.99511,414.99511 z m 0,-183.08608 c -161.20675,0 -292.93773,-131.73092 -292.93773,-292.93772 0,-161.20668 131.73098,-292.93773 292.93773,-292.93773 161.20675,0 292.93772,131.73105 292.93772,292.93773 0,161.2068 -131.73097,292.93772 -292.93772,292.93772 z m 0,-97.6459 c 108.43498,0 195.29183,-86.85677 195.29181,-195.29182 0,-108.43493 -86.85683,-195.29182 -195.29181,-195.29182 -108.43498,0 -195.29182,86.85689 -195.29182,195.29182 0,108.43505 86.85684,195.29182 195.29182,195.29182 z"
         id="glyph110" />
      <glyph
         glyph-name="mije"
         unicode="mije"
         horiz-adv-x="850"
         d="M 415,840.71003 C 253.79312,840.71002 122.06258,708.9781 122.06258,547.77122 122.06258,386.56434 253.79312,254.8338 415,254.8338 c 161.20688,0 292.93742,131.73054 292.93742,292.93742 0,161.20688 -131.73054,292.93881 -292.93742,292.93881 z m 0,-97.64673 c 108.43507,0 195.29208,-86.85701 195.29208,-195.29208 0,-108.43506 -86.85701,-195.29207 -195.29208,-195.29207 -108.43507,0 -195.29208,86.85701 -195.29208,195.29207 0,108.43507 86.85701,195.29208 195.29208,195.29208 z M 170.88525,230.42177 C 77.088858,230.42177 0.00520587,153.33812 0.00520587,59.54173 a 48.827879,48.827879 0 1 1 97.64534413,0 c 0,41.02458 32.21012,73.2347 73.2347,73.2347 h 488.2295 c 41.02458,0 73.23471,-32.21012 73.23471,-73.2347 a 48.827879,48.827879 0 1 1 97.64532,0 c 0,93.79639 -77.08365,170.88004 -170.88003,170.88004 z"
         id="glyph114" />
      <glyph
         glyph-name="mi"
         unicode="mi"
         horiz-adv-x="850"
         d="m 431.71784,839.99987 c -89.94462,0 -168.3302,-52.03553 -206.67628,-127.44492 A 48.786716,48.786716 0 0 1 200.00509,669.26277 V 608.28574 59.491 a 48.786716,48.786716 0 1 1 97.56326,0 v 360.26331 c 37.93565,-27.12543 84.25239,-43.18132 134.14949,-43.18132 127.39415,0 231.71413,104.31859 231.71413,231.71275 0,127.39415 -104.31998,231.71413 -231.71413,231.71413 z m 0,-97.56327 c 74.66683,0 134.15087,-59.48403 134.15087,-134.15086 0,-74.66684 -59.48404,-134.14949 -134.15087,-134.14949 -74.66684,0 -134.14949,59.48265 -134.14949,134.14949 0,74.66683 59.48265,134.15086 134.14949,134.15086 z"
         id="glyph112" />
      <glyph
         glyph-name="moku"
         unicode="moku"
         horiz-adv-x="850"
         d="M 49.267773,840.18849 A 48.798325,48.798325 0 0 1 0.48551107,790.33101 C 2.3190119,706.24031 54.015135,630.23867 133.41292,578.04565 c 79.39777,-52.19301 181.45212,-79.50482 287.12629,-79.50482 105.67418,0 206.84351,27.27501 284.55605,79.86785 77.71256,52.59283 126.68852,129.9585 124.85503,214.0492 a 48.798325,48.798325 0 0 1 -48.78094,47.73061 z m 60.816057,-97.5867 h 613.31915 c -11.82715,-29.40705 -35.58537,-58.05151 -73.00366,-83.37475 -57.54972,-38.94742 -141.4219,-63.09951 -229.86011,-63.09951 -88.4382,0 -173.66586,24.11668 -233.5222,63.46391 -38.16889,25.09075 -63.37921,53.76393 -76.93318,83.01035 z M 418.71994,469.44634 c -83.37591,0 -159.69689,-49.39714 -212.67331,-126.71168 -34.7969,-50.78307 -59.03561,-111.5032 -72.17093,-176.86151 l -50.105493,50.1055 A 48.798325,48.798325 0 1 1 14.765338,146.97378 L 136.74941,24.9911 a 48.798325,48.798325 0 0 1 83.28746,33.60596 c 1.61062,87.67487 26.85242,171.09949 66.51081,228.97749 39.65839,57.878 87.22846,84.28509 132.17226,84.28509 44.94381,0 91.40369,-26.1339 129.76274,-83.74609 38.35905,-57.6122 61.99885,-140.89958 61.90928,-228.57013 a 48.798325,48.798325 0 1 1 97.5867,-0.0998 c 0.10702,104.76022 -26.61336,205.17309 -78.2675,282.75344 -51.65413,77.58034 -127.6153,127.24928 -210.99122,127.24928 z"
         id="glyph116" />
      <glyph
         glyph-name="moli"
         unicode="moli"
         horiz-adv-x="850"
         d="M 415,840 C 304.95392,840 199.3645,796.26416 121.55017,718.44984 43.735836,640.6355 0,535.04608 0,425 0,314.95392 43.735836,209.3645 121.55017,131.55017 199.3645,53.73584 304.95392,10 415,10 525.04608,10 630.6355,53.73584 708.44983,131.55017 786.26418,209.3645 830,314.95392 830,425 830,535.04608 786.26418,640.6355 708.44983,718.44984 630.6355,796.26416 525.04608,840 415,840 Z m 0,-97.64665 c 84.18598,0 164.87385,-33.42254 224.40233,-92.95102 C 698.93081,589.87385 732.35334,509.18598 732.35334,425 c 0,-84.18598 -33.42253,-164.87385 -92.95101,-224.40233 C 579.87385,141.06919 499.18598,107.64665 415,107.64665 c -84.18598,0 -164.87385,33.42254 -224.40233,92.95102 C 131.06919,260.12615 97.646648,340.81402 97.646648,425 c 0,84.18598 33.422542,164.87385 92.951022,224.40233 C 250.12615,708.93081 330.81402,742.35335 415,742.35335 Z M 219.19543,535.34661 A 48.828408,48.828408 0 0 1 185.18295,451.50557 L 211.68852,425 185.18295,398.49443 a 48.828408,48.828408 0 1 1 69.04611,-69.04751 l 26.50559,26.50557 26.50695,-26.50557 a 48.828408,48.828408 0 1 1 69.04613,69.04751 L 349.78215,425 l 26.50558,26.50557 a 48.828408,48.828408 0 1 1 -69.04613,69.04751 l -26.50695,-26.50557 -26.50559,26.50557 a 48.828408,48.828408 0 0 1 -35.03363,14.79353 z m 268.52933,0 A 48.828408,48.828408 0 0 1 453.71227,451.50557 L 480.21785,425 453.71227,398.49443 a 48.828408,48.828408 0 1 1 69.04613,-69.04751 l 26.50695,26.50557 26.50559,-26.50557 a 48.828408,48.828408 0 1 1 69.04611,69.04751 L 618.31148,425 l 26.50557,26.50557 a 48.828408,48.828408 0 1 1 -69.04611,69.04751 l -26.50559,-26.50557 -26.50695,26.50557 a 48.828408,48.828408 0 0 1 -35.03364,14.79353 z"
         id="glyph118" />
      <glyph
         glyph-name="monsi"
         unicode="monsi"
         horiz-adv-x="850"
         d="M 292.6912,839.29567 A 48.78672,48.78672 0 0 1 243.90957,790.51404 V 58.78673 A 48.78672,48.78672 0 0 1 292.6912,10.00509 h 487.81774 a 48.78672,48.78672 0 1 1 0,97.56327 H 341.47284 V 741.7324 h 439.0361 a 48.78672,48.78672 0 1 1 0,97.56327 z M 109.75868,534.40906 C 49.718183,534.40906 0,484.69088 0,424.65038 0,364.60988 49.718183,314.89031 109.75868,314.89031 c 60.0405,0 109.76007,49.71957 109.76007,109.76007 0,60.0405 -49.71957,109.75869 -109.76007,109.75868 z m 0,-97.56327 c 7.31317,0 12.19541,-4.88224 12.19541,-12.19541 0,-7.31317 -4.88224,-12.19541 -12.19541,-12.19541 -7.31317,0 -12.195408,4.88224 -12.195408,12.19541 0,7.31317 4.882238,12.19541 12.195408,12.19541 z"
         id="glyph120" />
      <glyph
         glyph-name="mun"
         unicode="mun"
         horiz-adv-x="850"
         d="M 169.60995,839.99374 A 48.828387,48.828387 0 0 1 140.4968,751.40312 c 120.58805,-85.85653 186.07646,-205.0588 186.07646,-327.70174 0,-122.64293 -65.34577,-240.66311 -185.74116,-324.86968 a 48.828387,48.828387 0 0 1 28.03243,-88.83169 c 138.12197,0.14146 270.54042,40.57193 370.83527,115.91087 100.29483,75.33893 160.50476,181.9059 160.50476,295.40458 0,113.4987 -60.04888,220.56692 -160.12651,297.27093 -100.07764,76.70401 -232.34994,119.15674 -370.4681,121.40735 z m 144.73307,-118.5739 c 62.80169,-17.33902 119.97341,-44.80146 166.33377,-80.33414 80.60123,-61.77641 121.8812,-140.48849 121.8812,-219.77024 0,-79.28174 -41.1203,-156.94785 -121.50434,-217.33028 -46.66388,-35.05273 -104.3724,-61.758 -167.7969,-78.08123 70.96509,86.40678 110.96446,189.79028 110.96446,297.79743 0,107.53388 -39.59771,210.80826 -109.87819,297.71846 z"
         id="glyph124" />
      <glyph
         glyph-name="musi"
         unicode="musi"
         horiz-adv-x="850"
         d="M 170.88268,840 C 77.085243,840 0,762.91476 0,669.11732 0,592.26315 51.765717,526.66305 122.05866,505.4589 V 302.94134 C 122.05866,141.73259 253.79138,10 415,10 576.20862,10 707.94134,141.73259 707.94134,302.94134 V 505.4589 C 778.23446,526.66296 830,592.26305 830,669.11732 830,762.91476 752.91478,840 659.11732,840 c -93.79744,10e-6 -170.88129,-77.08524 -170.88129,-170.88268 0,-76.85477 51.76488,-142.45618 122.05866,-163.6598 V 302.94134 c 0,-108.43638 -86.85837,-195.29469 -195.29469,-195.29469 -108.43632,0 -195.29469,86.85831 -195.29469,195.29469 v 202.51618 c 70.29378,21.20363 122.06005,86.80504 122.06004,163.6598 C 341.76535,762.91476 264.68011,840 170.88268,840 Z m 0,-97.64665 c 41.02504,0 73.23464,-32.21099 73.23464,-73.23603 0,-39.04472 -29.19501,-70.04017 -67.37792,-72.94783 a 48.828419,48.828419 0 0 1 -11.9185,0.01 c -38.08312,3.00223 -67.174252,33.96275 -67.174252,72.93813 0,41.02504 32.210992,73.23603 73.236032,73.23603 z m 488.23464,0 c 41.02504,0 73.23602,-32.21099 73.23602,-73.23603 0,-39.04472 -29.19638,-70.04017 -67.3793,-72.94783 a 48.828419,48.828419 0 0 1 -11.9185,0.01 c -38.08312,3.00223 -67.17286,33.96275 -67.17286,72.93813 0,41.02504 32.2096,73.23603 73.23464,73.23603 z"
         id="glyph126" />
      <glyph
         glyph-name="mute"
         unicode="mute"
         horiz-adv-x="850"
         d="M 48.092153,841.40003 A 48.827879,48.827879 0 0 1 0.00520587,791.88735 V 59.54173 a 48.827879,48.827879 0 1 1 97.64534413,0 v 732.34562 a 48.827879,48.827879 0 0 1 -49.558397,49.51268 z m 366.172117,0 A 48.827879,48.827879 0 0 1 366.17733,791.88735 V 59.54173 a 48.827879,48.827879 0 1 1 97.64535,0 v 732.34562 a 48.827879,48.827879 0 0 1 -49.55841,49.51268 z m 366.17209,0 a 48.827879,48.827879 0 0 1 -48.0869,-49.51268 V 59.54173 a 48.827879,48.827879 0 1 1 97.64532,0 v 732.34562 a 48.827879,48.827879 0 0 1 -49.55842,49.51268 z"
         id="glyph128" />
      <glyph
         glyph-name="mu"
         unicode="mu"
         horiz-adv-x="850"
         d="M 146.47067,840 C 66.155505,840 0,773.8445 0,693.52933 0,624.22008 49.281619,565.49688 114.39934,550.69296 79.852924,495.06652 61.029332,430.49537 61.029332,363.97067 c 0,-93.86008 37.306081,-183.92639 103.675178,-250.29549 C 231.07361,47.30608 321.13992,10 415,10 c 93.86008,0 183.92639,37.30608 250.29549,103.67518 66.36909,66.3691 103.67518,156.43541 103.67518,250.29549 0,66.5247 -18.82362,131.09585 -53.37,186.72229 C 780.71836,565.49687 830,624.22007 830,693.52933 830,773.8445 763.84453,840 683.52933,840 604.0884,840 538.54361,775.26687 537.12516,696.13694 498.36726,710.38827 457.07579,717.94134 415,717.94134 c -42.07579,0 -83.36726,-7.55307 -122.12516,-21.8044 C 291.45639,775.26686 225.9116,840 146.47067,840 Z m 0,-97.64665 c 27.54278,0 48.82402,-21.28124 48.82402,-48.82402 0,-27.54279 -21.28123,-48.82402 -48.82402,-48.82402 -27.54279,0 -48.824022,21.28123 -48.824022,48.82402 0,27.54278 21.281232,48.82402 48.824022,48.82402 z m 537.05866,0 c 27.54281,0 48.82401,-21.28123 48.82401,-48.82402 0,-27.54279 -21.2812,-48.82402 -48.82401,-48.82402 -27.54279,0 -48.82402,21.28123 -48.82402,48.82402 0,27.54279 21.28123,48.82402 48.82402,48.82402 z M 415,620.29469 c 67.99998,0 133.16473,-26.99279 181.24798,-75.07604 48.08325,-48.08325 75.07604,-113.24799 75.07604,-181.24798 0,-67.99999 -26.99279,-133.16473 -75.07604,-181.24798 C 548.16473,134.63944 482.99998,107.64665 415,107.64665 c -67.99998,0 -133.16473,26.99279 -181.24798,75.07604 -48.08325,48.08325 -75.07604,113.24799 -75.07604,181.24798 0,67.99999 26.99279,133.16473 75.07604,181.24798 48.08325,48.08325 113.248,75.07604 181.24798,75.07604 z m 0,-329.56004 c -46.60956,0 -85.44134,-38.83041 -85.44134,-85.43996 0,-46.60957 38.83177,-85.44135 85.44134,-85.44134 46.60957,-1e-5 85.44134,38.83177 85.44134,85.44134 0,46.60955 -38.83178,85.43996 -85.44134,85.43996 z M 415,217.5 c 6.16283,0 12.20531,-6.04249 12.20531,-12.20531 0,-6.16282 -6.04248,-12.2067 -12.20531,-12.2067 -6.16283,0 -12.20531,6.04388 -12.20531,12.2067 0,6.16282 6.04248,12.20531 12.20531,12.20531 z"
         id="glyph122" />
      <glyph
         glyph-name="nanpa"
         unicode="nanpa"
         horiz-adv-x="850"
         d="M 231.47065,840.02432 A 48.750243,48.750243 0 0 1 183.45927,790.58987 V 656.54071 H 49.410105 a 48.750243,48.750243 0 1 1 0,-97.49156 H 183.45927 V 290.95082 H 49.410105 a 48.750243,48.750243 0 1 1 0,-97.49155 H 183.45927 V 59.4101 a 48.750243,48.750243 0 1 1 97.49155,0 V 193.45927 H 549.04915 V 59.4101 a 48.750243,48.750243 0 1 1 97.49156,0 V 193.45927 H 780.5899 a 48.750243,48.750243 0 1 1 0,97.49155 H 646.54071 V 559.04915 H 780.5899 a 48.750243,48.750243 0 1 1 0,97.49156 H 646.54071 v 134.04916 a 48.750243,48.750243 0 1 1 -97.49156,0 V 656.54071 H 280.95082 v 134.04916 a 48.750243,48.750243 0 0 1 -49.48017,49.43445 z M 280.95082,559.04915 H 549.04915 V 290.95082 H 280.95082 Z"
         id="glyph130" />
      <glyph
         glyph-name="nasa"
         unicode="nasa"
         horiz-adv-x="850"
         d="m 434.15111,839.99452 c -115.12444,0 -225.58558,-45.75361 -306.99084,-127.15889 C 45.754994,631.43036 0,520.96785 0,405.84341 0,300.87874 41.718853,200.1613 115.94007,125.94007 190.1613,51.71885 290.87874,10 395.84341,10 c 94.8049,0 185.78003,37.6827 252.8172,104.7199 67.03716,67.03718 104.71994,158.01091 104.71987,252.81581 0,84.64513 -33.64791,165.87656 -93.50106,225.72971 -59.85314,59.85313 -141.08319,93.4997 -225.72831,93.4997 -154.5436,0 -280.92172,-126.37811 -280.92172,-280.92171 0,-133.38697 109.22705,-242.61402 242.61402,-242.61402 112.23035,0 204.30632,92.07598 204.30632,204.30632 0,91.07372 -74.92491,166.00001 -165.99862,166.00001 a 51.08172,51.08172 0 1 1 0,-102.15385 c 35.86602,0 63.84615,-27.98013 63.84615,-63.84616 0,-57.02265 -45.1312,-102.15246 -102.15385,-102.15246 -78.17928,0 -140.46016,62.28088 -140.46016,140.46016 0,99.3359 79.43195,178.76785 178.76786,178.76785 57.59165,0 112.77197,-22.85529 153.49541,-63.57874 40.72345,-40.72345 63.58013,-95.90515 63.58013,-153.49681 1e-5,-67.75142 -26.89283,-132.67543 -74.80031,-180.58293 -47.90749,-47.90749 -112.8315,-74.79893 -180.58293,-74.79893 -77.91119,0 -152.5789,30.92759 -207.67043,86.01913 -55.09154,55.09153 -86.01913,129.75924 -86.01913,207.67043 0,88.07096 34.96373,172.48237 97.23931,234.75795 62.27558,62.27557 146.68699,97.24068 234.75795,97.24068 a 51.08172,51.08172 0 1 1 0,102.15248 z"
         id="glyph132" />
      <glyph
         glyph-name="nasin"
         unicode="nasin"
         horiz-adv-x="850"
         d="M 403.17475,839.99445 A 48.745609,48.745609 0 0 1 355.16793,790.56471 V 570.28808 L 68.831193,341.21758 A 48.745609,48.745609 0 1 1 129.72748,265.09721 L 355.16793,445.45012 V 59.45444 a 48.745609,48.745609 0 1 1 97.48091,0 V 445.45151 L 678.0907,265.09721 a 48.745609,48.745609 0 1 1 60.8949,76.12037 l -286.33676,229.0705 v 220.27663 a 48.745609,48.745609 0 0 1 -49.47409,49.42974 z"
         id="glyph134" />
      <glyph
         glyph-name="nena"
         unicode="nena"
         horiz-adv-x="850"
         d="M 353.7203,840 C 297.78518,840 245.65298,812.86775 202.64595,770.11861 159.63892,727.36945 123.44249,668.51698 93.086117,595.67287 32.373394,449.98463 0.0178352,258.95839 0.00515672,59.50259 a 48.79321,48.79321 0 1 1 97.57620828,-0.007 c 0.01199,188.68977 31.918735,369.89168 85.573175,498.64263 26.82723,64.37547 57.99992,112.67594 88.28087,142.77532 30.28095,30.09938 57.35637,41.51035 82.28489,41.51035 24.92851,0 52.00394,-11.41097 82.28488,-41.51035 30.28095,-30.09938 61.45225,-78.39985 88.27948,-142.77532 53.65444,-128.75095 85.56257,-309.95286 85.57456,-498.64247 a 48.79321,48.79321 0 1 1 97.57621,0.007 c -0.0127,199.45564 -32.36824,390.48188 -93.08096,536.17012 -30.35636,72.84411 -66.5528,131.69658 -109.55984,174.44574 C 461.78761,812.86775 409.6554,840 353.7203,840 Z"
         id="glyph136" />
      <glyph
         glyph-name="nimi"
         unicode="nimi"
         horiz-adv-x="850"
         d="M 173.18292,696.35954 C 86.655044,696.67326 7.8245822,631.28993 1.3215763,540.70004 A 48.759361,48.759361 0 0 1 1.2025866,538.04493 C -0.20053825,456.25761 0.94870368,375.22923 0.5855078,295.04626 -7.635216,196.88079 71.759194,107.59684 172.70143,110.64958 l -1.47352,-0.0221 h 471.5817 c 91.85212,-7.89318 179.01637,59.52414 185.86885,154.98154 a 48.759361,48.759361 0 0 1 0.11894,2.65511 c 1.40313,81.78732 0.25389,162.81569 0.61709,242.99867 8.22075,98.16543 -71.17365,187.448 -172.11591,184.39526 l 1.47352,0.0235 H 187.17241 c -4.67765,0.40147 -9.34618,0.66113 -13.98949,0.67796 z m 0.0775,-97.58881 c 2.35393,0.0261 4.70091,-0.0796 7.03002,-0.32653 a 48.759361,48.759361 0 0 1 5.14004,-0.27256 H 658.7721 a 48.759361,48.759361 0 0 1 1.47353,0.0221 c 38.4734,1.16353 75.95672,-41.73077 71.92317,-80.24965 a 48.759361,48.759361 0 0 1 -0.26423,-4.84672 c -0.38551,-81.21183 0.74183,-161.64645 -0.58252,-241.21245 -3.11936,-36.40214 -44.58777,-67.94607 -81.61247,-64.02013 a 48.759361,48.759361 0 0 1 -5.14004,0.27118 H 171.22791 a 48.759361,48.759361 0 0 1 -1.47352,-0.0221 c -38.47341,-1.16353 -75.95672,41.73216 -71.923205,80.25103 a 48.759361,48.759361 0 0 1 0.264268,4.84533 c 0.385524,81.21231 -0.741899,161.64739 0.582487,241.21384 2.92311,34.1122 39.51704,63.95791 74.58247,64.34666 z"
         id="glyph140" />
      <glyph
         glyph-name="ni"
         unicode="ni"
         horiz-adv-x="850"
         d="M 414.26611,840.17356 A 48.760062,48.760062 0 0 1 366.24506,790.72915 V 150.50061 L 76.380765,343.74486 A 48.760062,48.760062 0 1 1 22.292112,262.61118 L 381.40296,23.20303 a 48.760062,48.760062 0 0 1 9.98562,-7.10705 48.760062,48.760062 0 0 1 46.57276,-0.34925 48.760062,48.760062 0 0 1 10.54553,7.3967 l 359.20091,239.46775 a 48.760062,48.760062 0 1 1 -54.08865,81.13368 L 463.75486,150.50061 v 640.22854 a 48.760062,48.760062 0 0 1 -49.48875,49.44441 z"
         id="glyph138" />
      <glyph
         glyph-name="noka"
         unicode="noka"
         horiz-adv-x="850"
         d="M 48.051614,839.99445 A 48.787536,48.787536 0 0 1 0.00488621,790.522 V 58.78245 A 48.787536,48.787536 0 0 1 48.787342,10 H 536.61324 a 48.787536,48.787536 0 0 1 0.0125,0 c 93.70328,0.0226 170.69701,77.03675 170.69701,170.73997 0,93.70321 -76.99373,170.71598 -170.69701,170.73858 a 48.787536,48.787536 0 0 1 -0.0125,0 H 341.48344 V 790.522 a 48.787536,48.787536 0 1 1 -97.56629,0 V 302.69609 a 48.787536,48.787536 0 0 1 48.78245,-48.78245 h 243.91364 c 40.97809,-0.0157 73.14458,-32.194 73.14458,-73.17367 0,-40.97968 -32.16649,-73.15931 -73.14458,-73.17507 H 97.569791 V 790.522 a 48.787536,48.787536 0 0 1 -49.518177,49.47245 z"
         id="glyph142" />
      <glyph
         glyph-name="olin"
         unicode="olin"
         horiz-adv-x="850"
         d="M 195.45576,840 C 146.17288,840 100.76704,827.21829 64.694379,803.16987 28.621713,779.12144 0,740.20102 0,693.40818 0,643.32263 32.630982,604.47167 66.802692,580.74131 100.97441,557.01095 140.01376,541.41346 176.66173,526.14348 c 36.64795,-15.26998 70.90449,-30.21245 91.70471,-44.65705 20.80023,-14.44459 24.8172,-21.40356 24.8172,-32.39795 a 48.868832,48.868832 0 0 1 6.31382,-23.34165 48.868832,48.868832 0 0 1 2.61175,-4.12763 48.868832,48.868832 0 0 1 3.01089,-3.8467 48.868832,48.868832 0 0 1 19.86488,-13.78609 48.868832,48.868832 0 0 1 4.65747,-1.47415 48.868832,48.868832 0 0 1 19.38649,-1.10006 48.868832,48.868832 0 0 1 4.79378,0.93873 48.868832,48.868832 0 0 1 4.67556,1.41297 48.868832,48.868832 0 0 1 8.81431,4.18464 48.868832,48.868832 0 0 1 4.04974,2.73135 48.868832,48.868832 0 0 1 7.1844,6.60447 48.868832,48.868832 0 0 1 3.06095,3.80498 48.868832,48.868832 0 0 1 8.91305,22.47942 48.868832,48.868832 0 0 1 0.39079,5.51972 c 0,10.99439 4.01697,17.95336 24.8172,32.39795 20.80022,14.4446 55.05677,29.38707 91.70472,44.65705 36.64796,15.26998 75.68732,30.86747 109.85903,54.59783 34.17172,23.73036 66.80269,62.58132 66.80269,112.66687 0,46.79284 -28.62171,85.71326 -64.69437,109.76169 C 583.32813,827.21829 537.92228,840 488.6394,840 c -49.28288,0 -94.68872,-12.78171 -130.76138,-36.83013 -5.48403,-3.65602 -10.7652,-7.69549 -15.83044,-12.01434 -5.06524,4.31885 -10.34641,8.35832 -15.83044,12.01434 C 290.14448,827.21829 244.73864,840 195.45576,840 Z m 0,-97.72788 c 31.67756,0 59.56842,-9.09491 76.55156,-20.417 16.98314,-11.32208 21.17632,-21.26613 21.17632,-28.44694 a 48.868832,48.868832 0 0 1 97.72788,0 c 0,7.18081 4.19318,17.12486 21.17632,28.44694 16.98314,11.32209 44.87401,20.417 76.55156,20.417 31.67756,0 59.56842,-9.09491 76.55156,-20.417 16.98314,-11.32208 21.17633,-21.26613 21.17633,-28.44694 0,-10.99439 -4.01698,-17.95196 -24.8172,-32.39656 -20.80022,-14.4446 -55.05677,-29.38705 -91.70472,-44.65705 -36.64796,-15.26997 -75.68732,-30.86746 -109.85904,-54.59782 -6.09006,-4.22921 -12.12258,-8.96043 -17.93875,-14.12821 -5.81616,5.16778 -11.84869,9.899 -17.93875,14.12821 -34.17171,23.73036 -73.21108,39.32785 -109.85904,54.59782 -36.64795,15.27 -70.90449,30.21245 -91.70472,44.65705 -20.80021,14.4446 -24.817188,21.40217 -24.817188,32.39656 0,7.18081 4.193178,17.12486 21.176318,28.44694 16.98315,11.32209 44.87401,20.417 76.55156,20.417 z m 0,-317.6156 c -49.28288,0 -94.68872,-12.78173 -130.761381,-36.83015 C 28.621713,363.77795 0,324.85754 0,278.06469 0,253.63272 10.370148,230.50105 23.968868,214.23116 37.567574,197.96128 53.68274,186.76807 70.493631,177.1952 104.11541,158.04946 142.20775,145.06396 178.29859,131.52989 c 36.09084,-13.53406 69.94905,-27.64852 90.44752,-41.59888 20.49848,-13.95035 24.43753,-20.75966 24.43753,-31.75405 a 48.868832,48.868832 0 0 1 0.31291,-4.87444 48.868832,48.868832 0 0 1 0.79827,-4.8188 48.868832,48.868832 0 0 1 1.27527,-4.71589 48.868832,48.868832 0 0 1 1.73978,-4.56431 48.868832,48.868832 0 0 1 4.79934,-8.49584 48.868832,48.868832 0 0 1 3.01089,-3.8467 48.868832,48.868832 0 0 1 3.37942,-3.52684 48.868832,48.868832 0 0 1 7.72816,-5.9564 48.868832,48.868832 0 0 1 4.27087,-2.37116 48.868832,48.868832 0 0 1 9.1439,-3.40584 48.868832,48.868832 0 0 1 14.52318,-1.55482 48.868832,48.868832 0 0 1 9.65709,1.39349 48.868832,48.868832 0 0 1 17.53961,8.32896 48.868832,48.868832 0 0 1 3.7577,3.12214 48.868832,48.868832 0 0 1 3.4267,3.48233 48.868832,48.868832 0 0 1 3.06095,3.80498 48.868832,48.868832 0 0 1 2.66738,4.09286 48.868832,48.868832 0 0 1 4.04419,8.87967 48.868832,48.868832 0 0 1 2.20148,9.50688 48.868832,48.868832 0 0 1 0.37689,4.87027 48.868832,48.868832 0 0 1 0.0139,0.64946 c 0,10.99439 3.93906,17.8037 24.43754,31.75405 20.49847,13.95036 54.35667,28.06482 90.44751,41.59888 36.09085,13.53407 74.18318,26.51957 107.80497,45.66531 16.81088,9.57287 32.92605,20.76608 46.52476,37.03596 13.59871,16.26989 23.96886,39.40156 23.96886,63.83353 0,46.79285 -28.62171,85.71326 -64.69437,109.76168 -36.07266,24.04842 -81.47851,36.83015 -130.76139,36.83015 -49.28288,0 -94.68872,-12.78173 -130.76138,-36.83015 -5.48403,-3.656 -10.7652,-7.69547 -15.83044,-12.01433 -5.06524,4.31886 -10.34641,8.35833 -15.83044,12.01433 -36.07266,24.04842 -81.4785,36.83015 -130.76138,36.83015 z m 0,-97.72788 c 31.67756,0 59.56842,-9.09492 76.55156,-20.417 16.98314,-11.32209 21.17632,-21.26614 21.17632,-28.44695 a 48.868832,48.868832 0 0 1 97.72788,0 c 0,7.18081 4.19318,17.12486 21.17632,28.44695 16.98314,11.32208 44.87401,20.417 76.55156,20.417 31.67756,0 59.56842,-9.09492 76.55156,-20.417 16.85545,-11.23696 21.10074,-21.1093 21.1638,-28.27728 -0.12133,-0.0866 -0.24654,-0.17054 -1.21409,-1.32813 -2.43476,-2.91302 -9.22457,-8.70854 -19.89964,-14.78741 -21.35016,-12.15772 -56.55374,-25.13118 -93.7588,-39.08308 -37.20507,-13.9519 -76.64277,-28.8504 -111.11623,-52.3115 -6.22705,-4.23785 -12.38893,-8.99993 -18.31842,-14.22557 -5.92949,5.22564 -12.09137,9.98772 -18.31841,14.22557 -34.47346,23.4611 -73.91117,38.3596 -111.11623,52.3115 -37.20507,13.9519 -72.40864,26.92536 -93.75881,39.08308 -10.67507,6.07887 -17.46488,11.87439 -19.899643,14.78741 -0.967538,1.15759 -1.092748,1.2415 -1.214091,1.32813 0.06307,7.16798 4.308354,17.04032 21.163804,28.27728 16.98315,11.32208 44.87401,20.417 76.55156,20.417 z"
         id="glyph146" />
      <glyph
         glyph-name="ona"
         unicode="ona"
         horiz-adv-x="850"
         d="m 598.28587,473.43204 c -127.39418,0 -231.71279,-104.31999 -231.71279,-231.71417 0,-49.8971 16.05589,-96.21385 43.18134,-134.14951 H 49.491036 a 48.786723,48.786723 0 1 1 0,-97.56327 H 598.28587 C 725.68003,10.00509 830,114.32369 830,241.71787 830,369.11205 725.68003,473.43204 598.28587,473.43204 Z m 0,-97.56328 c 74.66684,0 134.15089,-59.48404 134.15089,-134.15089 0,-74.66684 -59.48405,-134.14951 -134.15089,-134.14951 -74.66685,0 -134.14951,59.48267 -134.14951,134.14951 0,74.66685 59.48266,134.15089 134.14951,134.15089 z"
         id="glyph148" />
      <glyph
         glyph-name="open"
         unicode="open"
         horiz-adv-x="850"
         d="M 48.656926,839.40271 A 48.752754,48.752754 0 0 1 0.64307297,789.96571 V 310.4424 a 48.752754,48.752754 0 0 1 0,-15.78476 V 58.74829 A 48.752754,48.752754 0 0 1 49.391361,10 H 780.60881 a 48.752754,48.752754 0 0 1 48.74823,48.74829 v 235.78464 a 48.752754,48.752754 0 0 1 0,15.78337 v 479.64941 a 48.752754,48.752754 0 1 1 -97.49518,0 V 351.23526 H 98.138265 v 438.73045 a 48.752754,48.752754 0 0 1 -49.481339,49.437 z M 98.138265,253.74007 H 731.86186 V 107.4952 H 98.138265 Z"
         id="glyph150" />
      <glyph
         glyph-name="o.space,oo,o.exclam"
         unicode="oo"
         horiz-adv-x="708"
         d="M 329.02618,839.99448 A 48.787537,48.787537 0 0 1 280.97807,790.52202 V 302.6961 a 48.787537,48.787537 0 1 1 97.5649,0 v 487.82592 a 48.787537,48.787537 0 0 1 -49.51679,49.47246 z m 0.73435,-610.47205 C 269.71901,229.52243 220,179.80203 220,119.76053 220,59.71901 269.71901,10 329.76053,10 c 60.0415,0 109.7619,49.71902 109.7619,109.76053 0,60.0415 -49.7204,109.7619 -109.7619,109.7619 z m 0,-97.5663 c 7.31329,0 12.1956,-4.88231 12.1956,-12.1956 0,-7.3133 -4.88231,-12.19562 -12.1956,-12.19562 -7.31331,0 -12.19562,4.88231 -12.19562,12.19562 0,7.31329 4.88231,12.1956 12.19562,12.1956 z"
         id="glyph144" />
      <glyph
         glyph-name="pakala"
         unicode="pakala"
         horiz-adv-x="850"
         d="m 415.54468,841.25933 a 48.828402,48.828402 0 0 1 -7.98513,-0.65918 H 48.823934 A 48.828402,48.828402 0 0 1 0,791.7776 V 59.4241 A 48.828402,48.828402 0 0 1 48.823934,10.60155 H 407.15849 a 48.828402,48.828402 0 0 1 15.28194,0 H 781.17602 A 48.828402,48.828402 0 0 1 830,59.4241 v 732.3535 a 48.828402,48.828402 0 0 1 -48.82398,48.82255 H 422.84149 a 48.828402,48.828402 0 0 1 -7.29681,0.65918 z M 97.646482,742.95367 H 347.26029 L 246.62319,441.03961 a 48.828402,48.828402 0 0 1 46.31766,-64.26269 H 469.31874 L 379.81004,108.24804 H 97.646482 Z m 352.543468,0 H 732.35347 V 108.24804 H 482.7397 l 100.63709,301.91405 a 48.828402,48.828402 0 0 1 -46.31765,64.2627 H 360.67986 Z"
         id="glyph152" />
      <glyph
         glyph-name="palisa"
         unicode="palisa"
         horiz-adv-x="850"
         d="M 270.89466,840 C 177.10636,840 100.02261,762.9353 100,669.14692 a 48.831842,48.831842 0 0 1 0,-0.0125 V 180.86555 a 48.831842,48.831842 0 0 1 0,-0.0125 C 100.02263,87.06471 177.10636,10 270.89466,10 c 93.78831,0 170.87205,77.06471 170.89466,170.85308 a 48.831842,48.831842 0 0 1 0,0.0125 v 488.26886 a 48.831842,48.831842 0 0 1 0,0.0125 C 441.76671,762.9353 364.68297,840 270.89466,840 Z m 0,-97.65488 c 41.02063,0 73.22989,-32.20111 73.23978,-73.22176 v -488.2467 c -0.01,-41.02065 -32.21915,-73.22177 -73.23978,-73.22177 -41.0169,0 -73.2254,32.19538 -73.24116,73.21068 v 488.25779 c 0.01,41.02065 32.22052,73.22176 73.24116,73.22176 z"
         id="glyph156" />
      <glyph
         glyph-name="pali"
         unicode="pali"
         horiz-adv-x="850"
         d="M 475.87143,840 C 348.47138,840 244.14625,735.67486 244.14625,608.27481 c -1e-5,-70.88768 32.32688,-134.59959 82.92824,-177.20226 -37.73062,-20.70331 -72.24325,-48.97097 -101.62878,-83.67189 -26.31409,-31.0739 -47.81394,-66.26378 -64.32603,-104.12421 L 95.291135,440.76209 A 48.788972,48.788972 0 1 1 2.7301226,409.90843 L 124.69075,44.02793 a 48.788972,48.788972 0 0 1 95.05921,14.77459 c 1.14631,85.7192 30.82786,167.29877 80.15308,225.54615 49.32521,58.24737 112.94624,88.65583 177.90021,88.65583 64.95396,0 127.99849,-30.32837 176.57495,-88.42319 48.57645,-58.0948 77.37704,-139.54304 77.60917,-225.25948 a 48.788972,48.788972 0 1 1 97.56852,0.26449 c -0.29013,107.11794 -35.43566,209.97507 -100.32705,287.5817 -29.65965,35.4713 -64.76698,64.20023 -103.24488,85.04561 49.83759,42.59553 81.61128,105.79576 81.61128,176.06118 0,127.40005 -104.32375,231.7252 -231.72381,231.72519 z m 0,-97.5685 c 74.67029,0 134.15669,-59.4864 134.15669,-134.15669 1e-5,-74.67028 -59.4864,-134.1553 -134.15669,-134.1553 -74.67028,0 -134.15669,59.48502 -134.15669,134.1553 0,74.67029 59.48641,134.15669 134.15669,134.15669 z"
         id="glyph154" />
      <glyph
         glyph-name="pana"
         unicode="pana"
         horiz-adv-x="850"
         d="m 413.95276,839.99448 a 48.745787,48.745787 0 0 1 -48.007,-49.42993 V 668.71332 a 48.745787,48.745787 0 1 1 97.48126,0 v 121.85123 a 48.745787,48.745787 0 0 1 -49.47426,49.42993 z M 110.78502,803.35986 A 48.745787,48.745787 0 0 1 66.460743,732.21185 L 127.38636,610.35923 a 48.745787,48.745787 0 1 1 87.19098,43.59549 l -60.92701,121.85262 a 48.745787,48.745787 0 0 1 -42.86531,27.55252 z m 611.20838,-0.0458 a 48.745787,48.745787 0 0 1 -46.27095,-27.50679 l -60.927,-121.85259 a 48.745787,48.745787 0 1 1 87.19098,-43.59549 l 60.9256,121.85262 A 48.745787,48.745787 0 0 1 721.9934,803.31414 Z M 420.96905,588.17977 c -89.56082,0 -164.60955,-67.51099 -216.10007,-166.37502 -33.05624,-63.46939 -56.51874,-139.03322 -69.8567,-220.52959 l -45.327399,67.9904 A 48.745787,48.745787 0 1 1 8.574964,215.19274 L 130.42619,32.4145 a 48.745787,48.745787 0 0 1 89.2859,26.02983 c 2.51051,121.57418 29.55771,237.58063 71.61493,318.3323 42.05721,80.75166 91.19524,113.92049 129.64203,113.92049 38.44679,0 85.71576,-32.55716 125.51455,-113.01714 39.79881,-80.45996 63.83976,-196.3892 63.1674,-317.95958 a 48.745787,48.745787 0 1 1 97.47988,-0.53897 c 0.74307,134.35709 -24.22414,262.56423 -73.27063,361.71996 -49.04649,99.15572 -123.33039,167.27838 -212.8912,167.27838 z"
         id="glyph160" />
      <glyph
         glyph-name="pan"
         unicode="pan"
         horiz-adv-x="850"
         d="M 539.04188,839.97569 A 48.795485,48.795485 0 0 1 498.20853,819.92133 L 354.27553,628.01251 210.34391,819.92133 A 48.795485,48.795485 0 1 1 132.27824,761.37382 L 315.24339,517.41983 a 48.795485,48.795485 0 0 1 78.06566,0 L 576.2728,761.37382 a 48.795485,48.795485 0 0 1 -37.23092,78.60187 z M 109.81305,595.97737 A 48.795485,48.795485 0 0 1 75.822904,512.19496 L 319.7755,268.24097 a 48.795485,48.795485 0 0 1 69.00006,0 L 632.72953,512.19496 A 48.795485,48.795485 0 1 1 563.72948,581.195 L 354.27553,371.74105 144.82296,581.195 a 48.795485,48.795485 0 0 1 -35.00991,14.78237 z M 48.253363,351.96519 A 48.795485,48.795485 0 0 1 18.854905,264.64271 L 323.79634,20.69012 a 48.795485,48.795485 0 0 1 60.95837,0 l 304.94143,243.95259 a 48.795485,48.795485 0 1 1 -60.95835,76.19795 L 354.27553,121.27086 79.814651,340.84066 a 48.795485,48.795485 0 0 1 -31.561288,11.12453 z"
         id="glyph158" />
      <glyph
         glyph-name="pilin"
         unicode="pilin"
         horiz-adv-x="850"
         d="m 232.10364,839.99999 c -65.85249,0 -126.84338,-35.34787 -168.66138,-91.10517 C 21.624254,693.13752 0,621.31961 0,546.81645 0,473.52056 29.669657,413.66026 69.806247,369.06405 109.94284,324.46784 159.1886,292.38003 204.99853,261.84007 c 45.80994,-30.53996 88.18401,-59.53204 116.76232,-91.28571 28.57832,-31.75368 44.71857,-63.51321 44.71857,-112.37715 a 48.868817,48.868817 0 0 1 97.72785,0 c 0,48.86394 16.14027,80.62347 44.71858,112.37715 28.57831,31.75367 70.95238,60.74575 116.76232,91.28571 45.80994,30.53996 95.05572,62.62777 135.19232,107.22398 40.13653,44.59621 69.8062,104.45651 69.8062,177.7524 a 48.868817,48.868817 0 0 1 0,0.008 c -0.0128,74.49235 -21.64293,146.296 -63.46025,202.03984 -41.81724,55.74384 -102.80052,91.08092 -168.64337,91.08092 -65.84287,0 -126.82615,-35.33708 -168.64342,-91.08092 -5.1708,-6.89286 -10.02845,-14.03547 -14.57923,-21.39413 -4.5554,7.36975 -9.41829,14.52186 -14.5954,21.42467 C 358.94702,804.65214 297.95612,840 232.10364,840 Z m 0,-97.72785 c 31.3439,0 63.56886,-16.13374 90.4791,-52.01403 26.90891,-35.87853 43.89502,-88.3445 43.89668,-143.43357 0,-0.003 0,-0.006 0,-0.008 a 48.868817,48.868817 0 0 1 97.72785,-0.008 c 0,0.003 0,0.006 0,0.008 0.0109,55.081 17.00109,107.53382 43.90837,143.40214 26.9086,35.87008 59.1281,51.99876 90.46743,51.99876 31.33932,0 63.55883,-16.12868 90.46742,-51.99876 26.90784,-35.8691 43.89823,-88.32341 43.90837,-143.40573 0,-48.86186 -16.14094,-80.61977 -44.71857,-112.37266 -28.57833,-31.75367 -70.95239,-60.74574 -116.76233,-91.2857 -45.80993,-30.53995 -95.0557,-62.62777 -135.19229,-107.22398 -7.37698,-8.19665 -14.39175,-16.9184 -20.94232,-26.13501 -6.55057,9.21661 -13.56534,17.93836 -20.94233,26.13501 -40.13658,44.59611 -89.38234,76.68393 -135.19228,107.22388 -45.80993,30.53996 -88.18401,59.53204 -116.76232,91.28571 -28.57831,31.75369 -44.718574,63.51232 -44.718574,112.37625 0,55.09204 16.986454,107.56137 43.896684,143.44166 26.91024,35.88029 59.1352,52.01403 90.47911,52.01403 z"
         id="glyph164" />
      <glyph
         glyph-name="pimeja"
         unicode="pimeja"
         horiz-adv-x="850"
         d="m 415.33946,840.45232 a 48.828748,48.828748 0 0 1 -44.00922,-26.9822 L 5.1516163,81.11288 A 48.828748,48.828748 0 0 1 48.821369,10.454 H 163.87881 a 48.828748,48.828748 0 0 1 13.28603,0 h 475.91694 a 48.828748,48.828748 0 0 1 13.0491,0 h 115.04774 a 48.828748,48.828748 0 0 1 43.66976,70.65888 L 458.66975,813.47012 a 48.828748,48.828748 0 0 1 -43.33029,26.9822 z M 414.99999,682.46085 518.33984,475.78394 414.99999,372.4441 311.66015,475.78394 Z M 265.62942,383.72109 345.95251,303.398 150.65789,108.102 h -22.83801 z m 298.74114,0 L 702.18011,108.102 H 679.34209 L 484.04748,303.398 Z M 414.99999,234.35052 541.24851,108.102 H 288.75148 Z"
         id="glyph166" />
      <glyph
         glyph-name="pini"
         unicode="pini"
         horiz-adv-x="850"
         d="m 414.26569,839.90444 a 48.744458,48.744458 0 0 1 -7.09368,-0.68859 H 49.453497 a 48.744458,48.744458 0 1 1 0,-97.4786 H 366.26001 V 108.12145 H 49.453497 a 48.744458,48.744458 0 1 1 0,-97.4786 H 407.04732 a 48.744458,48.744458 0 0 1 15.78068,0 h 357.7185 a 48.744458,48.744458 0 1 1 0,97.4786 H 463.74 v 633.6158 h 316.8065 a 48.744458,48.744458 0 1 1 0,97.4786 H 422.95269 a 48.744458,48.744458 0 0 1 -8.687,0.68859 z"
         id="glyph168" />
      <glyph
         glyph-name="pipi"
         unicode="pipi"
         horiz-adv-x="850"
         d="m 232.40705,839.99451 a 48.787559,48.787559 0 1 1 0,-97.56414 h 24.39139 a 48.787559,48.787559 0 1 1 0,97.56414 z m 219.52244,0 a 48.787559,48.787559 0 1 1 0,-97.56414 h 24.39138 a 48.787559,48.787559 0 1 1 0,97.56414 z M 353.62962,718.72761 A 48.787559,48.787559 0 0 1 305.5812,669.25623 V 596.08209 H 49.471698 a 48.787559,48.787559 0 1 1 0,-97.56553 H 305.5812 V 413.14672 H 49.471698 a 48.787559,48.787559 0 1 1 0,-97.56552 H 305.5812 V 230.21137 H 49.471698 a 48.787559,48.787559 0 1 1 0,-97.56553 H 305.5812 V 59.4717 a 48.787559,48.787559 0 1 1 97.56552,0 v 73.17414 h 256.10951 a 48.787559,48.787559 0 1 1 0,97.56553 H 403.14672 v 85.36983 h 256.10951 a 48.787559,48.787559 0 1 1 0,97.56552 H 403.14672 v 85.36984 h 256.10951 a 48.787559,48.787559 0 1 1 0,97.56553 H 403.14672 v 73.17414 a 48.787559,48.787559 0 0 1 -49.5171,49.47138 z"
         id="glyph170" />
      <glyph
         glyph-name="pi"
         unicode="pi"
         horiz-adv-x="850"
         d="M 48.049182,839.95266 A 48.784795,48.784795 0 0 1 0.00487044,790.48408 V 58.7841 A 48.784795,48.784795 0 0 1 48.783482,10.00549 H 780.48345 a 48.784795,48.784795 0 1 1 0,97.55861 H 97.56348 v 682.91998 a 48.784795,48.784795 0 0 1 -49.514298,49.46858 z"
         id="glyph162" />
      <glyph
         glyph-name="poka"
         unicode="poka"
         horiz-adv-x="850"
         d="M 48.091633,840.6857 A 48.828168,48.828168 0 0 1 0.00489028,791.17205 V 58.82308 A 48.828168,48.828168 0 0 1 48.827973,10 H 537.06015 a 48.828168,48.828168 0 0 1 48.82309,48.82308 v 732.34897 a 48.828168,48.828168 0 1 1 -97.64616,0 V 107.64616 H 97.651051 V 791.17205 A 48.828168,48.828168 0 0 1 48.091633,840.6857 Z M 720.14811,534.85088 c -60.09153,0 -109.85334,-49.76181 -109.85334,-109.85332 10e-6,-60.0915 49.76181,-109.85193 109.85334,-109.85193 60.0915,0 109.85189,49.76043 109.85189,109.85193 0,60.09151 -49.76039,109.85332 -109.85189,109.85332 z m 0,-97.64755 c 7.31939,0 12.20577,-4.88638 12.20577,-12.20577 0,-7.31938 -4.88638,-12.20577 -12.20577,-12.20577 -7.31938,0 -12.20579,4.88639 -12.20579,12.20577 0,7.31939 4.88641,12.20577 12.20579,12.20577 z"
         id="glyph172" />
      <glyph
         glyph-name="poki"
         unicode="poki"
         horiz-adv-x="850"
         d="M 48.091846,840.68129 A 48.827898,48.827898 0 0 1 0.0048804,791.1686 V 58.82269 A 48.827898,48.827898 0 0 1 48.827575,10 H 781.1721 a 48.827898,48.827898 0 0 1 48.82272,48.82269 V 791.1686 a 48.827898,48.827898 0 1 1 -97.64543,0 V 107.64538 H 97.650262 V 791.1686 a 48.827898,48.827898 0 0 1 -49.558416,49.51269 z"
         id="glyph174" />
      <glyph
         glyph-name="pona"
         unicode="pona"
         horiz-adv-x="850"
         d="M 48.091846,474.50765 A 48.827898,48.827898 0 0 1 0.0048804,424.99495 C 0.0048804,314.95003 43.740279,209.36241 121.55381,131.54892 199.36733,53.73544 304.95495,10 414.99983,10 c 110.04489,0 215.63251,43.73544 293.44603,121.54892 77.81351,77.81349 121.54896,183.40111 121.54896,293.44603 a 48.827898,48.827898 0 1 1 -97.64543,0 c 0,-84.1851 -33.42189,-164.87201 -92.94973,-224.39982 -59.52785,-59.52781 -140.2147,-92.94975 -224.39983,-92.94975 -84.18512,0 -164.87197,33.42194 -224.39982,92.94975 -59.52784,59.52781 -92.949748,140.21472 -92.949748,224.39982 a 48.827898,48.827898 0 0 1 -49.558416,49.5127 z"
         id="glyph176" />
      <glyph
         glyph-name="pu"
         unicode="pu"
         horiz-adv-x="850"
         d="M 48.824019,840 A 48.828408,48.828408 0 0 1 0,791.17598 V 58.82402 A 48.828408,48.828408 0 0 1 48.824019,10 H 781.17599 A 48.828408,48.828408 0 0 1 830,58.82402 V 791.17598 A 48.828408,48.828408 0 0 1 781.17599,840 Z M 97.646648,742.35335 H 235.34956 a 48.828408,48.828408 0 0 1 -12.15127,-54.75002 l 24.41201,-61.03071 a 48.828408,48.828408 0 0 1 33.96676,-29.87524 C 201.01807,550.2157 146.47067,463.19996 146.47067,363.97067 c 0,-119.93732 79.63178,-222.12168 188.6482,-256.32402 H 97.646648 Z m 203.555342,0 h 66.3831 a 48.828408,48.828408 0 0 1 -1.40911,-12.2067 v -61.02933 a 48.828408,48.828408 0 0 1 17.89161,-38.46703 c -16.53555,-1.91845 -32.63872,-5.30178 -48.13817,-10.11036 a 48.828408,48.828408 0 0 1 2.34297,42.29808 l -24.41201,61.02933 a 48.828408,48.828408 0 0 1 -12.65839,18.48601 z m 161.1866,0 h 66.34984 a 48.828408,48.828408 0 0 1 -12.59881,-18.48601 l -24.41201,-61.02933 a 48.828408,48.828408 0 0 1 2.28616,-42.28284 c -15.50303,4.80594 -31.6088,8.1888 -48.14786,10.10344 a 48.828408,48.828408 0 0 1 17.95811,38.45871 v 61.02933 a 48.828408,48.828408 0 0 1 -1.43543,12.2067 z m 132.2854,0 H 732.35334 V 107.64665 H 494.88113 c 109.01642,34.20234 188.6482,136.3867 188.6482,256.32402 0,99.20875 -54.52498,186.20875 -135.05651,232.69761 a 48.828408,48.828408 0 0 1 33.91688,29.90434 l 24.41201,61.03071 a 48.828408,48.828408 0 0 1 -12.12772,54.75002 z M 415,534.85335 c 94.95401,0 170.88268,-75.92867 170.88268,-170.88268 0,-94.95401 -75.92867,-170.88268 -170.88268,-170.88268 -94.95401,0 -170.88268,75.92867 -170.88268,170.88268 0,94.95401 75.92867,170.88268 170.88268,170.88268 z M 328.82293,425.69001 A 48.828408,48.828408 0 0 1 280.73465,376.17598 C 280.73464,302.60192 341.426,241.91201 415,241.91201 c 73.574,0 134.26535,60.68991 134.26535,134.26397 a 48.828408,48.828408 0 1 1 -97.64803,0 c 0,-20.80171 -15.81561,-36.61732 -36.61732,-36.61732 -20.80171,0 -36.61732,15.81561 -36.61732,36.61732 a 48.828408,48.828408 0 0 1 -49.55975,49.51403 z"
         id="glyph178" />
      <glyph
         glyph-name="sama"
         unicode="sama"
         horiz-adv-x="850"
         d="m 49.454307,643.02983 a 48.744394,48.744427 0 1 1 0,-97.47852 H 780.54609 a 48.744394,48.744427 0 1 1 0,97.47852 z m 0,-365.54614 a 48.744394,48.744427 0 1 1 0,-97.47852 H 780.54609 a 48.744394,48.744427 0 1 1 0,97.47852 z"
         id="glyph180" />
      <glyph
         glyph-name="seli"
         unicode="seli"
         horiz-adv-x="850"
         d="M 414.26592,839.9694 A 48.786067,48.786067 0 0 1 366.2192,790.49973 v -426.8367 a 48.786067,48.786067 0 1 1 97.56212,0 v 426.8367 a 48.786067,48.786067 0 0 1 -49.5154,49.46967 z M 782.45089,656.93132 A 48.786067,48.786067 0 0 1 739.02913,632.66756 L 556.10052,327.78421 a 48.786067,48.786067 0 1 1 83.65812,-50.19432 l 182.93001,304.88197 a 48.786067,48.786067 0 0 1 -40.23776,74.45946 z M 50.958073,656.89942 A 48.786067,48.786067 0 0 1 7.3118627,582.47186 L 190.24188,277.58989 A 48.786067,48.786067 0 1 1 273.9,327.78421 L 90.971371,632.66756 A 48.786067,48.786067 0 0 1 50.958073,656.89945 Z M 415.00026,229.51546 c -60.03969,0 -109.75773,-49.71804 -109.75773,-109.75773 C 305.24253,59.71804 354.96057,10 415.00026,10 c 60.03969,0 109.75773,49.71804 109.75773,109.75773 0,60.03969 -49.71804,109.75773 -109.75773,109.75773 z m 0,-97.56212 c 7.31307,0 12.19561,-4.88254 12.19561,-12.19561 0,-7.31307 -4.88254,-12.19561 -12.19561,-12.19561 -7.31307,0 -12.19561,4.88254 -12.19561,12.19561 0,7.31307 4.88254,12.19561 12.19561,12.19561 z"
         id="glyph182" />
      <glyph
         glyph-name="selo"
         unicode="selo"
         horiz-adv-x="850"
         d="m 231.17891,841.40003 a 48.827879,48.827879 0 0 1 -7.10788,-0.69 H 170.88525 C 77.088858,840.71003 0.00520587,763.62638 0.00520587,669.82998 V 59.54173 a 48.827879,48.827879 0 1 1 97.64534413,0 v 610.28825 c 0,41.02458 32.21012,73.23332 73.2347,73.23332 h 12.20533 V 59.54173 a 48.827879,48.827879 0 1 1 97.64672,0 V 743.0633 H 549.2627 V 59.54173 a 48.827879,48.827879 0 1 1 97.64672,0 V 743.0633 h 12.20533 c 41.02458,0 73.23471,-32.20874 73.23471,-73.23332 V 59.54173 a 48.827879,48.827879 0 1 1 97.64532,0 v 610.28825 c 0,93.7964 -77.08365,170.88005 -170.88003,170.88005 h -53.05969 a 48.827879,48.827879 0 0 1 -15.81053,0 H 239.88294 a 48.827879,48.827879 0 0 1 -8.70403,0.69 z"
         id="glyph184" />
      <glyph
         glyph-name="seme"
         unicode="seme"
         horiz-adv-x="850"
         d="m 415.01614,839.96764 c -101.42217,0 -198.32659,-12.91101 -274.35502,-38.2538 C 102.64691,789.04244 71.177791,774.00367 46.117008,753.83631 21.056216,733.66895 0.03232165,704.67159 0.03232165,669.09187 A 48.826549,48.826549 0 1 1 97.649494,667.90865 c 0.12727,0.0755 1.438457,3.22043 9.684676,9.85648 11.39528,9.17021 33.54976,21.0984 64.20433,31.31658 61.30915,20.43638 150.67516,33.24382 243.47764,33.24382 92.80248,0 182.16711,-12.80744 243.47626,-33.24382 30.65457,-10.21818 52.81044,-22.14637 64.20569,-31.31658 7.89077,-6.34999 9.36727,-9.39971 9.60158,-9.73456 C 732.00485,639.1725 720.13134,620.74442 692.71023,597.89352 664.9409,574.7524 622.03297,552.56331 576.26265,529.67815 530.49234,506.793 481.85972,483.21189 440.97358,449.14011 400.08745,415.06833 366.1937,364.97469 366.1937,302.93049 a 48.826549,48.826549 0 1 1 97.6435,0 c 0,29.49642 11.87691,48.05724 39.64623,71.19835 27.76934,23.14112 70.67727,45.33021 116.44758,68.21536 45.77031,22.88516 94.40293,46.46627 135.28904,80.53805 C 796.10623,556.95403 830,607.04767 830,669.09187 c 0,35.57972 -21.02535,64.57708 -46.08607,84.74444 -25.06079,20.16736 -56.52855,35.20613 -94.54277,47.87753 -76.02843,25.34279 -172.93285,38.2538 -274.35502,38.2538 z m 0,-610.27082 C 354.92663,229.69683 305.16773,179.93793 305.16773,119.84841 305.16773,59.7589 354.92663,10 415.01614,10 c 60.08952,0 109.84842,49.7589 109.84842,109.84841 0,60.08952 -49.7589,109.84842 -109.84842,109.84841 z m 0,-97.64211 c 7.31914,0 12.20492,-4.88715 12.20492,-12.2063 0,-7.31913 -4.88578,-12.20492 -12.20492,-12.20492 -7.31914,0 -12.2063,4.88579 -12.2063,12.20492 0,7.31915 4.88716,12.2063 12.2063,12.2063 z"
         id="glyph186" />
      <glyph
         glyph-name="sewi"
         unicode="sewi"
         horiz-adv-x="850"
         d="M 780.47745,840.73223 A 48.787563,48.787563 0 0 1 732.43042,791.26085 V 59.51936 a 48.787563,48.787563 0 1 1 97.56415,0 v 731.74149 a 48.787563,48.787563 0 0 1 -49.51712,49.47138 z M 634.12917,657.79686 a 48.787563,48.787563 0 0 1 -48.04703,-49.47139 c 0,-143.25544 -10.30574,-280.98852 -27.82341,-379.52542 -8.75884,-49.26846 -19.29012,-86.92026 -28.45107,-108.26482 -0.40715,-0.94865 -0.79132,-1.67461 -1.19435,-2.55498 -9.16038,11.39312 -21.06767,33.5174 -31.27069,64.12646 -20.42007,61.2602 -33.21739,150.55501 -33.21739,243.28339 a 48.787563,48.787563 0 0 1 -97.56554,0 c 0,-92.72838 -12.79732,-182.02319 -33.21739,-243.28339 -10.21003,-30.63011 -22.12719,-52.76661 -31.29008,-64.15278 -2.18954,-2.72081 -3.96043,-4.60763 -5.42031,-6.03272 -24.48157,17.34997 -52.88051,66.86157 -52.03329,129.87815 h -0.01 c 5.2e-4,0.21915 0.0138,0.43614 0.0138,0.65537 a 48.787563,48.787563 0 0 1 -97.56133,0.65537 c -0.003,-0.21929 0.0123,-0.43613 0.01,-0.65537 h -0.0138 c 0,-79.94095 -49.694878,-134.1526 -97.565529,-134.1526 a 48.787563,48.787563 0 1 1 0,-97.56553 c 57.035699,0 105.916089,27.54653 140.491539,70.39748 21.58601,-32.21025 51.28213,-56.68022 89.1538,-68.26372 a 48.787563,48.787563 0 0 1 14.26849,-2.13376 c 35.55131,0 64.52441,21.00828 84.67567,46.04905 14.84478,18.44672 26.89519,40.39771 37.28125,65.8487 10.38605,-25.45099 22.43647,-47.40198 37.28123,-65.8487 C 472.775,31.74488 501.7481,10.7366 537.29942,10.7366 c 24.63666,0 43.84884,13.82279 55.57477,27.00731 11.72593,13.18453 19.44508,27.66364 26.59027,44.31157 14.29037,33.29586 25.31552,76.01506 34.85374,129.66755 19.07644,107.30498 29.32952,248.7535 29.32952,396.60244 a 48.787563,48.787563 0 0 1 -49.51855,49.47139 z"
         id="glyph188" />
      <glyph
         glyph-name="sijelo"
         unicode="sijelo"
         horiz-adv-x="850"
         d="m 414.26427,841.40003 a 48.827879,48.827879 0 0 1 -7.10649,-0.69 H 48.827881 A 48.827879,48.827879 0 0 1 0.00520587,791.88735 V 59.54173 a 48.827879,48.827879 0 1 1 97.64534413,0 V 743.0633 H 366.17733 V 59.54173 a 48.827879,48.827879 0 1 1 97.64535,0 V 743.0633 H 732.34946 V 59.54173 a 48.827879,48.827879 0 1 1 97.64532,0 v 732.34562 a 48.827879,48.827879 0 0 1 -48.8227,48.82268 H 422.9683 a 48.827879,48.827879 0 0 1 -8.70403,0.69 z"
         id="glyph190" />
      <glyph
         glyph-name="sike"
         unicode="sike"
         horiz-adv-x="850"
         d="M 415,840 C 304.95392,840 199.3645,796.26416 121.55017,718.44984 43.735836,640.6355 0,535.04608 0,425 0,314.95392 43.735836,209.3645 121.55017,131.55017 199.3645,53.73584 304.95392,10 415,10 525.04608,10 630.6355,53.73584 708.44983,131.55017 786.26418,209.3645 830,314.95392 830,425 830,535.04608 786.26418,640.6355 708.44983,718.44984 630.6355,796.26416 525.04608,840 415,840 Z m 0,-97.64665 c 84.18598,0 164.87385,-33.42254 224.40233,-92.95102 C 698.93081,589.87385 732.35334,509.18598 732.35334,425 c 0,-84.18598 -33.42253,-164.87385 -92.95101,-224.40233 C 579.87385,141.06919 499.18598,107.64665 415,107.64665 c -84.18598,0 -164.87385,33.42254 -224.40233,92.95102 C 131.06919,260.12615 97.646648,340.81402 97.646648,425 c 0,84.18598 33.422542,164.87385 92.951022,224.40233 59.52848,59.52848 140.21635,92.95102 224.40233,92.95102 z m 0,-85.44134 C 287.49697,656.91201 183.08799,552.50303 183.08799,425 183.08799,297.49697 287.49697,193.08799 415,193.08799 c 127.50303,0 231.91201,104.40898 231.91201,231.91201 0,127.50303 -104.40898,231.91201 -231.91201,231.91201 z m 0,-97.64666 c 74.73065,0 134.26535,-59.5347 134.26535,-134.26535 0,-74.73065 -59.5347,-134.26535 -134.26535,-134.26535 -74.73065,0 -134.26536,59.5347 -134.26535,134.26535 0,74.73065 59.5347,134.26536 134.26535,134.26535 z"
         id="glyph192" />
      <glyph
         glyph-name="sina"
         unicode="sina"
         horiz-adv-x="850"
         d="M 248.05161,839.99446 A 48.787536,48.787536 0 0 1 200.00489,790.522 V 241.71803 C 200.00489,114.32173 304.32523,10 431.72153,10 c 127.39631,0 231.71803,104.32173 231.71803,231.71803 0,127.3963 -104.32172,231.71665 -231.71803,231.71665 -49.89793,0 -96.21544,-16.05616 -134.15174,-43.18206 V 790.522 a 48.787536,48.787536 0 0 1 -49.51818,49.47246 z M 431.72153,375.86977 c 74.6681,0 134.15313,-59.48365 134.15313,-134.15174 0,-74.66809 -59.48503,-134.15313 -134.15313,-134.15313 -74.66809,0 -134.15174,59.48504 -134.15174,134.15313 0,74.66809 59.48365,134.15174 134.15174,134.15174 z"
         id="glyph196" />
      <glyph
         glyph-name="sinpin"
         unicode="sinpin"
         horiz-adv-x="850"
         d="m 49.540997,839.99479 a 48.827879,48.827879 0 1 1 0,-97.64534 H 488.94782 V 107.65055 H 49.540997 a 48.827879,48.827879 0 1 1 0,-97.64534 H 537.77049 a 48.827879,48.827879 0 0 1 48.82406,48.82267 v 732.34424 a 48.827879,48.827879 0 0 1 -48.82406,48.82267 z M 720.85721,534.85205 C 660.76609,534.85206 611.00519,485.09115 611.00519,425 c 0,-60.09115 49.7609,-109.85206 109.85202,-109.85205 60.0912,0 109.85208,49.7609 109.85208,109.85205 0,60.09115 -49.76088,109.85205 -109.85208,109.85205 z m 0,-97.64673 c 7.3194,0 12.20534,-4.88598 12.20534,-12.20532 0,-7.31934 -4.88594,-12.20532 -12.20534,-12.20532 -7.31933,0 -12.20529,4.88598 -12.20529,12.20532 0,7.31934 4.88596,12.20532 12.20529,12.20532 z"
         id="glyph198" />
      <glyph
         glyph-name="sin"
         unicode="sin"
         horiz-adv-x="850"
         d="M 414.26567,595.56848 A 48.744485,48.744485 0 0 1 366.25996,546.13987 V 241.51715 a 48.744485,48.744485 0 1 1 97.48004,0 v 304.62272 a 48.744485,48.744485 0 0 1 -49.47433,49.42861 z M 49.45328,107.48382 a 48.744485,48.744485 0 1 1 0,-97.47866 h 243.69734 a 48.744485,48.744485 0 1 1 0,97.47866 z m 487.39607,0 a 48.744485,48.744485 0 1 1 0,-97.47866 h 243.69737 a 48.744485,48.744485 0 1 1 0,97.47866 z"
         id="glyph194" />
      <glyph
         glyph-name="sitelen"
         unicode="sitelen"
         horiz-adv-x="850"
         d="M 48.824019,840 A 48.828408,48.828408 0 0 1 0,791.17598 V 58.82402 A 48.828408,48.828408 0 0 1 48.824019,10 H 781.17599 A 48.828408,48.828408 0 0 1 830,58.82402 V 791.17598 A 48.828408,48.828408 0 0 1 781.17599,840 Z M 97.646648,742.35335 H 732.35334 V 107.64665 H 97.646648 Z M 231.17628,498.92465 a 48.828408,48.828408 0 0 1 -48.08829,-49.51264 v -48.82402 a 48.828408,48.828408 0 1 1 97.64666,0 v 48.82402 a 48.828408,48.828408 0 0 1 -49.55837,49.51264 z m 183.08799,0 a 48.828408,48.828408 0 0 1 -48.08829,-49.51264 v -48.82402 a 48.828408,48.828408 0 1 1 97.64804,0 v 48.82402 a 48.828408,48.828408 0 0 1 -49.55975,49.51264 z m 183.08799,0 a 48.828408,48.828408 0 0 1 -48.08691,-49.51264 v -48.82402 a 48.828408,48.828408 0 1 1 97.64666,0 v 48.82402 a 48.828408,48.828408 0 0 1 -49.55975,49.51264 z"
         id="glyph200" />
      <glyph
         glyph-name="sona"
         unicode="sona"
         horiz-adv-x="850"
         d="M 353.34561,839.99448 A 48.787537,48.787537 0 0 1 305.2975,790.52202 v -85.3693 a 48.787537,48.787537 0 1 1 97.5649,0 v 85.3693 a 48.787537,48.787537 0 0 1 -49.51679,49.47246 z m 306.28003,-0.12332 A 48.787537,48.787537 0 0 1 619.27565,818.8773 l -60.97806,-85.37068 a 48.787537,48.787537 0 1 1 79.39203,-56.7078 l 60.97806,85.3693 a 48.787537,48.787537 0 0 1 -39.04204,77.70304 z M 47.065566,839.84066 A 48.787537,48.787537 0 0 1 9.4922171,762.1681 L 70.470282,676.7988 a 48.787537,48.787537 0 1 1 79.392028,56.7078 L 88.884248,818.8773 A 48.787537,48.787537 0 0 1 47.065566,839.84068 Z M 49.188231,595.39219 A 48.787537,48.787537 0 0 1 0.40578139,546.60973 V 58.78245 A 48.787537,48.787537 0 0 1 49.188231,10 H 658.97167 a 48.787537,48.787537 0 0 1 48.78245,48.78245 v 487.8273 a 48.787537,48.787537 0 0 1 -48.78245,48.78246 z M 97.970684,497.82728 H 610.18921 V 107.56491 H 97.970684 Z"
         id="glyph202" />
      <glyph
         glyph-name="soweli"
         unicode="soweli"
         horiz-adv-x="850"
         d="m 292.6934,839.97593 a 48.786459,48.786459 0 1 1 0,-97.56278 H 535.67543 C 643.86874,739.52941 728.31341,650.64674 725.60745,542.40877 722.89896,434.06978 633.95766,349.45428 525.61818,352.14556 A 48.786459,48.786459 0 0 1 475.62464,303.37791 V 59.47097 a 48.786459,48.786459 0 1 1 97.56278,0 v 198.26587 c 138.0517,20.42192 246.35159,138.19547 249.95252,282.2339 4.02615,161.044 -124.26747,295.9384 -285.31095,299.99007 a 48.786459,48.786459 0 0 1 -1.22727,0.0151 z M 475.62464,596.06762 a 48.786459,48.786459 0 1 1 0,-97.56278 h 12.19569 a 48.786459,48.786459 0 1 1 0,97.56278 z m 121.95416,0 a 48.786459,48.786459 0 1 1 0,-97.56278 h 12.19569 a 48.786459,48.786459 0 1 1 0,97.56278 z M 48.051199,352.84921 A 48.786459,48.786459 0 0 1 0.00507021,303.37791 V 59.47097 a 48.786459,48.786459 0 1 1 97.56277679,0 v 243.90694 a 48.786459,48.786459 0 0 1 -49.516648,49.4713 z m 158.539861,0 a 48.786459,48.786459 0 0 1 -48.04614,-49.4713 V 59.47097 a 48.786459,48.786459 0 1 1 97.56278,0 v 243.90694 a 48.786459,48.786459 0 0 1 -49.51664,49.4713 z m 158.53986,0 a 48.786459,48.786459 0 0 1 -48.04613,-49.4713 V 59.47097 a 48.786459,48.786459 0 1 1 97.56277,0 v 243.90694 a 48.786459,48.786459 0 0 1 -49.51664,49.4713 z"
         id="glyph204" />
      <glyph
         glyph-name="suli"
         unicode="suli"
         horiz-adv-x="850"
         d="M 49.829182,839.97438 A 48.791293,48.791293 0 0 1 5.4640748,768.75883 L 371.36117,36.96326 a 48.791293,48.791293 0 0 1 87.27261,0 L 824.5309,768.75883 a 48.791293,48.791293 0 1 1 -87.27124,43.63631 L 414.99748,167.87218 92.735306,812.39514 a 48.791293,48.791293 0 0 1 -42.906124,27.57924 z"
         id="glyph206" />
      <glyph
         glyph-name="suno"
         unicode="suno"
         horiz-adv-x="850"
         d="M 414.26559,840.02432 A 48.750243,48.750243 0 0 1 366.25421,790.58987 V 713.30941 C 244.20127,692.6314 147.36858,595.79871 126.69057,473.74576 H 49.410105 a 48.750243,48.750243 0 1 1 0,-97.49155 H 126.69057 C 147.36858,254.20127 244.20127,157.36857 366.25421,136.69057 V 59.4101 a 48.750243,48.750243 0 1 1 97.49155,0 v 77.28047 c 122.05295,20.67801 218.88563,117.5107 239.56364,239.56364 h 77.2805 a 48.750243,48.750243 0 1 1 0,97.49155 H 703.3094 C 682.6314,595.79871 585.79871,692.6314 463.74576,713.30941 v 77.28046 a 48.750243,48.750243 0 0 1 -49.48017,49.43445 z m -5.98185,-220.21026 a 48.750243,48.750243 0 0 1 13.5281,-0.003 c 102.8251,-3.47966 184.57102,-85.25695 188.00222,-188.09505 a 48.750243,48.750243 0 0 1 -0.003,-13.5281 C 606.3314,315.36281 524.55412,233.61689 421.71601,230.18569 a 48.750243,48.750243 0 0 1 -13.5281,0.003 c -102.82487,3.47965 -184.5708,85.25695 -188.002,188.09505 a 48.750243,48.750243 0 0 1 0.003,13.5281 c 3.4795,102.8251 85.25679,184.57102 188.09489,188.00222 z"
         id="glyph208" />
      <glyph
         glyph-name="supa"
         unicode="supa"
         horiz-adv-x="850"
         d="m 170.56833,596.27657 a 48.744485,48.744485 0 0 1 -7.09923,-0.68858 H 49.45328 a 48.744485,48.744485 0 1 1 0,-97.47867 h 73.10934 V 59.45327 a 48.744485,48.744485 0 1 1 97.47866,0 V 498.10932 H 609.95869 V 59.45327 a 48.744485,48.744485 0 1 1 97.47866,0 v 438.65605 h 73.10937 a 48.744485,48.744485 0 1 1 0,97.47867 H 666.6611 a 48.744485,48.744485 0 0 1 -15.79593,0 H 179.26503 a 48.744485,48.744485 0 0 1 -8.6967,0.68858 z"
         id="glyph210" />
      <glyph
         glyph-name="suwi"
         unicode="suwi"
         horiz-adv-x="850"
         d="M 170.45174,717.10146 A 48.771015,48.771015 0 0 1 136.68688,702.82597 L 14.770923,580.91002 a 48.771015,48.771015 0 1 1 68.966554,-68.96517 l 87.431983,87.43199 87.432,-87.43199 a 48.771015,48.771015 0 1 1 68.96655,68.96517 L 205.65205,702.82597 a 48.771015,48.771015 0 0 1 -35.20031,14.27549 z m 487.66244,0 A 48.771015,48.771015 0 0 1 624.34793,702.82597 L 502.43198,580.91002 a 48.771015,48.771015 0 1 1 68.96655,-68.96517 l 87.43199,87.43199 87.432,-87.43199 a 48.771015,48.771015 0 1 1 68.96655,68.96517 L 693.3131,702.82597 a 48.771015,48.771015 0 0 1 -35.19892,14.27549 z M 414.99999,229.44733 c -60.02118,0 -109.72436,-49.70179 -109.72436,-109.72297 C 305.27563,59.70319 354.97881,10 414.99999,10 c 60.02118,0 109.72436,49.70319 109.72436,109.72436 0,60.02118 -49.70318,109.72297 -109.72436,109.72297 z m 0,-97.53137 c 7.31082,0 12.1916,-4.88079 12.1916,-12.1916 0,-7.31082 -4.88078,-12.1916 -12.1916,-12.19159 -7.31081,-1e-5 -12.1916,4.88077 -12.1916,12.19159 0,7.31081 4.88079,12.1916 12.1916,12.1916 z"
         id="glyph212" />
      <glyph
         glyph-name="tan"
         unicode="tan"
         horiz-adv-x="850"
         d="M 493.45513,840 C 437.30683,840 384.80885,813.1368 340.99862,770.68496 297.18839,728.23311 259.85729,669.69274 228.09548,597.15419 176.61662,479.58529 143.11923,332.05132 130.0219,173.80689 l -45.065095,45.0651 A 49.485197,49.485197 0 1 1 14.980849,148.89604 L 134.19934,29.67755 a 49.485197,49.485197 0 0 1 78.7659,-0.17458 l 119.39307,119.39307 a 49.485197,49.485197 0 1 1 -69.97595,69.97595 l -31.60722,-31.60722 c 13.75671,141.19727 44.69176,271.35258 87.9715,370.19611 28.06479,64.09517 60.16088,112.1603 91.11672,142.15631 30.95582,29.99601 58.56103,41.42248 83.59177,41.42248 25.03074,0 51.68115,-11.21134 81.49544,-40.93199 29.81428,-29.72065 60.4302,-77.57086 86.5915,-141.53282 52.32256,-127.92391 82.6308,-308.65482 81.15184,-498.00503 A 49.485197,49.485197 0 1 1 841.65144,59.7967 C 843.21489,259.9588 812.58422,450.69526 753.13682,596.03882 723.41305,668.7106 687.67749,727.46727 644.81567,770.19447 601.95386,812.92167 549.60343,840 493.45513,840 Z"
         id="glyph214" />
      <glyph
         glyph-name="taso"
         unicode="taso"
         horiz-adv-x="850"
         d="m 779.78382,839.99447 a 48.745725,48.745725 0 0 1 -48.00557,-49.4299 V 473.74977 H 49.406151 a 48.745725,48.745725 0 1 1 0,-97.4825 H 731.77825 V 59.45257 a 48.745725,48.745725 0 1 1 97.4812,0 v 357.6031 a 48.745725,48.745725 0 0 1 0,15.7811 v 357.7278 a 48.745725,48.745725 0 0 1 -49.47563,49.4299 z"
         id="glyph216" />
      <glyph
         glyph-name="tawa"
         unicode="tawa"
         horiz-adv-x="850"
         d="M 475.02929,839.6416 A 48.789628,48.789628 0 0 1 435.68322,818.84556 L 8.8164452,209.03628 A 48.789628,48.789628 0 0 1 26.964663,137.4258 L 270.88893,15.46367 a 48.789628,48.789628 0 1 1 43.6344,87.26882 L 121.17519,199.40656 438.23822,652.35533 488.01348,55.04667 A 48.789628,48.789628 0 0 1 548.46179,11.76974 L 792.38605,72.7515 a 48.789628,48.789628 0 1 1 -23.66416,94.65668 L 580.47957,120.34726 524.26556,794.92091 a 48.789628,48.789628 0 0 1 -49.23627,44.72069 z"
         id="glyph218" />
      <glyph
         glyph-name="telo"
         unicode="telo"
         horiz-adv-x="850"
         d="m 230.75067,764.45312 c -96.78229,0 -187.23479,-43.27346 -225.6274284,-123.13464 A 48.792428,48.792428 0 1 1 93.063679,599.0414 c 16.791931,34.92917 71.269931,67.83621 137.686991,67.83621 66.41706,0 122.64754,-33.14542 140.75043,-68.78946 40.19681,-79.14631 130.96641,-122.18138 227.74869,-122.18138 96.7823,0 187.23482,43.27345 225.62745,123.13463 a 48.792428,48.792428 0 1 1 -87.94048,42.27708 c -16.79188,-34.92917 -71.2699,-67.8362 -137.68697,-67.8362 -66.41706,0 -122.64753,33.14542 -140.75042,68.78946 -40.19681,79.1463 -130.96641,122.18138 -227.7487,122.18138 z m 0,-365.90678 c -96.78229,0 -187.23479,-43.27345 -225.6274284,-123.13462 A 48.792428,48.792428 0 1 1 93.063679,233.13463 c 16.791931,34.92917 71.269931,67.8362 137.686991,67.8362 66.41706,0 122.64754,-33.14541 140.75043,-68.78946 C 411.69791,153.03507 502.46751,110 599.24979,110 c 96.7823,0 187.23482,43.27345 225.62745,123.13463 a 48.792428,48.792428 0 1 1 -87.94048,42.27709 c -16.79188,-34.92917 -71.2699,-67.83621 -137.68697,-67.83621 -66.41706,0 -122.64753,33.14541 -140.75042,68.78945 -40.19681,79.14631 -130.96641,122.18138 -227.7487,122.18138 z"
         id="glyph220" />
      <glyph
         glyph-name="tenpo"
         unicode="tenpo"
         horiz-adv-x="850"
         d="M 415,840 C 304.95392,840 199.3645,796.26416 121.55017,718.44984 43.735836,640.6355 0,535.04608 0,425 0,314.95392 43.735836,209.3645 121.55017,131.55017 199.3645,53.73584 304.95392,10 415,10 525.04608,10 630.6355,53.73584 708.44983,131.55017 786.26418,209.3645 830,314.95392 830,425 830,535.04608 786.26418,640.6355 708.44983,718.44984 630.6355,796.26416 525.04608,840 415,840 Z m 0,-97.64665 c 84.18598,0 164.87385,-33.42254 224.40233,-92.95102 C 698.93081,589.87385 732.35334,509.18598 732.35334,425 c 0,-84.18598 -33.42253,-164.87385 -92.95101,-224.40233 C 579.87385,141.06919 499.18598,107.64665 415,107.64665 c -84.18598,0 -164.87385,33.42254 -224.40233,92.95102 C 131.06919,260.12615 97.646648,340.81402 97.646648,425 c 0,84.18598 33.422542,164.87385 92.951022,224.40233 59.52848,59.52848 140.21635,92.95102 224.40233,92.95102 z m -0.73573,-23.72201 A 48.828408,48.828408 0 0 1 366.17598,669.11732 V 425 A 48.828408,48.828408 0 0 1 415,376.17598 h 122.05866 a 48.828408,48.828408 0 1 1 0,97.64804 h -73.23464 v 195.2933 a 48.828408,48.828408 0 0 1 -49.55975,49.51402 z"
         id="glyph222" />
      <glyph
         glyph-name="toki"
         unicode="toki"
         horiz-adv-x="850"
         d="m 353.3456,839.99448 a 48.787537,48.787537 0 0 1 -48.04811,-49.47246 v -85.3693 a 48.787537,48.787537 0 1 1 97.5649,0 v 85.3693 a 48.787537,48.787537 0 0 1 -49.51679,49.47246 z m 306.28004,-36.71016 a 48.787537,48.787537 0 0 1 -40.34999,-20.99386 l -60.97807,-85.37067 a 48.787537,48.787537 0 1 1 79.39203,-56.70781 l 60.97806,85.3693 a 48.787537,48.787537 0 0 1 -39.04203,77.70304 z M 47.065565,803.25382 A 48.787537,48.787537 0 0 1 9.4922165,725.58126 l 60.9780655,-85.3693 a 48.787537,48.787537 0 1 1 79.392028,56.70783 L 88.884248,782.29046 A 48.787537,48.787537 0 0 1 47.065565,803.25384 Z M 354.07994,644.17466 c -174.54464,0 -317.087326,-142.54268 -317.087326,-317.08733 0,-84.07803 33.421292,-164.76175 92.873436,-224.2139 C 189.31819,43.42128 270.00191,10 354.07994,10 c 84.07803,0 164.76175,33.42128 224.2139,92.87343 59.45214,59.45215 92.87344,140.13587 92.87344,224.2139 0,84.07803 -33.4213,164.76175 -92.87344,224.21389 -59.45215,59.45215 -140.13587,92.87344 -224.2139,92.87344 z m 0,-97.56491 c 58.23959,0 114.04436,-23.11485 155.22597,-64.29645 41.18161,-41.18161 64.29646,-96.98638 64.29646,-155.22597 0,-58.23959 -23.11485,-114.04436 -64.29646,-155.22596 -41.18161,-41.18161 -96.98638,-64.29646 -155.22597,-64.29646 -58.23958,0 -114.04435,23.11485 -155.22596,64.29646 -41.1816,41.1816 -64.29646,96.98637 -64.29646,155.22596 0,121.81644 97.70598,219.52242 219.52242,219.52242 z"
         id="glyph224" />
      <glyph
         glyph-name="tomo"
         unicode="tomo"
         horiz-adv-x="850"
         d="M 414.28228,839.99307 A 48.828413,48.828413 0 0 1 380.47624,825.69974 L 14.300262,459.52376 A 48.828413,48.828413 0 0 1 0,425 V 58.82402 A 48.828413,48.828413 0 0 1 48.824019,10 H 781.17599 A 48.828413,48.828413 0 0 1 830,58.82402 V 425 a 48.828413,48.828413 0 0 1 -14.30026,34.52376 L 449.52376,825.69974 a 48.828413,48.828413 0 0 1 -35.24148,14.29333 z M 415,722.12986 732.35334,404.77651 V 107.64665 H 97.646648 v 297.12986 z"
         id="glyph226" />
      <glyph
         glyph-name="tu"
         unicode="tu"
         horiz-adv-x="850"
         d="M 248.01058,839.99446 A 48.745596,48.745596 0 0 1 200.00516,790.56473 V 59.45465 a 48.745596,48.745596 0 1 1 97.48087,0 v 731.11008 a 48.745596,48.745596 0 0 1 -49.47545,49.42973 z m 365.55642,0 A 48.745596,48.745596 0 0 1 565.56019,790.56473 V 59.45465 a 48.745596,48.745596 0 1 1 97.48088,0 V 790.56473 A 48.745596,48.745596 0 0 1 613.567,839.99446 Z"
         id="glyph228" />
      <glyph
         glyph-name="unpa"
         unicode="unpa"
         horiz-adv-x="850"
         d="M 170.88268,840 C 77.085257,840 0,762.91474 0,669.11732 0,601.98496 13.045826,549.39511 39.101612,508.45031 65.157398,467.5055 101.99278,441.32489 139.54292,420.46371 175.52695,400.47258 213.11617,383.8739 251.70598,362.89825 246.4376,289.55726 252.35302,219.33924 268.78427,160.18671 279.59315,121.27475 294.76445,86.79112 317.89371,59.03601 341.02297,31.28089 375.83946,10 415,10 c 39.16054,0 73.97703,21.28089 97.10629,49.03601 23.12926,27.75511 38.30056,62.23874 49.10944,101.1507 16.43125,59.15253 22.34667,129.37055 17.07829,202.71154 38.58981,20.97565 76.17903,37.57433 112.16306,57.56546 37.55011,20.86118 74.38551,47.04179 100.44134,87.9866 C 816.95417,549.39511 830,601.98496 830,669.11732 830,762.91474 752.91478,840 659.11732,840 559.83196,840 477.22958,803.23078 415,746.99494 352.77042,803.23078 270.16804,840 170.88268,840 Z m 0,-97.64665 c 77.41873,0 134.776,-25.94283 180.52749,-69.1154 -42.26171,-62.09526 -69.49585,-134.2943 -85.07971,-207.28524 -30.09251,15.17924 -57.26402,27.59188 -79.3657,39.87059 -31.10796,17.2822 -51.48772,33.05891 -65.48249,55.05068 -13.99477,21.99178 -23.835622,53.31687 -23.835622,108.24334 0,41.02503 32.211002,73.23603 73.236032,73.23603 z m 488.23464,0 c 41.02503,0 73.23602,-32.211 73.23602,-73.23603 0,-54.92647 -9.84082,-86.25156 -23.83561,-108.24334 -13.99477,-21.99177 -34.37453,-37.76848 -65.48249,-55.05068 -22.10168,-12.27871 -49.27319,-24.69135 -79.3657,-39.87059 -15.58386,72.99094 -42.818,145.18998 -85.07971,207.28524 45.75149,43.17257 103.10875,69.1154 180.52749,69.1154 z M 415,590.2906 c 28.7622,-51.42914 48.42865,-112.03681 58.64203,-173.31709 0.14704,-0.88227 0.26286,-1.76532 0.40596,-2.64779 C 454.69798,401.32023 434.90866,386.48147 415,369.38817 c -19.90866,17.0933 -39.69798,31.93206 -59.04799,44.93755 0.1431,0.88247 0.25892,1.76552 0.40596,2.64779 C 366.57135,478.25379 386.2378,538.86146 415,590.2906 Z M 347.96985,298.25957 c 10.79697,-9.10065 21.63443,-18.97001 32.50639,-29.84199 a 48.828413,48.828413 0 0 1 69.04752,0 c 10.87196,10.87198 21.70942,20.74134 32.50639,29.84199 -0.984,-41.97791 -6.21089,-80.65707 -14.90021,-111.93861 -8.26281,-29.74612 -19.79253,-52.47765 -30.03873,-64.77308 C 426.84502,109.25244 421.61152,107.64665 415,107.64665 c -6.61152,0 -11.84502,1.60579 -22.09121,13.90123 -10.2462,12.29543 -21.77592,35.02696 -30.03873,64.77308 -8.68932,31.28154 -13.91621,69.9607 -14.90021,111.93861 z"
         id="glyph230" />
      <glyph
         glyph-name="utala"
         unicode="utala"
         horiz-adv-x="850"
         d="M 782.53531,839.57257 A 48.774291,48.774291 0 0 1 744.80712,823.26145 L 414.98758,463.4578 85.168041,823.26145 A 48.774291,48.774291 0 1 1 13.265783,757.35185 L 348.82859,391.28397 130.23564,152.81894 95.483738,257.07326 A 48.774291,48.774291 0 1 1 2.9500934,226.22871 L 63.911756,43.34372 A 48.774291,48.774291 0 0 1 146.1297,25.81051 L 414.98758,319.11013 683.84546,25.81051 a 48.774291,48.774291 0 0 1 82.21795,17.53321 l 60.96164,182.88499 a 48.774291,48.774291 0 1 1 -92.53361,30.84455 L 699.73953,152.81894 481.14658,391.28397 816.70937,757.35185 a 48.774291,48.774291 0 0 1 -34.17406,82.22072 z"
         id="glyph234" />
      <glyph
         glyph-name="uta"
         unicode="uta"
         horiz-adv-x="850"
         d="M 48.824255,840.00032 A 48.828438,48.828438 0 0 1 2.1601352e-4,791.02664 C 0.38058317,667.37907 42.28742,548.72438 118.83198,459.75254 c 76.54455,-88.97183 182.66232,-140.7484 294.20784,-140.7484 111.54552,0 217.93263,51.71345 295.18605,140.55304 77.25345,88.83959 120.2452,207.37256 121.77048,331.01777 a 48.828438,48.828438 0 0 1 -48.81984,49.42537 z M 100.59397,742.35363 H 728.90245 C 718.57909,659.2029 685.24368,581.93897 634.54089,523.63198 573.9058,453.90306 494.59387,416.65222 413.03982,416.65222 c -81.55404,0 -160.30915,37.18773 -220.1848,106.7844 -50.15619,58.29923 -82.77797,135.63056 -92.26105,218.91701 z M 415.00037,229.7054 c -60.09183,0 -109.85339,-49.76017 -109.85339,-109.85201 C 305.14698,59.76156 354.90854,10 415.00037,10 c 60.09184,0 109.8534,49.76156 109.8534,109.85339 0,60.09184 -49.76156,109.85201 -109.8534,109.85201 z m 0,-97.64669 c 7.31942,0 12.20532,-4.8859 12.20532,-12.20532 0,-7.31942 -4.8859,-12.2067 -12.20532,-12.2067 -7.31941,0 -12.20531,4.88728 -12.20531,12.2067 0,7.31942 4.8859,12.20532 12.20531,12.20532 z"
         id="glyph232" />
      <glyph
         glyph-name="walo"
         unicode="walo"
         horiz-adv-x="850"
         d="m 415.33952,838.83634 a 48.760348,48.760348 0 0 1 -43.9478,-26.94428 L 210.94403,490.99667 72.277621,564.95246 A 48.760348,48.760348 0 1 1 26.389893,478.91228 L 167.32048,403.74957 5.7254529,80.55952 A 48.760348,48.760348 0 0 1 49.333761,10 H 780.66631 a 48.760348,48.760348 0 0 1 43.60831,70.55952 l -161.59504,323.19005 140.93057,75.16271 a 48.760348,48.760348 0 1 1 -45.88774,86.04018 L 619.05603,490.99667 458.60834,811.89206 a 48.760348,48.760348 0 0 1 -43.26882,26.94428 z M 415.00003,681.06714 550.6152,409.8368 a 48.760348,48.760348 0 0 1 7.17082,-14.34164 L 701.77754,107.51073 H 128.22252 l 144.04279,288.08696 a 48.760348,48.760348 0 0 1 7.04334,14.08669 z"
         id="glyph236" />
      <glyph
         glyph-name="wan"
         unicode="wan"
         horiz-adv-x="850"
         d="m 563.72233,839.97884 a 48.788261,48.788261 0 0 1 -33.0539,-14.26017 L 164.79349,459.84234 a 48.788261,48.788261 0 1 1 68.98977,-68.98977 L 516.38055,673.44985 V 59.47251 a 48.788261,48.788261 0 1 1 97.56692,0 v 731.75127 a 48.788261,48.788261 0 0 1 -50.22514,48.75506 z"
         id="glyph238" />
      <glyph
         glyph-name="waso"
         unicode="waso"
         horiz-adv-x="850"
         d="M 51.214367,839.94626 A 48.760916,48.760916 0 0 1 16.821689,754.53819 L 531.83201,291.02821 H 49.438061 A 48.760916,48.760916 0 0 1 0.68115838,242.27269 V 59.4381 a 48.760916,48.760916 0 1 1 97.51242662,0 V 193.51717 H 658.88761 a 48.760916,48.760916 0 0 1 32.61638,84.99517 L 82.053048,827.01887 A 48.760916,48.760916 0 0 1 51.214367,839.94626 Z M 49.438061,473.86418 a 48.760916,48.760916 0 1 1 0,-97.51242 h 24.377758 a 48.760916,48.760916 0 1 1 0,97.51242 z m 182.834589,0 a 48.760916,48.760916 0 1 1 0,-97.51242 h 24.37776 a 48.760916,48.760916 0 1 1 0,97.51242 z"
         id="glyph240" />
      <glyph
         glyph-name="wawa"
         unicode="wawa"
         horiz-adv-x="850"
         d="m 781.74491,840.50297 a 48.817589,48.817589 0 0 1 -49.07139,-43.3373 L 647.25081,125.99131 a 48.817589,48.817589 0 1 1 96.84522,-12.32505 l 85.42127,671.17436 a 48.817589,48.817589 0 0 1 -47.77239,55.66235 z M 46.78534,840.4628 A 48.817589,48.817589 0 0 1 0.48253629,784.84065 L 85.905229,113.66626 a 48.817589,48.817589 0 1 1 96.843811,12.32505 L 97.326351,797.16567 A 48.817589,48.817589 0 0 1 46.78534,840.46277 Z M 415.00062,473.72125 C 287.52585,473.72125 183.14,369.33541 183.14,241.86064 183.14,114.38584 287.52585,10 415.00062,10 c 127.47477,0 231.85922,104.38584 231.85922,231.86061 0,127.47477 -104.38445,231.86061 -231.85922,231.86061 z m 0,-97.62573 c 74.71409,0 134.23487,-59.5208 134.23487,-134.23488 0,-74.71408 -59.52078,-134.23487 -134.23487,-134.23487 -74.71408,0 -134.23487,59.52079 -134.23487,134.23487 0,74.71408 59.52079,134.23488 134.23487,134.23488 z"
         id="glyph242" />
      <glyph
         glyph-name="weka"
         unicode="weka"
         horiz-adv-x="850"
         d="M 48.748517,839.96751 A 48.770316,48.770316 0 0 1 14.776305,756.22649 L 258.60334,512.39945 a 48.770316,48.770316 0 1 1 68.96556,68.96556 L 83.741869,825.19205 a 48.770316,48.770316 0 0 1 -34.993352,14.77546 z m 731.033573,-0.0208 A 48.770316,48.770316 0 0 1 746.25742,825.19204 L 502.43037,581.36501 a 48.770316,48.770316 0 1 1 68.96556,-68.96556 l 243.82706,243.82704 a 48.770316,48.770316 0 0 1 -35.4409,83.72023 z M 536.40258,352.31345 A 48.770316,48.770316 0 0 1 502.43037,268.57242 L 746.25742,24.74539 a 48.770316,48.770316 0 1 1 68.96557,68.96556 L 571.39593,337.53799 a 48.770316,48.770316 0 0 1 -34.99335,14.77546 z m -244.27595,-0.0221 A 48.770316,48.770316 0 0 1 258.60334,337.53806 L 14.776305,93.71099 A 48.770316,48.770316 0 1 1 83.741869,24.74542 l 243.827031,243.827 a 48.770316,48.770316 0 0 1 -35.44227,83.71886 z"
         id="glyph244" />
      <glyph
         glyph-name="wile"
         unicode="wile"
         horiz-adv-x="850"
         d="m 227.42722,829.63474 c -54.08352,0 -101.95741,-26.59919 -134.852534,-64.48315 C 59.67957,727.26764 38.359828,678.97259 23.836267,625.71951 -5.2108644,519.21337 -6.7983665,391.07518 14.117545,278.12924 35.033464,165.18331 73.776934,61.27447 163.21909,21.68532 207.94017,1.89075 263.30622,7.50452 312.02509,36.55141 346.86076,57.32094 380.5705,88.75653 415,131.94071 449.4295,88.75653 483.13925,57.32094 517.97492,36.55141 566.69379,7.50451 622.05984,1.89075 666.78091,21.68532 c 89.44217,39.58915 128.18563,143.49799 149.10158,256.44392 20.91587,112.94594 19.32836,241.08413 -9.71876,347.59027 -14.52353,53.25308 -35.84327,101.54813 -68.73843,139.43208 -32.89508,37.88396 -80.769,64.48315 -134.85252,64.48315 a 50.024438,50.024438 0 1 1 0,-100.03863 c 24.07186,0 40.67668,-8.5693 59.31526,-30.03458 18.63857,-21.46528 35.90782,-56.70032 47.7617,-100.16452 23.7077,-86.9284 26.02784,-204.97862 7.86609,-303.05218 -18.16177,-98.07356 -61.48092,-170.01496 -91.2257,-183.18068 -14.8724,-6.58287 -28.3812,-7.79991 -57.08499,9.31371 -28.70379,17.11362 -68.1837,55.55987 -112.58691,122.1647 a 50.024438,50.024438 0 0 1 -83.23645,0 c -44.40322,-66.60483 -83.88312,-105.05108 -112.58691,-122.1647 -28.70379,-17.11362 -42.2126,-15.89658 -57.08499,-9.31371 -29.74479,13.16572 -73.06393,85.10712 -91.22571,183.18068 -18.161766,98.07356 -15.841639,216.12378 7.86611,303.05218 11.85387,43.4642 29.12311,78.69924 47.76169,100.16452 18.63858,21.46528 35.2434,30.03458 59.31525,30.03458 a 50.024438,50.024438 0 1 1 0,100.03863 z"
         id="glyph246" />
      <glyph
         glyph-name="space.space"
         unicode=" "
         horiz-adv-x="447"
         id="glyph248"
         d="M 0,34.1 H 200 V 34 H 0 Z" />
      <glyph
         glyph-name="nonmarkingreturn"
         horiz-adv-x="333"
         id="glyph538" />
      <glyph
         glyph-name="space"
         unicode=" "
         horiz-adv-x="4"
         id="glyph540" />
      <glyph
         glyph-name="exclam"
         unicode="!"
         horiz-adv-x="305"
         d="M184 155h-29q-31 201 -31 285v167h92v-167q0 -75 -32 -285zM111 53q0 25 18 43t43 18t43 -18t18 -43t-18 -43t-43 -18t-43 18t-18 43z"
         id="glyph542" />
      <glyph
         glyph-name="quotedbl"
         unicode="&quot;"
         horiz-adv-x="270"
         d="M104 597l-11 -155h-54l-10 155h75zM238 597l-11 -155h-54l-9 155h74z"
         id="glyph544" />
      <glyph
         glyph-name="numbersign"
         unicode="#"
         horiz-adv-x="436"
         d="M442 385h-84l-41 -160h66v-52h-79l-51 -181h-51l50 181h-121l-50 -181h-53l50 181h-63v52h77l40 160h-70v52h83l42 168h53l-42 -168h121l42 168h52l-42 -168h71v-52zM306 385h-121l-40 -160h121z"
         id="glyph546" />
      <glyph
         glyph-name="dollar"
         unicode="$"
         horiz-adv-x="436"
         d="M391 144q0 -61 -42.5 -100.5t-105.5 -49.5v-94h-57v90q-32 2 -70 14q-46 15 -59 23l29 75q20 -14 55 -26.5t63 -12.5q45 0 75.5 25t30.5 67q0 51 -32 76q-15 14 -65 37l-48 22q-55 26 -82.5 62.5t-27.5 99.5q0 59 37.5 100t93.5 51v65h57v-62q86 -3 118 -32l-24 -71 q-17 12 -51 23t-60 11q-40 0 -64.5 -22.5t-24.5 -61.5q0 -47 33 -73q16 -13 61 -35l38 -18q64 -30 93 -73q29 -41 29 -110z"
         id="glyph548" />
      <glyph
         glyph-name="percent"
         unicode="%"
         horiz-adv-x="500"
         d="M448 607l-359 -615h-52l359 615h52zM251 465q0 -60 -30 -99t-83 -39q-113 0 -113 146q0 57 32 95.5t85 38.5q51 0 80 -37t29 -105zM76 469q0 -47 15.5 -73.5t42.5 -26.5q66 0 66 99q0 97 -60 97q-29 0 -46.5 -26t-17.5 -70zM471 130q0 -60 -30 -99t-83 -39 q-113 0 -113 146q0 57 31.5 95t84.5 38q51 0 80.5 -37t29.5 -104zM296 133q0 -47 15.5 -73.5t42.5 -26.5q66 0 66 100q0 97 -60 97q-29 0 -46.5 -26.5t-17.5 -70.5z"
         id="glyph550" />
      <glyph
         glyph-name="ampersand"
         unicode="&amp;"
         horiz-adv-x="588"
         d="M419 158q0 -53 13.5 -75t53.5 -22q22 0 52 15l11 -72q-42 -12 -98 -12q-36 0 -73 29q-60 -29 -142 -29q-87 0 -132.5 50.5t-45.5 141.5q0 54 15 86.5t50 67.5q-57 57 -57 118q0 62 47 106q47 45 126 45q83 0 129 -37l-34 -63q-46 39 -83 39q-108 0 -108 -98q0 -54 47 -90 h152v75l77 30v-106h101v-65h-101v-134zM342 128v164h-164q-39 -50 -39 -104q0 -127 124 -127q55 0 83 20q-4 17 -4 47z"
         id="glyph552" />
      <glyph
         glyph-name="quotesingle"
         unicode="'"
         horiz-adv-x="133"
         d="M104 597l-11 -155h-54l-10 155h75z"
         id="glyph554" />
      <glyph
         glyph-name="parenleft"
         unicode="("
         horiz-adv-x="305"
         d="M251 -174q-80 56 -126 162.5t-46 238.5q0 115 51 224q53 114 121 149v-34q-80 -116 -80 -339q0 -266 80 -358v-43z"
         id="glyph556" />
      <glyph
         glyph-name="parenright"
         unicode=")"
         horiz-adv-x="305"
         d="M79 -174v43q80 92 80 358q0 223 -80 339v34q68 -35 121 -149q51 -109 51 -224q0 -132 -46.5 -238.5t-125.5 -162.5z"
         id="glyph558" />
      <glyph
         glyph-name="asterisk"
         unicode="*"
         horiz-adv-x="305"
         d="M278 470l-35 -11l-71 -2l65 -42l19 -26l-50 -42l-22 29l-33 64l-37 -66l-18 -26l-53 41l20 28l65 34l-72 11l-36 13l29 61l39 -15l51 -38l-26 83v32h72v-31l-25 -86l65 44l30 11z"
         id="glyph560" />
      <glyph
         glyph-name="plus"
         unicode="+"
         horiz-adv-x="436"
         d="M249 427v-140h142v-57h-142v-140h-58v140h-141v57h141v140h58z"
         id="glyph562" />
      <glyph
         glyph-name="comma"
         unicode=","
         horiz-adv-x="305"
         d="M152 113q23 0 40.5 -20.5t17.5 -44.5q0 -54 -23 -98t-96 -98l-21 30q70 57 70 97q0 18 -12 36q-35 17 -35 48q0 22 16.5 36t42.5 14z"
         id="glyph564" />
      <glyph
         glyph-name="hyphen"
         unicode="-"
         horiz-adv-x="305"
         d="M239 206h-174v71h174v-71z"
         id="glyph566" />
      <glyph
         glyph-name="period"
         unicode="."
         horiz-adv-x="305"
         d="M83 53q0 25 18 43t43 18t43 -18t18 -43t-18 -43t-43 -18t-43 18t-18 43z"
         id="glyph568" />
      <glyph
         glyph-name="slash"
         unicode="/"
         horiz-adv-x="436"
         d="M358 598l-216 -598h-65l216 598h65z"
         id="glyph570" />
      <glyph
         glyph-name="zero"
         unicode="0"
         horiz-adv-x="436"
         d="M412 303q0 -64 -10 -117t-31.5 -98t-60 -70.5t-91.5 -25.5q-95 0 -144 67t-49 257q0 78 20 142t66 106.5t113 42.5q93 0 140 -68t47 -236zM331 308q0 53 -3.5 88t-13.5 70.5t-33 53t-58 17.5q-116 0 -116 -228q0 -248 106 -248q61 0 89 55q29 56 29 192z"
         id="glyph572" />
      <glyph
         glyph-name="one"
         unicode="1"
         horiz-adv-x="436"
         d="M81 457q45 23 98.5 64.5t80.5 76.5h24v-598h-81v457l-122 -76v76z"
         id="glyph574" />
      <glyph
         glyph-name="two"
         unicode="2"
         horiz-adv-x="436"
         d="M176 607q83 0 133 -38.5t50 -113.5q0 -68 -64 -169l-134 -213h233v-73h-366v16l187 286q58 89 58 153q0 82 -93 82q-33 0 -62 -18t-42 -43l-52 44q14 40 55 63.5t97 23.5z"
         id="glyph576" />
      <glyph
         glyph-name="three"
         unicode="3"
         horiz-adv-x="436"
         d="M383 165q0 -85 -53.5 -129t-146.5 -44q-39 0 -78 14.5t-61 35.5l39 63q39 -44 101 -44q113 0 113 111q0 51 -33.5 82t-86.5 31h-7v66h4q103 0 103 91q0 95 -97 95q-53 0 -84 -35l-36 55q38 50 126 50q75 0 126 -40.5t51 -108.5q0 -47 -27.5 -86.5t-64.5 -52.5 q50 -16 81 -56t31 -98z"
         id="glyph578" />
      <glyph
         glyph-name="four"
         unicode="4"
         horiz-adv-x="436"
         d="M419 162h-60v-162h-77v162h-272v47l320 389h29v-373h60v-63zM282 225v211l-175 -211h175z"
         id="glyph580" />
      <glyph
         glyph-name="five"
         unicode="5"
         horiz-adv-x="436"
         d="M94 291l-27 19v288h296v-69h-219v-145q31 23 77 23q83 0 126.5 -49.5t43.5 -141.5q0 -224 -200 -224q-83 0 -138 46l31 68q56 -45 107 -45q115 0 115 143q0 134 -114 134q-54 0 -98 -47z"
         id="glyph582" />
      <glyph
         glyph-name="six"
         unicode="6"
         horiz-adv-x="436"
         d="M228 373q81 0 127.5 -52t46.5 -137q0 -89 -49 -141q-50 -53 -123 -53q-196 0 -196 260q0 108 77 221q76 113 162 136l40 -44q-37 -14 -104 -96q-68 -83 -75 -126q32 32 94 32zM319 180q0 53 -25.5 88.5t-70.5 35.5q-103 0 -103 -118q0 -127 104 -127q45 0 70 34.5 t25 86.5z"
         id="glyph584" />
      <glyph
         glyph-name="seven"
         unicode="7"
         horiz-adv-x="436"
         d="M174 0h-90q29 92 101.5 253t129.5 268h-281v77h387v-31l-53 -104q-52 -103 -109.5 -237t-84.5 -226z"
         id="glyph586" />
      <glyph
         glyph-name="eight"
         unicode="8"
         horiz-adv-x="436"
         d="M36 165q0 53 33 101t75 66q-35 18 -60.5 54t-25.5 77q0 67 45 105.5t116 38.5q74 0 117.5 -37.5t43.5 -106.5q0 -40 -26.5 -81t-58.5 -59q108 -60 108 -158q0 -83 -50 -128t-136 -45q-181 0 -181 173zM243 357q56 53 56 108q0 33 -22 52.5t-58 19.5q-80 0 -80 -73 q0 -55 104 -107zM217 61q46 0 75 29.5t29 74.5q0 33 -20 62q-19 29 -94 69q-89 -47 -89 -131q0 -45 27.5 -74.5t71.5 -29.5z"
         id="glyph588" />
      <glyph
         glyph-name="nine"
         unicode="9"
         horiz-adv-x="436"
         d="M204 223q-81 0 -127.5 52.5t-46.5 137.5q0 88 49 140q51 54 123 54q196 0 196 -260q0 -107 -77 -222q-77 -113 -162 -135l-39 43q35 13 103 96q69 83 75 126q-32 -32 -94 -32zM114 417q0 -53 25.5 -88.5t70.5 -35.5q103 0 103 117q0 127 -105 127q-45 0 -69.5 -34 t-24.5 -86z"
         id="glyph590" />
      <glyph
         glyph-name="colon"
         unicode=":"
         horiz-adv-x="305"
         d="M83 383q0 25 18 43t43 18t43 -18t18 -43t-18 -43.5t-43 -18.5t-43 18.5t-18 43.5zM83 53q0 25 18 43t43 18t43 -18t18 -43t-18 -43t-43 -18t-43 18t-18 43z"
         id="glyph592" />
      <glyph
         glyph-name="semicolon"
         unicode=";"
         horiz-adv-x="305"
         d="M83 383q0 25 18 43t43 18t43 -18t18 -43t-18 -43.5t-43 -18.5t-43 18.5t-18 43.5zM152 113q23 0 40.5 -20.5t17.5 -44.5q0 -54 -23 -98t-96 -98l-21 30q70 57 70 97q0 18 -12 36q-35 17 -35 48q0 22 16.5 36t42.5 14z"
         id="glyph594" />
      <glyph
         glyph-name="less"
         unicode="&lt;"
         horiz-adv-x="436"
         d="M362 154v-65l-301 145v50l301 144v-65l-233 -104z"
         id="glyph596" />
      <glyph
         glyph-name="equal"
         unicode="="
         horiz-adv-x="436"
         d="M50 356h341v-57h-341v57zM50 218h341v-57h-341v57z"
         id="glyph598" />
      <glyph
         glyph-name="greater"
         unicode="&gt;"
         horiz-adv-x="436"
         d="M362 284v-50l-301 -145v65l232 105l-232 104v65z"
         id="glyph600" />
      <glyph
         glyph-name="question"
         unicode="?"
         horiz-adv-x="358"
         d="M189 607q61 0 101.5 -35t40.5 -92q0 -62 -42 -107l-60 -63q-35 -42 -35 -98q0 -13 5 -37h-53q-14 40 -14 55q0 31 10 60q10 30 49 73q34 37 51 65q13 22 13 45q0 71 -86 71q-43 0 -73 -29l-29 58q42 34 122 34zM121 53q0 25 18 43t43 18t43 -18t18 -43t-18 -43t-43 -18 t-43 18t-18 43z"
         id="glyph602" />
      <glyph
         glyph-name="at"
         unicode="@"
         horiz-adv-x="641"
         d="M98 236q0 -108 62.5 -174.5t167.5 -66.5q94 0 150 52q15 -5 55 -23q-79 -79 -205 -79q-129 0 -208 80.5t-79 210.5q0 133 79 218t208 85q123 0 198 -74t75 -196q0 -68 -36 -117t-96 -49q-65 0 -94 29q-35 -32 -82 -32q-43 0 -70 23.5t-27 64.5q0 55 46 80t117 25 q-6 60 -48 60t-68 -23l-19 40q32 25 81 25q113 0 113 -130v-97q31 -22 50 -22q76 0 76 124q0 95 -61 157t-155 62q-104 0 -166 -71q-64 -73 -64 -182zM359 160v95h-21q-79 0 -79 -65q0 -22 15.5 -36t38.5 -14q26 0 46 20z"
         id="glyph604" />
      <glyph
         glyph-name="A"
         unicode="A"
         horiz-adv-x="491"
         d="M490 0h-90l-42 126h-221l-44 -126h-91l242 604h21zM335 186l-84 262l-93 -262h177z"
         id="glyph606" />
      <glyph
         glyph-name="B"
         unicode="B"
         horiz-adv-x="471"
         d="M439 172q0 -81 -59 -126.5t-149 -45.5h-170v596q90 5 157 5q89 0 137 -38.5t48 -108.5q0 -41 -31 -75t-69 -43q71 -17 103.5 -56.5t32.5 -107.5zM142 531v-171q25 -3 64 -3q115 0 115 94q0 83 -106 83q-40 0 -73 -3zM354 185q0 63 -36 88.5t-110 25.5l-66 -2v-228 q37 -4 65 -4q76 0 111.5 29t35.5 91z"
         id="glyph608" />
      <glyph
         glyph-name="C"
         unicode="C"
         horiz-adv-x="498"
         d="M284 -10q-119 0 -185 86t-66 220q0 135 71 222q72 88 185 88q98 0 152 -32l-27 -70q-40 29 -123 29t-128 -71t-45 -171q0 -95 46 -161.5t128 -66.5q84 0 129 59l45 -62q-70 -70 -182 -70z"
         id="glyph610" />
      <glyph
         glyph-name="D"
         unicode="D"
         horiz-adv-x="510"
         d="M208 600q124 0 197 -76t73 -202q0 -322 -297 -322h-120v596q101 4 147 4zM210 73q91 0 137 67t46 175q0 212 -190 212q-17 0 -61 -4v-446q24 -4 68 -4z"
         id="glyph612" />
      <glyph
         glyph-name="E"
         unicode="E"
         horiz-adv-x="446"
         d="M417 523h-275v-166h197v-69h-197v-215h271v-73h-352v596h356v-73z"
         id="glyph614" />
      <glyph
         glyph-name="F"
         unicode="F"
         horiz-adv-x="437"
         d="M429 523h-287v-166h210v-69h-210v-288h-81v596h368v-73z"
         id="glyph616" />
      <glyph
         glyph-name="G"
         unicode="G"
         horiz-adv-x="563"
         d="M299 -10q-126 0 -196 85t-70 221q0 138 78 224t211 86q95 0 152 -51l-34 -68q-61 46 -120 46q-95 0 -148.5 -67.5t-53.5 -172.5q0 -102 52.5 -166t145.5 -64q64 0 105 39v140h-83v69h164v-260q-31 -26 -89 -43.5t-114 -17.5z"
         id="glyph618" />
      <glyph
         glyph-name="H"
         unicode="H"
         horiz-adv-x="545"
         d="M484 0h-81v288h-261v-288h-81v596h81v-239h261v239h81v-596z"
         id="glyph620" />
      <glyph
         glyph-name="I"
         unicode="I"
         horiz-adv-x="231"
         d="M157 0h-82v596h82v-596z"
         id="glyph622" />
      <glyph
         glyph-name="J"
         unicode="J"
         horiz-adv-x="397"
         d="M20 119h71q10 -54 65 -54q53 0 76 23q23 25 23 131v377h81v-373q0 -123 -39 -177t-141 -54q-59 0 -95.5 35t-40.5 92z"
         id="glyph624" />
      <glyph
         glyph-name="K"
         unicode="K"
         horiz-adv-x="479"
         d="M480 0h-90l-168 274l-80 -112v-162h-81v596h81v-324l222 324h90l-178 -258z"
         id="glyph626" />
      <glyph
         glyph-name="L"
         unicode="L"
         horiz-adv-x="421"
         d="M412 0h-351v596h81v-523h270v-73z"
         id="glyph628" />
      <glyph
         glyph-name="M"
         unicode="M"
         horiz-adv-x="591"
         d="M587 0h-77l-71 383l-130 -391h-21l-133 391l-70 -383h-77l112 596h37l142 -435l131 435h36z"
         id="glyph630" />
      <glyph
         glyph-name="N"
         unicode="N"
         horiz-adv-x="531"
         d="M471 -8h-25l-308 436v-428h-77v596h33l299 -412v412h78v-604z"
         id="glyph632" />
      <glyph
         glyph-name="O"
         unicode="O"
         horiz-adv-x="561"
         d="M529 303q0 -143 -64.5 -228t-191.5 -85q-113 0 -177 88q-63 88 -63 225q0 131 64 217q66 87 176 87q127 0 191.5 -82t64.5 -222zM273 533q-80 0 -117.5 -64.5t-37.5 -165.5q0 -63 15 -115t51.5 -88.5t88.5 -36.5q88 0 129 66t41 174q0 230 -170 230z"
         id="glyph634" />
      <glyph
         glyph-name="P"
         unicode="P"
         horiz-adv-x="464"
         d="M142 229v-229h-81v596q81 4 111 4q260 0 260 -174q0 -201 -229 -201q-20 0 -61 4zM142 523v-220q47 -4 55 -4q151 0 151 119q0 109 -161 109q-20 0 -45 -4z"
         id="glyph636" />
      <glyph
         glyph-name="Q"
         unicode="Q"
         horiz-adv-x="563"
         d="M273 607q127 0 191.5 -82t64.5 -222q0 -205 -123 -282q44 -65 149 -65h63l-12 -79q-213 0 -279 118q-11 -5 -54 -5q-113 0 -177 88q-63 88 -63 225q0 130 64 216q65 88 176 88zM273 63q88 0 129 66t41 174q0 230 -170 230q-80 0 -117.5 -64.5t-37.5 -165.5q0 -63 15 -115 t51.5 -88.5t88.5 -36.5z"
         id="glyph638" />
      <glyph
         glyph-name="R"
         unicode="R"
         horiz-adv-x="484"
         d="M429 431q0 -55 -35 -100.5t-82 -56.5l173 -274h-93l-159 256q-35 0 -87 4v-260h-81v596q6 0 74 3t75 3q215 0 215 -171zM203 325q73 0 106.5 23t33.5 85q0 50 -35.5 72t-113.5 22q-16 0 -48 -4v-194q27 -4 57 -4z"
         id="glyph640" />
      <glyph
         glyph-name="S"
         unicode="S"
         horiz-adv-x="400"
         d="M203 537q-40 0 -64.5 -22.5t-24.5 -61.5q0 -46 32 -73q11 -10 63 -35l49 -24q61 -28 85 -69q25 -38 25 -101q0 -67 -54 -114q-55 -47 -144 -47q-81 0 -136 37l30 75q21 -15 54.5 -27t62.5 -12q45 0 75.5 25t30.5 67q0 31 -16 56q-18 28 -81 57l-48 22q-55 26 -82 62.5 t-27 99.5q0 68 48 111t120 43q99 0 137 -32l-24 -71q-17 12 -51 23t-60 11z"
         id="glyph642" />
      <glyph
         glyph-name="T"
         unicode="T"
         horiz-adv-x="483"
         d="M476 523h-198v-523h-81v523h-190v73h469v-73z"
         id="glyph644" />
      <glyph
         glyph-name="U"
         unicode="U"
         horiz-adv-x="540"
         d="M479 181q0 -91 -57 -141t-153 -50q-100 0 -154 49.5t-54 142.5v414h81v-408q0 -55 35.5 -90t91.5 -35q59 0 94 34t35 93v406h81v-415z"
         id="glyph646" />
      <glyph
         glyph-name="V"
         unicode="V"
         horiz-adv-x="489"
         d="M484 596l-215 -604h-42l-222 604h91l153 -439l148 439h87z"
         id="glyph648" />
      <glyph
         glyph-name="W"
         unicode="W"
         horiz-adv-x="709"
         d="M705 596l-186 -604h-26l-141 411l-133 -411h-26l-188 604h85l120 -416l131 416h28l129 -415l122 415h85z"
         id="glyph650" />
      <glyph
         glyph-name="X"
         unicode="X"
         horiz-adv-x="463"
         d="M459 0h-87l-148 239l-137 -239h-82l176 309l-161 287h80l127 -225l140 225h82l-185 -288z"
         id="glyph652" />
      <glyph
         glyph-name="Y"
         unicode="Y"
         horiz-adv-x="475"
         d="M470 596l-191 -329v-267h-82v267l-192 329h84l149 -260l148 260h84z"
         id="glyph654" />
      <glyph
         glyph-name="Z"
         unicode="Z"
         horiz-adv-x="458"
         d="M418 0h-377v20l256 503h-252v73h364v-20l-257 -503h266v-73z"
         id="glyph656" />
      <glyph
         glyph-name="bracketleft"
         unicode="["
         horiz-adv-x="366"
         d="m 213.84646,1040.1583 c -57.92168,0 -109.87866,-21.8293 -151.447854,-63.39841 C 21.432559,935.79383 0,884.14142 0,826.31183 V 71.25087 C 0,13.4213 21.432559,-38.2303 62.398606,-79.1963 c 41.011974,-41.012 93.015954,-62.3986 151.447854,-62.3986 h 167.84012 v 21.8213 71.8284 H 213.84646 c -34.16037,0 -61.192,11.2227 -85.58294,35.6136 -23.69881,23.6988 -34.613777,50.05271 -34.613777,83.58247 v 755.06096 c 0,33.52975 10.914967,59.88365 34.613777,83.58246 24.39094,24.39095 51.42257,35.61448 85.58294,35.61448 h 167.84012 v 94.64953 z"
         id="glyph658" />
      <glyph
         glyph-name="backslash"
         unicode="\"
         horiz-adv-x="296"
         d="M266 0h-58l-209 598h58z"
         id="glyph660" />
      <glyph
         glyph-name="bracketright"
         unicode="]"
         horiz-adv-x="320"
         d="m 167.84012,1040.1583 c 57.92168,0 109.87867,-21.8293 151.44786,-63.39841 40.96604,-40.96606 62.3986,-92.61847 62.3986,-150.44806 V 71.25087 c 0,-57.82957 -21.43256,-109.48117 -62.3986,-150.44717 -41.01198,-41.012 -93.01595,-62.3986 -151.44786,-62.3986 H 0 v 21.8213 71.8284 h 167.84012 c 34.16037,0 61.192,11.2227 85.58294,35.6136 23.69881,23.6988 34.61378,50.05271 34.61378,83.58247 v 755.06096 c 0,33.52975 -10.91497,59.88365 -34.61378,83.58246 -24.39094,24.39095 -51.42257,35.61448 -85.58294,35.61448 H 0 v 94.64953 z"
         id="glyph662" />
      <glyph
         glyph-name="asciicircum"
         unicode="^"
         horiz-adv-x="436"
         d="M362 369h-52l-99 182l-101 -184h-49l129 231h44z"
         id="glyph664" />
      <glyph
         glyph-name="underscore"
         unicode="_"
         horiz-adv-x="4"
         d="M -100,1040.4063 V 945.28125 H 947.95117 c 0,31.70833 0,63.41665 0,95.12505 z m 0,-1088.0958 V -141.627 H 947.95117 c 0,31.3125 0,62.625 0,93.9375 z"
         id="glyph666" />
      <glyph
         glyph-name="grave"
         unicode="`"
         horiz-adv-x="436"
         d="M284 523h-57l-92 135h81z"
         id="glyph668" />
      <glyph
         glyph-name="a"
         unicode="a"
         horiz-adv-x="437"
         d="M405 -8q-46 0 -69.5 13t-34.5 45q-46 -58 -142 -58q-52 0 -89 38t-37 92q0 67 57 112t148 45q26 0 56 -10q0 106 -95 106q-72 0 -111 -39l-33 64q21 17 60.5 30.5t74.5 13.5q95 0 138 -43t43 -137v-157q0 -57 34 -76v-39zM242 222q-54 0 -93 -28t-39 -73q0 -68 80 -68 q59 0 104 56v105q-38 8 -52 8z"
         id="glyph670" />
      <glyph
         glyph-name="b"
         unicode="b"
         horiz-adv-x="464"
         d="M227 -8q-30 0 -60.5 11.5t-45.5 27.5l-27 -39h-39v622h77v-210q11 16 42.5 28t58.5 12q89 0 145 -62.5t56 -155.5q0 -106 -54.5 -170t-152.5 -64zM205 379q-14 0 -40 -12.5t-33 -21.5v-252q0 -6 29 -21t44 -15q81 0 114 39t33 126q0 72 -39 114.5t-108 42.5z"
         id="glyph672" />
      <glyph
         glyph-name="c"
         unicode="c"
         horiz-adv-x="412"
         d="M26 214q0 105 61 167.5t165 62.5q31 0 72 -14.5t60 -29.5l-39 -54q-12 12 -43.5 22.5t-56.5 10.5q-65 0 -101 -46t-36 -119q0 -76 37.5 -116.5t105.5 -40.5q53 0 105 40l30 -65q-61 -40 -154 -40q-88 0 -147 60q-59 61 -59 162z"
         id="glyph674" />
      <glyph
         glyph-name="d"
         unicode="d"
         horiz-adv-x="464"
         d="M214 -8q-85 0 -134 60.5t-49 154.5q0 99 58 167q59 70 140 70q67 0 102 -32v202h77v-614h-77v33q-41 -41 -117 -41zM255 57q19 0 44 12t32 24v242q-30 44 -80 44q-63 0 -101 -47.5t-38 -117.5q0 -157 143 -157z"
         id="glyph676" />
      <glyph
         glyph-name="e"
         unicode="e"
         horiz-adv-x="454"
         d="M231 444q89 0 143 -50t54 -136q0 -27 -6 -48h-314q0 -69 36 -111t101 -42q66 0 111 39l32 -56q-22 -22 -66.5 -35t-91.5 -13q-82 0 -140 56q-64 61 -64 165q0 107 66 173q58 58 139 58zM351 266q0 51 -33 82t-84 31q-50 0 -84.5 -32.5t-39.5 -80.5h241z"
         id="glyph678" />
      <glyph
         glyph-name="f"
         unicode="f"
         horiz-adv-x="307"
         d="M90 436q0 79 39.5 128.5t110.5 49.5q33 0 72 -12l-22 -57q-26 8 -43 8q-37 0 -59.5 -27.5t-22.5 -66.5q0 -7 2 -23h89v-65h-89v-371h-77v371h-64v65h64z"
         id="glyph680" />
      <glyph
         glyph-name="g"
         unicode="g"
         horiz-adv-x="418"
         d="M394 -37q0 -64 -56.5 -99t-134.5 -35q-42 0 -89.5 15.5t-74.5 36.5l42 62q69 -46 124 -46q51 0 83 19q31 19 31 45q0 52 -77 52q-8 0 -49.5 -6.5t-50.5 -6.5q-93 0 -93 70q0 24 23 41t52 24q-91 43 -91 149q0 69 47.5 114.5t117.5 45.5q62 0 100 -27l39 47l50 -48 l-46 -35q30 -39 30 -101q0 -67 -42 -111t-107 -51l-64 -6q-11 -1 -31 -9q-19 -7 -19 -20q0 -16 40 -16q10 0 55.5 6t54.5 6q64 0 100 -30.5t36 -85.5zM290 284q0 40 -25 69t-62 29q-40 0 -65.5 -28.5t-25.5 -69.5q0 -46 24.5 -75.5t66.5 -29.5t64.5 29.5t22.5 75.5z"
         id="glyph682" />
      <glyph
         glyph-name="h"
         unicode="h"
         horiz-adv-x="455"
         d="M253 444q70 0 109 -47t39 -123v-274h-78v274q0 49 -24 77t-67 28q-29 0 -57.5 -17t-42.5 -38v-324h-77v614h77v-226q15 23 50 39.5t71 16.5z"
         id="glyph684" />
      <glyph
         glyph-name="i"
         unicode="i"
         horiz-adv-x="237"
         d="M135 505q-19 0 -33.5 14.5t-14.5 33.5t14 33t34 14t34 -14t14 -33t-14.5 -33.5t-33.5 -14.5zM170 0h-78v371h-59v65h137v-436z"
         id="glyph686" />
      <glyph
         glyph-name="j"
         unicode="j"
         horiz-adv-x="305"
         d="M222 553q0 -19 -14 -33.5t-34 -14.5q-19 0 -33 14t-14 34q0 19 13.5 33t33.5 14t34 -14t14 -33zM7 -171v69q78 0 109 25q30 24 30 79v369h-87v65h164v-432q0 -90 -53 -132.5t-163 -42.5z"
         id="glyph688" />
      <glyph
         glyph-name="k"
         unicode="k"
         horiz-adv-x="420"
         d="M420 0h-84l-136 218l-68 -70v-148h-77v614h77v-381l167 203h90l-139 -166z"
         id="glyph690" />
      <glyph
         glyph-name="l"
         unicode="l"
         horiz-adv-x="245"
         d="M61 123v491h77v-478q0 -35 20 -55t53 -20v-69q-150 0 -150 131z"
         id="glyph692" />
      <glyph
         glyph-name="m"
         unicode="m"
         horiz-adv-x="691"
         d="M374 386q13 24 48.5 41t72.5 17q67 0 104.5 -40.5t37.5 -112.5v-291h-78v276q0 103 -89 103q-27 0 -52 -17.5t-34 -39.5v-322h-77v310q0 32 -24 50.5t-64 18.5q-25 0 -51 -19t-36 -39v-321h-77v436h50l26 -51q45 59 112 59q94 0 131 -58z"
         id="glyph694" />
      <glyph
         glyph-name="n"
         unicode="n"
         horiz-adv-x="455"
         d="M232 379q-28 0 -57 -17t-43 -38v-324h-77v436h53l24 -56q39 64 125 64q143 0 143 -174v-270h-77v253q0 65 -19 95.5t-72 30.5z"
         id="glyph696" />
      <glyph
         glyph-name="o"
         unicode="o"
         horiz-adv-x="447"
         d="M224 -8q-94 0 -146 62.5t-52 164.5q0 98 53.5 161.5t144.5 63.5q95 0 146 -61t51 -164q0 -102 -51.5 -164.5t-145.5 -62.5zM224 381q-58 0 -87 -46t-29 -116q0 -164 116 -164q57 0 86 46.5t29 117.5q0 162 -115 162z"
         id="glyph698" />
      <glyph
         glyph-name="p"
         unicode="p"
         horiz-adv-x="464"
         d="M232 -8q-26 0 -58.5 9.5t-41.5 22.5v-195h-77v607h77v-36q44 44 106 44q97 0 146.5 -60.5t49.5 -166.5q0 -100 -52 -162q-52 -63 -150 -63zM210 379q-18 0 -42 -12.5t-36 -24.5v-254q7 -11 32 -21t45 -10q144 0 144 163q0 83 -34 121t-109 38z"
         id="glyph700" />
      <glyph
         glyph-name="q"
         unicode="q"
         horiz-adv-x="464"
         d="M221 -8q-92 0 -141 61.5t-49 163.5q0 105 57 165q59 62 150 62q56 0 106 -41l21 33h46v-607h-77v197q-34 -34 -113 -34zM112 217q0 -72 35 -116t100 -44q56 0 87 28v260q-34 34 -83 34q-66 0 -102.5 -45t-36.5 -117z"
         id="glyph702" />
      <glyph
         glyph-name="r"
         unicode="r"
         horiz-adv-x="323"
         d="M241 379q-43 0 -73 -40t-30 -89v-250h-77v436h77v-70q42 78 126 78q24 0 60 -7l-32 -76q-26 18 -51 18z"
         id="glyph704" />
      <glyph
         glyph-name="s"
         unicode="s"
         horiz-adv-x="337"
         d="M311 117q0 -61 -42.5 -93t-112.5 -32q-71 0 -130 34l28 73q65 -42 104 -42q71 0 71 60q0 43 -69 74q-55 25 -72 37q-59 42 -59 102q0 55 39.5 84.5t101.5 29.5q48 0 120 -30l-21 -72q-48 37 -93 37q-26 0 -45.5 -12.5t-19.5 -33.5q0 -43 47 -64l56 -25q51 -23 74 -52.5 t23 -74.5z"
         id="glyph706" />
      <glyph
         glyph-name="t"
         unicode="t"
         horiz-adv-x="330"
         d="M205 -8q-53 0 -87.5 39t-34.5 96v248h-51v61h51v91l77 30v-121h119v-61h-119v-217q0 -54 18 -77.5t60 -23.5q30 0 61 15l12 -68q-48 -12 -106 -12z"
         id="glyph708" />
      <glyph
         glyph-name="u"
         unicode="u"
         horiz-adv-x="455"
         d="M328 60q-12 -25 -52 -46.5t-77 -21.5q-72 0 -110 41t-38 117v286h77v-278q0 -101 88 -101q37 0 69.5 22t42.5 51v306h77v-436h-77v60z"
         id="glyph710" />
      <glyph
         glyph-name="v"
         unicode="v"
         horiz-adv-x="408"
         d="M403 437l-191 -445h-20l-187 445h85l115 -305l117 305h81z"
         id="glyph712" />
      <glyph
         glyph-name="w"
         unicode="w"
         horiz-adv-x="620"
         d="M614 437l-156 -445h-21l-127 296l-128 -296h-20l-156 445h83l93 -286l116 286h20l120 -286l100 286h76z"
         id="glyph714" />
      <glyph
         glyph-name="x"
         unicode="x"
         horiz-adv-x="417"
         d="M413 0h-93l-119 159l-106 -159h-90l158 223l-145 213h87l98 -150l109 150h85l-158 -213z"
         id="glyph716" />
      <glyph
         glyph-name="y"
         unicode="y"
         horiz-adv-x="410"
         d="M50 -102q44 0 81 21.5t37 56.5q0 37 -13 70q-4 11 -14.5 40.5t-17.5 46.5l-118 303h79l128 -337l115 337h79l-185 -510q-15 -42 -64 -69.5t-107 -27.5v69z"
         id="glyph718" />
      <glyph
         glyph-name="z"
         unicode="z"
         horiz-adv-x="395"
         d="M377 414l-239 -345h241v-69h-363v20l248 347h-244v69h357v-22z"
         id="glyph720" />
      <glyph
         glyph-name="braceleft"
         unicode="{"
         horiz-adv-x="305"
         d="M70 585q0 54 46.5 85.5t110.5 31.5h61v-54h-72q-66 0 -66 -75q0 -31 12 -68q13 -40 13 -66q0 -66 -91 -118q46 -20 67 -45q24 -28 24 -56q0 -29 -13 -74q-12 -41 -12 -76q0 -93 107 -93h31v-57h-57q-66 0 -113.5 32.5t-47.5 88.5q0 29 15 87t15 89q0 80 -85 86v35 q40 3 62.5 28t22.5 65q0 27 -15 78t-15 76z"
         id="glyph722" />
      <glyph
         glyph-name="bar"
         unicode="|"
         horiz-adv-x="436"
         d="M247 -83h-59v684h59v-684z"
         id="glyph724" />
      <glyph
         glyph-name="braceright"
         unicode="}"
         horiz-adv-x="305"
         d="M233 39q0 -56 -47.5 -88.5t-113.5 -32.5h-57v57h31q107 0 107 93q0 31 -13 76q-12 41 -12 74q0 28 24 56q21 25 67 45q-91 52 -91 118q0 29 12 66q13 40 13 68q0 75 -66 75h-72v54h61q63 0 110 -31.5t47 -85.5q0 -25 -15 -76t-15 -78q0 -40 22.5 -65t62.5 -28v-35 q-85 -6 -85 -86q0 -29 15 -88q15 -58 15 -88z"
         id="glyph726" />
      <glyph
         glyph-name="asciitilde"
         unicode="~"
         horiz-adv-x="436"
         d="M64 207q5 33 25.5 58.5t49.5 25.5q37 0 82 -16q46 -15 67 -15q34 0 44 31h36q-21 -84 -78 -84q-29 0 -83 16q-46 15 -62 15q-29 0 -44 -31h-37z"
         id="glyph728" />
      <glyph
         glyph-name="nbspace"
         unicode=""
         horiz-adv-x="251"
         id="glyph730" />
      <glyph
         glyph-name="exclamdown"
         unicode=""
         horiz-adv-x="305"
         d="M217 382q0 -25 -18 -43t-43 -18t-43 18t-18 43t18 43.5t43 18.5t43 -18.5t18 -43.5zM200 -4v-167h-92v167q0 83 31 284h29q32 -212 32 -284z"
         id="glyph732" />
      <glyph
         glyph-name="cent"
         unicode=""
         horiz-adv-x="436"
         d="M79 214q0 83 47 133.5t128 51.5l28 96h42l-29 -101q43 -10 69 -30l-32 -46q-16 16 -53 23l-68 -241q22 -8 47 -8q43 0 84 32l24 -55q-48 -32 -123 -32q-27 0 -49 6l-30 -105h-46l35 122q-74 44 -74 154zM237 342q-42 -7 -67.5 -42.5t-25.5 -85.5q0 -58 29 -88z"
         id="glyph734" />
      <glyph
         glyph-name="sterling"
         unicode=""
         horiz-adv-x="436"
         d="M90 408q0 89 43.5 144t122.5 55q83 0 119 -50l-38 -54q-26 35 -90 35q-75 0 -75 -126v-64h81v-60h-81v-215h90q63 0 96 46l57 -45q-42 -74 -181 -74h-180v57q36 12 36 52v179h-33v60h33v60z"
         id="glyph736" />
      <glyph
         glyph-name="currency"
         unicode=""
         horiz-adv-x="436"
         d="M414 136l-35 -36l-58 59q-50 -35 -103 -35t-103 35l-58 -59l-34 36l58 57q-33 53 -33 102t33 102l-58 57l34 36l58 -58q51 34 103 34t103 -34l58 58l35 -36l-58 -57q33 -52 33 -102q0 -49 -33 -102zM218 417q-50 0 -86 -36t-36 -86t35.5 -86t86.5 -36q50 0 85.5 36 t35.5 86t-35.5 86t-85.5 36z"
         id="glyph738" />
      <glyph
         glyph-name="yen"
         unicode=""
         horiz-adv-x="475"
         d="M379 247v-54h-103v-193h-82v193h-98v54h98v20l-178 329h84l135 -260l149 260h81l-189 -329v-20h103z"
         id="glyph740" />
      <glyph
         glyph-name="brokenbar"
         unicode=""
         horiz-adv-x="436"
         d="M251 282h-59v294h59v-294zM251 -112h-59v294h59v-294z"
         id="glyph742" />
      <glyph
         glyph-name="section"
         unicode=""
         horiz-adv-x="377"
         d="M346 131q0 -68 -44 -104t-119 -36q-90 0 -142 37l28 76q46 -41 110 -41q81 0 81 60q0 55 -93 74q-54 12 -89 42q-34 30 -34 62q0 55 39 80q-48 27 -48 99q0 56 48 91q47 35 111 35q27 0 64 -13t54 -27l-26 -75q-44 42 -90 42q-76 0 -76 -52q0 -17 12 -33q13 -15 76 -32 q63 -16 92 -45t29 -76q0 -39 -33 -74q50 -33 50 -90zM144 358q-26 -17 -26 -37q0 -17 14.5 -31t32.5 -21q29 -10 77 -20q8 16 8 39q0 36 -38 52q-13 6 -21 8t-20.5 4t-26.5 6z"
         id="glyph744" />
      <glyph
         glyph-name="dieresis"
         unicode=""
         horiz-adv-x="436"
         d="M123 524q-19 0 -32.5 13.5t-13.5 32.5q0 20 13.5 33t32.5 13t32 -13t13 -33t-13 -33t-32 -13zM361 570q0 -19 -13.5 -32.5t-32.5 -13.5t-32.5 13t-13.5 33t13.5 33t32.5 13t32.5 -13t13.5 -33z"
         id="glyph746" />
      <glyph
         glyph-name="copyright"
         unicode=""
         horiz-adv-x="593"
         d="M43 269q0 115 80 194q80 80 194 80q115 0 194 -80q81 -79 81 -194q0 -113 -81 -194q-79 -81 -194 -81q-113 0 -194 81q-80 80 -80 194zM547 269q0 95 -67 162t-163 67q-95 0 -162 -67q-68 -68 -68 -162q0 -95 68 -163q67 -67 162 -67q96 0 163 67t67 163zM225 267 q0 -54 26.5 -91.5t72.5 -37.5q47 0 73 33l25 -35q-40 -40 -103 -40q-68 0 -105 49t-37 125q0 73 39.5 124t105.5 51q58 0 86 -17l-15 -40q-22 16 -70 16q-47 0 -72.5 -40t-25.5 -97z"
         id="glyph748" />
      <glyph
         glyph-name="ordfeminine"
         unicode=""
         horiz-adv-x="305"
         d="M35 408q0 49 39.5 75t97.5 26h30q-1 51 -56 51q-45 0 -71 -25l-24 44q39 28 89 28q118 0 118 -109v-92q0 -31 21 -43v-27q-57 0 -70 31q-30 -32 -88 -32q-35 0 -60.5 20.5t-25.5 52.5zM173 471q-33 0 -58 -15t-25 -42q0 -15 14 -24.5t36 -9.5q38 0 63 28v63h-30z"
         id="glyph750" />
      <glyph
         glyph-name="guillemotleft"
         unicode=""
         horiz-adv-x="436"
         d="M197 121l-145 97v26l145 99v-51l-86 -64l86 -56v-51zM359 121l-144 97v26l144 99v-51l-86 -64l86 -56v-51z"
         id="glyph752" />
      <glyph
         glyph-name="logicalnot"
         unicode=""
         horiz-adv-x="436"
         d="M50 360h341v-197h-58v140h-283v57z"
         id="glyph754" />
      <glyph
         glyph-name="sfthyphen"
         unicode=""
         horiz-adv-x="305"
         d="M239 206h-174v71h174v-71z"
         id="glyph756" />
      <glyph
         glyph-name="registered"
         unicode=""
         horiz-adv-x="593"
         d="M43 269q0 115 80 194q80 80 194 80q115 0 194 -80q81 -79 81 -194q0 -113 -81 -194q-79 -81 -194 -81q-113 0 -194 81q-80 80 -80 194zM547 269q0 95 -67 162t-163 67q-95 0 -162 -67q-68 -68 -68 -162q0 -95 68 -163q67 -67 162 -67q96 0 163 67t67 163zM455 103h-52 l-86 146h-49v-146h-48v338h86q122 0 122 -93q0 -65 -65 -92zM300 287q45 0 62.5 11t17.5 47q0 55 -74 55h-38v-112h11q11 -1 21 -1z"
         id="glyph758" />
      <glyph
         glyph-name="overscore"
         unicode=""
         horiz-adv-x="436"
         d="M438 651h-441v52h441v-52z"
         id="glyph760" />
      <glyph
         glyph-name="degree"
         unicode=""
         horiz-adv-x="436"
         d="M293 522q0 -35 -25.5 -60.5t-60.5 -25.5q-36 0 -61.5 25.5t-25.5 60.5t26 60t61 25t60.5 -25t25.5 -60zM263 522q0 23 -16.5 39.5t-39.5 16.5t-40 -16.5t-17 -39.5t17 -40t40 -17t39.5 17t16.5 40z"
         id="glyph762" />
      <glyph
         glyph-name="plusminus"
         unicode=""
         horiz-adv-x="436"
         d="M249 427v-140h142v-57h-142v-140h-58v140h-141v57h141v140h58zM50 49h341v-57h-341v57z"
         id="glyph764" />
      <glyph
         glyph-name="twosuperior"
         unicode=""
         horiz-adv-x="375"
         d="M66 536q10 29 37.5 49.5t60.5 20.5q107 0 107 -91q0 -49 -38 -108l-74 -117h136v-48h-220v10l108 168q35 55 35 91q0 50 -52 50q-44 0 -69 -51z"
         id="glyph766" />
      <glyph
         glyph-name="threesuperior"
         unicode=""
         horiz-adv-x="377"
         d="M266 517q0 -29 -15.5 -52t-38.5 -32q67 -22 67 -92q0 -103 -120 -103q-54 0 -84 29l24 42q19 -22 60 -22q67 0 67 58q0 30 -19 48t-52 18h-4v41h2q61 0 61 57q0 48 -57 48q-33 0 -50 -18l-22 37q22 30 76 30q44 0 74.5 -24.5t30.5 -64.5z"
         id="glyph768" />
      <glyph
         glyph-name="acute"
         unicode=""
         horiz-adv-x="436"
         d="M223 658h80l-92 -135h-57z"
         id="glyph770" />
      <glyph
         glyph-name="mu1"
         unicode=""
         horiz-adv-x="455"
         d="M323 60q-14 -30 -45 -49t-71 -19q-45 0 -75 15v-178h-77v607h77v-254q0 -123 96 -123q33 0 59.5 17.5t35.5 43.5v316h78v-436h-78v60z"
         id="glyph772" />
      <glyph
         glyph-name="paragraph"
         unicode=""
         horiz-adv-x="436"
         d="M48 438q0 70 32.5 119t92.5 49h206v-708h-62v658h-65v-658h-62v364q-142 0 -142 176z"
         id="glyph774" />
      <glyph
         glyph-name="middot.001"
         unicode=""
         horiz-adv-x="305"
         d="M83 265q0 25 18 43t43 18t43 -18t18 -43t-18 -43.5t-43 -18.5t-43 18.5t-18 43.5z"
         id="glyph776" />
      <glyph
         glyph-name="cedilla"
         unicode=""
         horiz-adv-x="436"
         d="M172 -25q38 0 61.5 -21t23.5 -57q0 -38 -30 -60t-83 -22l-9 40q32 0 53 11.5t21 30.5q0 30 -37 30v48z"
         id="glyph778" />
      <glyph
         glyph-name="onesuperior"
         unicode=""
         horiz-adv-x="375"
         d="M231 242h-52v274l-77 -45v46q83 42 115 84h14v-359z"
         id="glyph780" />
      <glyph
         glyph-name="ordmasculine"
         unicode=""
         horiz-adv-x="305"
         d="M154 335q-60 0 -93.5 37.5t-33.5 99.5q0 60 34.5 97.5t92.5 37.5q61 0 94 -36.5t33 -98.5t-33.5 -99.5t-93.5 -37.5zM84 472q0 -90 70 -90t70 90q0 88 -70 88t-70 -88z"
         id="glyph782" />
      <glyph
         glyph-name="guillemotright"
         unicode=""
         horiz-adv-x="436"
         d="M213 244v-26l-144 -97v51l86 56l-86 64v51zM376 244v-26l-145 -97v51l86 56l-86 64v51z"
         id="glyph784" />
      <glyph
         glyph-name="onequarter"
         unicode=""
         horiz-adv-x="678"
         d="M537 607l-395 -621h-52l396 621h51zM162 242h-57v270l-72 -41v46q83 42 115 84h14v-359zM606 85h-36v-85h-53v85h-165v28l200 246h18v-232h36v-42zM517 127v126l-103 -126h103z"
         id="glyph786" />
      <glyph
         glyph-name="onehalf"
         unicode=""
         horiz-adv-x="678"
         d="M532 607l-395 -621h-52l396 621h51zM170 242h-52v274l-77 -45v46q83 42 115 84h14v-359zM408 294q10 29 37 49.5t60 20.5q108 0 108 -91q0 -49 -38 -108l-75 -117h136v-48h-219v10l108 168q35 55 35 91q0 50 -52 50q-44 0 -69 -51z"
         id="glyph788" />
      <glyph
         glyph-name="threequarters"
         unicode=""
         horiz-adv-x="678"
         d="M570 607l-395 -621h-53l397 621h51zM242 517q0 -29 -16 -52t-39 -32q67 -22 67 -92q0 -103 -120 -103q-53 0 -83 29l24 42q19 -22 60 -22q66 0 66 58q0 30 -18.5 48t-51.5 18h-4v41h2q60 0 60 57q0 48 -56 48q-35 0 -51 -18l-22 37q22 30 76 30q44 0 75 -24.5t31 -64.5z M618 85h-36v-85h-53v85h-164v28l200 246h17v-232h36v-42zM529 127v126l-103 -126h103z"
         id="glyph790" />
      <glyph
         glyph-name="questiondown"
         unicode=""
         horiz-adv-x="305"
         d="M226 382q0 -25 -18 -43t-43 -18t-43 18t-18 43t18 43.5t43 18.5t43 -18.5t18 -43.5zM158 -171q-61 0 -101.5 34.5t-40.5 92.5q0 60 43 106l59 64q36 44 36 98q0 8 -6 37h54q14 -40 14 -56q0 -28 -11 -59q-12 -34 -49 -74q-37 -41 -51 -65q-13 -22 -13 -44q0 -72 87 -72 q41 0 72 30l30 -58q-42 -34 -123 -34z"
         id="glyph792" />
      <glyph
         glyph-name="OE"
         unicode=""
         horiz-adv-x="827"
         d="M798 523h-274v-166h197v-69h-197v-215h270v-73h-352v56q-66 -66 -175 -66q-112 0 -176 88q-64 90 -64 225q0 129 65 217q66 87 175 87q108 0 175 -64v53h356v-73zM267 533q-80 0 -117 -64t-37 -166q0 -63 15 -115t51 -88.5t88 -36.5q88 0 129.5 66t41.5 174 q0 230 -171 230z"
         id="glyph794" />
      <glyph
         glyph-name="oe"
         unicode=""
         horiz-adv-x="770"
         d="M25 219q0 98 53 161.5t144 63.5q110 0 161 -81q60 81 158 81q91 0 144 -54q54 -54 54 -141q0 -19 -6 -39h-310q0 -67 35.5 -110t97.5 -43q67 0 111 41l33 -62q-50 -44 -159 -44q-103 0 -161 78q-52 -78 -158 -78q-94 0 -145.5 62.5t-51.5 164.5zM666 266q0 51 -35.5 82 t-89.5 31q-40 0 -80 -35q-38 -35 -38 -78h243zM222 61q58 0 87 44t29 114q0 156 -116 156q-55 0 -85.5 -41t-30.5 -115q0 -158 116 -158z"
         id="glyph796" />
      <glyph
         glyph-name="Scaron"
         unicode=""
         horiz-adv-x="400"
         d="M269 781h80l-124 -136h-43l-121 137h70l72 -78zM203 537q-40 0 -64.5 -22.5t-24.5 -61.5q0 -46 32 -73q11 -10 63 -35l49 -24q61 -28 85 -69q25 -38 25 -101q0 -67 -54 -114q-55 -47 -144 -47q-81 0 -136 37l30 75q21 -15 54.5 -27t62.5 -12q45 0 75.5 25t30.5 67 q0 31 -16 56q-18 28 -81 57l-48 22q-55 26 -82 62.5t-27 99.5q0 68 48 111t120 43q99 0 137 -32l-24 -71q-17 12 -51 23t-60 11z"
         id="glyph798" />
      <glyph
         glyph-name="scaron"
         unicode=""
         horiz-adv-x="337"
         d="M230 659h80l-124 -136h-44l-121 137h70l73 -78zM311 117q0 -61 -42.5 -93t-112.5 -32q-71 0 -130 34l28 73q65 -42 104 -42q71 0 71 60q0 43 -69 74q-55 25 -72 37q-59 42 -59 102q0 55 39.5 84.5t101.5 29.5q48 0 120 -30l-21 -72q-48 37 -93 37q-26 0 -45.5 -12.5 t-19.5 -33.5q0 -43 47 -64l56 -25q51 -23 74 -52.5t23 -74.5z"
         id="glyph800" />
      <glyph
         glyph-name="Ydieresis"
         unicode=""
         horiz-adv-x="475"
         d="M144 646q-19 0 -32.5 13.5t-13.5 32.5q0 20 13 33t33 13t33 -13t13 -33t-13 -33t-33 -13zM382 692q0 -19 -13.5 -32.5t-32.5 -13.5q-20 0 -33 13t-13 33t13 33t33 13t33 -13t13 -33zM470 596l-191 -329v-267h-82v267l-192 329h84l149 -260l148 260h84z"
         id="glyph802" />
      <glyph
         glyph-name="Zcaron"
         unicode=""
         horiz-adv-x="458"
         d="M285 781h80l-124 -136h-43l-122 137h70l73 -78zM418 0h-377v20l256 503h-252v73h364v-20l-257 -503h266v-73z"
         id="glyph804" />
      <glyph
         glyph-name="zcaron"
         unicode=""
         horiz-adv-x="395"
         d="M257 659h80l-124 -136h-44l-121 137h70l72 -78zM377 414l-239 -345h241v-69h-363v20l248 347h-244v69h357v-22z"
         id="glyph806" />
      <glyph
         glyph-name="florin"
         unicode=""
         horiz-adv-x="323"
         d="M341 602l-15 -60q-29 11 -48 11q-81 0 -96 -117q4 0 13.5 -0.5t14.5 -0.5q39 0 74 4l-5 -47q-67 -10 -108 -12l-67 -410q-10 -57 -51.5 -93t-102.5 -43q-4 7 -9 24l-7 23l-6 16q32 7 62.5 27.5t35.5 45.5l68 407q-17 0 -61 -6l12 65h60q36 178 178 178q22 0 58 -12z"
         id="glyph808" />
      <glyph
         glyph-name="circumflex"
         unicode=""
         horiz-adv-x="436"
         d="M358 523h-81l-66 77l-72 -77h-70l121 137h44z"
         id="glyph810" />
      <glyph
         glyph-name="tilde"
         unicode=""
         horiz-adv-x="436"
         d="M83 523q5 33 25.5 58.5t49.5 25.5q33 0 61 -16q29 -15 43 -15q34 0 44 31h36q-21 -84 -78 -84q-26 0 -57 15q-29 16 -43 16q-29 0 -44 -31h-37z"
         id="glyph812" />
      <glyph
         glyph-name="endash"
         unicode=""
         horiz-adv-x="305"
         d="M250 216h-212v39h212v-39z"
         id="glyph814" />
      <glyph
         glyph-name="emdash"
         unicode=""
         horiz-adv-x="611"
         d="M570 216h-532v39h532v-39z"
         id="glyph816" />
      <glyph
         glyph-name="quoteleft"
         unicode=""
         horiz-adv-x="305"
         d="M198 614l27 -36l-31 -26q-22 -19 -22 -47q0 -15 20 -38t20 -41q0 -59 -59 -59q-63 0 -63 72q0 107 108 175z"
         id="glyph818" />
      <glyph
         glyph-name="quoteright"
         unicode=""
         horiz-adv-x="305"
         d="M216 542q0 -108 -108 -175l-27 36l30 26q23 20 23 47q0 15 -20 38t-20 41q0 59 59 59q63 0 63 -72z"
         id="glyph820" />
      <glyph
         glyph-name="quotesinglbase"
         unicode=""
         horiz-adv-x="305"
         d="M216 41q0 -109 -108 -176l-27 36l30 26q23 20 23 47q0 16 -20 39t-20 40q0 60 59 60q63 0 63 -72z"
         id="glyph822" />
      <glyph
         glyph-name="quotedblleft"
         unicode=""
         horiz-adv-x="436"
         d="M359 614l27 -36l-30 -26q-23 -20 -23 -47q0 -15 20 -38t20 -41q0 -59 -59 -59q-63 0 -63 72q0 107 108 175zM176 614l27 -36l-31 -26q-22 -19 -22 -47q0 -15 20 -38t20 -41q0 -59 -59 -59q-63 0 -63 72q0 107 108 175z"
         id="glyph824" />
      <glyph
         glyph-name="quotedblright"
         unicode=""
         horiz-adv-x="436"
         d="M389 542q0 -108 -108 -175l-28 36l31 26q22 19 22 47q0 15 -20 38t-20 41q0 59 59 59q64 0 64 -72zM202 542q0 -108 -108 -175l-27 36l30 26q23 20 23 47q0 15 -20 38t-20 41q0 59 59 59q63 0 63 -72z"
         id="glyph826" />
      <glyph
         glyph-name="quotedblbase"
         unicode=""
         horiz-adv-x="436"
         d="M389 41q0 -109 -108 -176l-28 36l31 26q22 19 22 47q0 16 -20 39t-20 40q0 60 59 60q64 0 64 -72zM202 41q0 -109 -108 -176l-27 36l30 26q23 20 23 47q0 16 -20 39t-20 40q0 60 59 60q63 0 63 -72z"
         id="glyph828" />
      <glyph
         glyph-name="dagger"
         unicode=""
         horiz-adv-x="382"
         d="M161 -102v481h-151v57h151v127h61v-127h150v-57h-150v-481l-30 -36z"
         id="glyph830" />
      <glyph
         glyph-name="daggerdbl"
         unicode=""
         horiz-adv-x="382"
         d="M222 155h150v-57h-150v-200l-31 -38l-30 38v200h-151v57h151v224h-151v57h151v127h61v-127h150v-57h-150v-224z"
         id="glyph832" />
      <glyph
         glyph-name="bullet"
         unicode=""
         horiz-adv-x="436"
         d="M103 234q0 48 35 82.5t83 34.5t82.5 -34.5t34.5 -82.5t-34.5 -83t-82.5 -35q-49 0 -83.5 34.5t-34.5 83.5z"
         id="glyph834" />
      <glyph
         glyph-name="ellipsis"
         unicode=""
         horiz-adv-x="611"
         d="M102 114q25 0 43 -18t18 -43t-18 -43t-43 -18t-43 18t-18 43t18 43t43 18zM306 114q25 0 43 -18t18 -43t-18 -43t-43 -18t-43 18t-18 43t18 43t43 18zM510 114q25 0 43 -18t18 -43t-18 -43t-43 -18t-43 18t-18 43t18 43t43 18z"
         id="glyph836" />
      <glyph
         glyph-name="perthousand"
         unicode=""
         horiz-adv-x="760"
         d="M448 607l-359 -615h-52l359 615h52zM251 465q0 -60 -30 -99t-83 -39q-113 0 -113 146q0 57 32 95.5t85 38.5q51 0 80 -37t29 -105zM76 469q0 -47 15.5 -73.5t42.5 -26.5q66 0 66 99q0 97 -60 97q-29 0 -46.5 -26t-17.5 -70zM471 130q0 -60 -30 -99t-83 -39 q-113 0 -113 146q0 57 31.5 95t84.5 38q51 0 80.5 -37t29.5 -104zM736 130q0 -60 -30.5 -99t-83.5 -39q-113 0 -113 146q0 57 32 95t85 38q51 0 80.5 -37t29.5 -104zM296 133q0 -47 15.5 -73.5t42.5 -26.5q66 0 66 100q0 97 -60 97q-29 0 -46.5 -26.5t-17.5 -70.5zM560 133 q0 -47 15.5 -73.5t42.5 -26.5q66 0 66 100q0 97 -60 97q-29 0 -46.5 -26.5t-17.5 -70.5z"
         id="glyph838" />
      <glyph
         glyph-name="guilsinglleft"
         unicode=""
         horiz-adv-x="305"
         d="M214 121l-144 97v26l144 99v-51l-86 -64l86 -56v-51z"
         id="glyph840" />
      <glyph
         glyph-name="guilsinglright"
         unicode=""
         horiz-adv-x="305"
         d="M230 244v-26l-144 -97v51l86 56l-86 64v51z"
         id="glyph842" />
      <glyph
         glyph-name="Euro"
         unicode=""
         horiz-adv-x="436"
         d="M59 378q15 95 75 161.5t150 66.5q101 0 144 -38l-36 -66q-40 31 -106 31q-61 0 -98 -44.5t-47 -110.5h187l-24 -58h-169q-1 -10 -1 -29q0 -4 0.5 -11.5t0.5 -12.5h141l-20 -57h-115q6 -54 45 -99q42 -48 93 -48q39 0 78.5 17.5t61.5 40.5v-88q-56 -43 -148 -43 q-86 0 -141 63.5t-70 156.5h-47v57h39q-1 11 -1 31q0 4 0.5 11t0.5 11h-39v58h46z"
         id="glyph844" />
      <glyph
         glyph-name="trademark"
         unicode=""
         horiz-adv-x="528"
         d="M292 562h-89v-262h-41v262h-84v36h214v-36zM549 301h-39l-34 202l-59 -204h-24l-63 207l-32 -205h-38l45 297h31l68 -230l68 230h31z"
         id="glyph846" />
      <glyph
         glyph-name="comma.space"
         unicode=""
         horiz-adv-x="650"
         d="M152 113q23 0 40.5 -20.5t17.5 -44.5q0 -54 -23 -98t-96 -98l-21 30q70 57 70 97q0 18 -12 36q-35 17 -35 48q0 22 16.5 36t42.5 14z"
         id="glyph848" />
      <glyph
         glyph-name="period.space"
         unicode=""
         horiz-adv-x="650"
         d="M83 53q0 25 18 43t43 18t43 -18t18 -43t-18 -43t-43 -18t-43 18t-18 43z"
         id="glyph850" />
      <glyph
         glyph-name="colon.space"
         unicode=""
         horiz-adv-x="650"
         d="M83 383q0 25 18 43t43 18t43 -18t18 -43t-18 -43.5t-43 -18.5t-43 18.5t-18 43.5zM83 53q0 25 18 43t43 18t43 -18t18 -43t-18 -43t-43 -18t-43 18t-18 43z"
         id="glyph852" />
      <glyph
         glyph-name="exclam.space"
         unicode=""
         horiz-adv-x="671"
         d="M184 155h-29q-31 201 -31 285v167h92v-167q0 -75 -32 -285zM111 53q0 25 18 43t43 18t43 -18t18 -43t-18 -43t-43 -18t-43 18t-18 43z"
         id="glyph854" />
      <glyph
         glyph-name="question.space"
         unicode=""
         horiz-adv-x="691"
         d="M189 607q61 0 101.5 -35t40.5 -92q0 -62 -42 -107l-60 -63q-35 -42 -35 -98q0 -13 5 -37h-53q-14 40 -14 55q0 31 10 60q10 30 49 73q34 37 51 65q13 22 13 45q0 71 -86 71q-43 0 -73 -29l-29 58q42 34 122 34zM121 53q0 25 18 43t43 18t43 -18t18 -43t-18 -43t-43 -18 t-43 18t-18 43z"
         id="glyph856" />
      </font>
</defs>
</svg>
